<svg width="189" height="119" viewBox="0 0 189 119" fill="none" xmlns="http://www.w3.org/2000/svg">
<g clip-path="url(#clip0_263_1180)">
<path d="M65.4142 90.5183C87.8105 90.5183 105.966 72.5622 105.966 50.4122C105.966 28.2622 87.8105 10.306 65.4142 10.306C43.018 10.306 24.8623 28.2622 24.8623 50.4122C24.8623 72.5622 43.018 90.5183 65.4142 90.5183Z" fill="#38AE83"/>
<path d="M65.4139 84.0292C84.1869 84.0292 99.4054 68.978 99.4054 50.4114C99.4054 31.8448 84.1869 16.7936 65.4139 16.7936C46.6409 16.7936 31.4224 31.8448 31.4224 50.4114C31.4224 68.978 46.6409 84.0292 65.4139 84.0292Z" fill="#339972"/>
<path d="M87.4753 72.2305C99.6594 60.1803 99.6594 40.643 87.4753 28.5927C75.2911 16.5425 55.5366 16.5425 43.3524 28.5927C31.1682 40.643 31.1682 60.1803 43.3524 72.2305C55.5366 84.2807 75.2911 84.2807 87.4753 72.2305Z" fill="#84D3B4"/>
<path d="M55.6042 26.2721C55.2146 25.3564 54.3507 25.0852 53.4184 25.2106C53.2147 25.2381 53.0117 25.286 52.8073 25.3085C53.3635 25.2479 51.8764 25.4459 52.1905 25.3585C51.7005 25.4945 51.1649 25.7537 50.7211 26.0108C49.9377 26.4672 49.2098 27.0843 48.4997 27.6436C47.3223 28.5713 46.1422 29.5244 45.0895 30.5915C43.9792 31.7039 42.988 32.9267 42.1316 34.2404C41.6709 34.9625 41.2953 35.7344 41.0119 36.541C40.6287 37.6138 40.5668 38.5485 41.3104 39.4819C41.6366 39.8911 42.2811 39.9679 42.7548 39.8594C43.7263 39.6361 44.1622 38.8239 44.6465 38.0568C45.009 37.4813 45.3922 36.9073 45.7932 36.3571C45.811 36.3325 45.9257 36.1831 45.9798 36.1113L46.1521 35.9C46.3744 35.6365 46.6035 35.3782 46.8395 35.1251C47.3167 34.6158 47.8209 34.1347 48.3387 33.6663C49.3479 32.7505 50.3878 31.8862 51.4633 31.0515C51.5089 31.017 51.5602 30.9776 51.6057 30.9466C51.7439 30.843 51.8821 30.7395 52.0231 30.6394C52.3593 30.3971 52.709 30.1766 53.0523 29.9456C53.3372 29.7533 53.6178 29.5511 53.897 29.3518C54.133 29.226 54.3349 29.0458 54.4853 28.8263C54.6235 28.7354 54.8058 28.5833 54.8486 28.5565C55.6277 28.0662 55.9696 27.1287 55.6042 26.2721Z" fill="white"/>
<path d="M68.7747 43.6336H61.9415C61.6292 43.6336 61.376 43.884 61.376 44.1929V69.4079C61.376 69.7168 61.6292 69.9672 61.9415 69.9672H68.7747C69.087 69.9672 69.3402 69.7168 69.3402 69.4079V44.1929C69.3402 43.884 69.087 43.6336 68.7747 43.6336Z" fill="#339972"/>
<path d="M62.2012 40.5913C63.0053 41.3422 64.0673 41.7226 65.3578 41.7226C66.6484 41.7226 67.7082 41.3422 68.5152 40.5913C69.3222 39.8404 69.7431 38.8486 69.7431 37.668C69.7431 36.5043 69.335 35.5287 68.5323 34.7694C67.7296 34.01 66.6684 33.636 65.3614 33.636C64.0374 33.636 62.9655 34.0185 62.1763 34.7722C61.3871 35.5259 60.979 36.5057 60.979 37.668C60.9755 38.8486 61.3878 39.832 62.2012 40.5913Z" fill="#339972"/>
<path fill-rule="evenodd" clip-rule="evenodd" d="M184.142 91.8631L188.893 93.552L189.856 98.535L185.104 96.8461L184.142 91.8631Z" fill="#38AE83"/>
<path fill-rule="evenodd" clip-rule="evenodd" d="M150.806 37.8876L148.671 32.7551L149.39 32.2607L153.439 36.0756L157.81 34.0939L158.332 34.8019L155.084 38.4594L156.978 43.248L156.266 43.7414L152.458 40.2758L147.879 42.006L147.402 41.2662L150.806 37.8876Z" fill="#F8DD53"/>
<path fill-rule="evenodd" clip-rule="evenodd" d="M14.6305 21.1584L14.5923 26.2276L10.2236 28.8216L10.2601 23.7524L14.6305 21.1584Z" fill="#F8DD53"/>
<path fill-rule="evenodd" clip-rule="evenodd" d="M5.11947 89.4767L2.98494 84.3433L3.70357 83.849L7.75206 87.663L12.1216 85.6821L12.6446 86.3902L9.4001 90.0432L11.2909 94.8291L10.5794 95.3208L6.76751 91.8596L2.18716 93.5898L1.71045 92.85L5.11947 89.4767Z" fill="#38AE83"/>
<path d="M115.221 3.82382C115.218 4.37844 115.049 4.91967 114.735 5.37921C114.421 5.83875 113.976 6.19602 113.457 6.40594C112.938 6.61587 112.367 6.66904 111.818 6.55875C111.268 6.44846 110.764 6.17966 110.369 5.78625C109.973 5.39284 109.705 4.89245 109.597 4.34821C109.489 3.80397 109.546 3.24026 109.761 2.72821C109.977 2.21615 110.341 1.77869 110.808 1.47101C111.274 1.16333 111.822 0.999226 112.383 0.99939C112.757 1.00043 113.127 1.07432 113.472 1.21684C113.817 1.35937 114.13 1.56773 114.394 1.83003C114.657 2.09232 114.866 2.40341 115.008 2.74551C115.15 3.08762 115.222 3.45403 115.221 3.82382V3.82382Z" stroke="#67B3FA"/>
<path fill-rule="evenodd" clip-rule="evenodd" d="M117.571 6.2586L111.842 2.95215L112.265 2.31531L117.995 5.62176L117.571 6.2586Z" fill="#67B3FA"/>
<path fill-rule="evenodd" clip-rule="evenodd" d="M188.466 27.1792L185.285 24.2484L185.948 23.5297L189.129 26.4606L188.466 27.1792Z" fill="#67B3FA"/>
<path d="M156.859 103.897C156.859 103.897 127.763 108.621 127.415 108.416C127.066 108.21 123.298 92.3047 123.298 92.3047C123.298 92.3047 147.358 88.0729 147.747 88.0729C148.137 88.0729 153.37 92.1684 153.439 92.442C153.509 92.7155 156.859 103.897 156.859 103.897Z" fill="#C7C7C7"/>
<path d="M68.1075 107.939C67.4102 108.007 32.1763 107.27 32.1763 107.27L34.8284 99.3372C34.8284 99.3372 39.712 92.1111 42.293 92.2422C44.874 92.3733 60.2284 89.9385 62.8779 91.7364C65.5274 93.5344 67.9003 92.1006 69.1552 96.3984C70.4101 100.696 71.3911 101.181 70.4119 103.773C69.4327 106.365 68.1075 107.939 68.1075 107.939Z" fill="#C7C7C7"/>
<path d="M142.166 118.466C135.542 118.466 130.173 113.21 130.173 106.728C130.173 100.245 135.542 94.9893 142.166 94.9893C148.79 94.9893 154.16 100.245 154.16 106.728C154.16 113.21 148.789 118.466 142.166 118.466Z" fill="#1E1F21"/>
<path d="M142.166 114.895C137.557 114.895 133.822 111.238 133.822 106.729C133.822 102.219 137.557 98.5613 142.166 98.5613C146.775 98.5613 150.51 102.218 150.51 106.729C150.51 111.239 146.775 114.895 142.166 114.895Z" fill="#C7C7C7"/>
<path d="M142.166 112.19C139.084 112.19 136.586 109.745 136.586 106.728C136.586 103.711 139.084 101.266 142.166 101.266C145.248 101.266 147.746 103.711 147.746 106.728C147.746 109.744 145.248 112.19 142.166 112.19Z" fill="#DEDEDE"/>
<path d="M49.8308 118.466C43.2066 118.466 37.8374 113.21 37.8374 106.728C37.8374 100.245 43.2066 94.9893 49.8308 94.9893C56.455 94.9893 61.8242 100.247 61.8242 106.728C61.8242 113.209 56.4541 118.466 49.8308 118.466Z" fill="#1E1F21"/>
<path d="M49.8306 114.895C45.2227 114.895 41.4863 111.238 41.4863 106.729C41.4863 102.219 45.2218 98.5613 49.8306 98.5613C54.4394 98.5613 58.1748 102.218 58.1748 106.729C58.1748 111.239 54.4385 114.895 49.8306 114.895Z" fill="#C7C7C7"/>
<path d="M55.4125 106.728C55.4125 109.745 52.9133 112.19 49.8316 112.19C46.7498 112.19 44.2524 109.745 44.2524 106.728C44.2524 103.711 46.7498 101.266 49.8316 101.266C52.9133 101.266 55.4125 103.711 55.4125 106.728Z" fill="#DEDEDE"/>
<path d="M166.411 85.6082H159.021C158.876 85.607 158.732 85.6414 158.604 85.7084C158.476 85.7754 158.366 85.8728 158.285 85.992C158.204 86.1112 158.154 86.2484 158.14 86.3913C158.126 86.5341 158.148 86.6783 158.204 86.8107L159.035 88.7458C159.427 89.6526 160.081 90.4252 160.914 90.9675C161.747 91.5097 162.723 91.7977 163.72 91.7954H166.411C166.662 91.7966 166.904 91.6989 167.083 91.5239C167.262 91.3489 167.363 91.1109 167.364 90.8622V86.5415C167.364 86.4183 167.338 86.2964 167.29 86.1828C167.242 86.0692 167.172 85.9661 167.083 85.8795C166.994 85.7928 166.89 85.7242 166.774 85.6777C166.659 85.6311 166.535 85.6076 166.411 85.6082Z" fill="white"/>
<path d="M22.0506 98.9273V107.431C22.0524 107.812 22.1302 108.19 22.2796 108.541C22.429 108.893 22.647 109.212 22.9213 109.481C23.1955 109.749 23.5206 109.961 23.8779 110.105C24.2351 110.249 24.6176 110.322 25.0034 110.32H33.9773C34.3026 110.321 34.6243 110.254 34.9215 110.123C35.2186 109.992 35.4846 109.801 35.702 109.562C35.9194 109.322 36.0833 109.041 36.1831 108.734C36.2828 108.428 36.3161 108.105 36.2809 107.785C36.2272 107.303 36.2005 106.818 36.2008 106.333C36.2008 98.9159 42.4265 92.9196 50.0397 93.0735C57.3869 93.2213 63.3289 99.1824 63.3076 106.372C63.3052 106.951 63.2648 107.528 63.1866 108.102C63.1512 108.381 63.1766 108.664 63.2612 108.933C63.3457 109.202 63.4875 109.45 63.6768 109.66C63.8662 109.87 64.0989 110.037 64.3592 110.151C64.6195 110.265 64.9014 110.322 65.186 110.319H127.58C127.777 110.321 127.971 110.28 128.15 110.199C128.329 110.117 128.487 109.998 128.614 109.849C128.741 109.7 128.832 109.526 128.883 109.338C128.933 109.149 128.941 108.953 128.905 108.761C128.754 107.963 128.677 107.152 128.677 106.34C128.677 99.061 134.774 93.0788 142.214 93.07C149.211 93.0612 155.079 98.1093 155.822 104.749C155.836 104.879 155.877 105.004 155.943 105.118C156.008 105.231 156.096 105.33 156.202 105.408C156.307 105.487 156.428 105.543 156.556 105.573C156.684 105.604 156.818 105.608 156.948 105.586L163.727 103.834C164.607 103.611 165.386 103.106 165.944 102.397C166.502 101.689 166.806 100.817 166.809 99.9195V83.6872C166.805 82.7538 166.469 81.8517 165.859 81.1392C165.249 80.4268 164.405 79.9496 163.475 79.7914L161.596 79.4633C161.596 79.4633 151.269 76.0047 145.32 71.4535C139.371 66.9024 132.482 63.713 120.76 63.625C109.038 63.537 95.0845 63.1702 89.4093 64.4439C83.7341 65.7176 60.5656 76.8236 60.5656 76.8236C60.5656 76.8236 46.9829 83.6511 36.2809 85.7446C26.5865 87.6419 23.3074 89.0159 22.2943 95.5567C22.1257 96.6723 22.0442 97.7992 22.0506 98.9273ZM103.279 69.2475C103.279 69.2475 103.539 67.5094 105.241 67.4883C106.276 67.4751 114.936 66.8725 123.367 67.8727C130.184 68.6848 136.534 71.7136 141.422 76.4832L143.967 78.9751C143.967 78.9751 145.685 81.6386 141.91 81.6737L106.045 82.0054C106.045 82.0054 103.85 81.9482 103.555 79.9268C103.26 77.9055 103.281 69.2466 103.281 69.2466L103.279 69.2475ZM69.3234 78.3893C73.7152 75.5921 84.8877 69.5395 89.0198 68.9546C91.6515 68.5816 95.0925 68.4206 97.2484 68.3512C97.5163 68.3448 97.7828 68.3918 98.032 68.4894C98.2811 68.5869 98.5079 68.7331 98.6988 68.9192C98.8896 69.1052 99.0407 69.3274 99.1429 69.5724C99.2452 69.8174 99.2966 70.0802 99.294 70.3452V79.4211C99.299 79.9834 99.0839 80.5258 98.6936 80.9347C98.3034 81.3436 97.7682 81.5873 97.2004 81.6148L69.0103 82.7231C68.69 82.7395 68.3707 82.6755 68.0821 82.5371C67.7935 82.3987 67.545 82.1904 67.3596 81.9315C66.8571 81.1979 66.7984 79.9981 69.3234 78.3893Z" fill="#67B3FA"/>
<path d="M34.0513 88.6121C29.9814 89.2226 25.2953 92.9926 25.2953 92.9926C24.1746 94.1713 25.1005 96.0835 26.7414 95.9833L34.6756 95.4924C35.4769 95.4458 36.2442 95.156 36.873 94.6626C37.5018 94.1691 37.9615 93.496 38.1896 92.7349C38.9607 90.1312 38.3043 87.9753 34.0513 88.6121Z" fill="white"/>
<path d="M166.763 100.525C166.879 100.522 166.995 100.548 167.099 100.599C167.203 100.651 167.292 100.727 167.359 100.821C167.427 100.915 167.47 101.024 167.485 101.138C167.5 101.252 167.486 101.368 167.445 101.476C167.175 102.138 166.752 102.728 166.209 103.199C165.667 103.671 165.02 104.009 164.321 104.188L156.725 106.152C156.579 106.177 156.43 106.173 156.286 106.139C156.142 106.104 156.007 106.041 155.889 105.954C155.771 105.866 155.672 105.755 155.599 105.628C155.525 105.501 155.479 105.361 155.463 105.216C155.324 103.98 155.023 102.768 154.566 101.609C154.531 101.519 154.519 101.423 154.53 101.327C154.542 101.232 154.576 101.14 154.631 101.061C154.685 100.981 154.759 100.916 154.844 100.87C154.93 100.825 155.026 100.8 155.123 100.799L166.763 100.525Z" fill="#469FE8"/>
<path d="M36.1386 103.584C36.2733 103.58 36.4073 103.605 36.5312 103.658C36.6551 103.71 36.7659 103.789 36.8562 103.888C36.9464 103.987 37.0138 104.104 37.0538 104.232C37.0937 104.359 37.1053 104.493 37.0876 104.625C36.9337 105.793 36.9221 106.974 37.0529 108.144C37.0925 108.499 37.0557 108.859 36.945 109.199C36.8343 109.539 36.6521 109.852 36.4105 110.118C36.1688 110.384 35.8731 110.596 35.5427 110.741C35.2123 110.886 34.8546 110.96 34.4932 110.959H24.541C23.6764 110.963 22.8453 110.628 22.2305 110.027C21.6158 109.426 21.2676 108.607 21.2627 107.752V105.231C21.2627 104.885 21.4004 104.552 21.6462 104.306C21.892 104.059 22.2261 103.917 22.5763 103.912L36.1386 103.584Z" fill="#469FE8"/>
<path d="M60.3242 80.7036L60.3989 80.9428C60.4372 81.0642 64.2028 93.2327 64.3852 104.886L64.3905 105.194L101.04 104.495L101.363 104.486L101.667 104.48L127.97 103.82L127.994 103.545C127.994 103.514 128.301 100.323 130.773 97.3C134.04 93.3031 139.626 91.4067 146.92 91.8069L147.187 91.8218L149.696 80.3051L149.589 80.1916C149.195 79.7685 139.868 69.8184 132.705 67.6343C125.59 65.4661 102.466 65.9569 101.357 65.9815C100.942 65.9622 91.2749 65.5417 82.615 69.4692C73.8687 73.4336 60.6809 80.5127 60.5492 80.5839L60.3242 80.7036ZM101.668 103.866V66.5893C104.493 66.5365 125.921 66.2076 132.519 68.2201C139.116 70.2327 147.937 79.3533 149.017 80.4889L146.687 91.1815C137.36 90.7346 132.608 94.0595 130.261 96.9447C128.082 99.6204 127.528 102.355 127.402 103.219L101.668 103.866ZM61.0722 81.0035C62.8439 80.0562 74.7759 73.6983 82.8791 70.0268C90.6897 66.4864 99.3444 66.5365 101.04 66.5849V103.88L65.0077 104.568C64.7827 93.8256 61.5978 82.7592 61.0722 81.0035Z" fill="#469FE8"/>
<path d="M62.7226 107.218C62.7252 106.562 62.6776 105.907 62.5803 105.258C62.5528 105.076 62.5648 104.891 62.6155 104.714C62.6661 104.537 62.7542 104.373 62.8739 104.233C62.9937 104.092 63.1423 103.979 63.3098 103.899C63.4774 103.82 63.6602 103.777 63.8459 103.773L128.742 102.222C128.905 102.218 129.067 102.252 129.215 102.321C129.362 102.39 129.491 102.493 129.591 102.621C129.691 102.748 129.759 102.898 129.79 103.056C129.82 103.215 129.813 103.379 129.767 103.534C129.196 105.519 129.098 107.608 129.481 109.637C129.518 109.833 129.511 110.034 129.46 110.226C129.409 110.418 129.316 110.597 129.188 110.75C129.059 110.903 128.898 111.026 128.716 111.11C128.534 111.194 128.335 111.237 128.134 111.237H64.6321C64.3409 111.237 64.053 111.176 63.7876 111.057C63.5223 110.939 63.2858 110.765 63.094 110.548C62.9022 110.332 62.7596 110.077 62.6757 109.801C62.5919 109.525 62.5687 109.235 62.6078 108.95C62.6834 108.375 62.7217 107.797 62.7226 107.218Z" fill="#469FE8"/>
<path d="M90.3929 85.8967H98.4623C98.5095 85.8974 98.5563 85.8889 98.6001 85.8715C98.6439 85.8541 98.6837 85.8283 98.7173 85.7956C98.7509 85.7628 98.7776 85.7238 98.7958 85.6808C98.814 85.6377 98.8234 85.5915 98.8234 85.5449V84.8623C98.8234 84.8157 98.814 84.7695 98.7958 84.7264C98.7776 84.6834 98.7509 84.6444 98.7173 84.6116C98.6837 84.5789 98.6439 84.5531 98.6001 84.5357C98.5563 84.5184 98.5095 84.5098 98.4623 84.5105H90.3929C90.3458 84.5099 90.2991 84.5186 90.2554 84.536C90.2117 84.5534 90.172 84.5792 90.1385 84.612C90.105 84.6447 90.0784 84.6837 90.0602 84.7267C90.0421 84.7696 90.0327 84.8157 90.0327 84.8623V85.5449C90.0327 85.5915 90.0421 85.6376 90.0602 85.6806C90.0784 85.7235 90.105 85.7625 90.1385 85.7953C90.172 85.828 90.2117 85.8538 90.2554 85.8712C90.2991 85.8886 90.3458 85.8973 90.3929 85.8967Z" fill="#469FE8"/>
<path d="M135.032 85.2054H143.102C143.149 85.2061 143.196 85.1975 143.24 85.1801C143.283 85.1628 143.323 85.137 143.357 85.1042C143.391 85.0715 143.417 85.0325 143.435 84.9894C143.454 84.9464 143.463 84.9002 143.463 84.8535V84.171C143.463 84.1243 143.454 84.0781 143.435 84.0351C143.417 83.9921 143.391 83.953 143.357 83.9203C143.323 83.8876 143.283 83.8618 143.24 83.8444C143.196 83.827 143.149 83.8184 143.102 83.8191H135.032C134.985 83.8184 134.938 83.827 134.895 83.8444C134.851 83.8618 134.811 83.8876 134.777 83.9203C134.744 83.953 134.717 83.9921 134.699 84.0351C134.681 84.0781 134.671 84.1243 134.671 84.171V84.8535C134.671 84.9001 134.681 84.9462 134.699 84.9892C134.717 85.0322 134.744 85.0712 134.777 85.1039C134.811 85.1366 134.85 85.1624 134.894 85.1799C134.938 85.1973 134.984 85.206 135.032 85.2054Z" fill="#469FE8"/>
</g>
<defs>
<clipPath id="clip0_263_1180">
<rect width="189" height="119" fill="white"/>
</clipPath>
</defs>
</svg>
