<svg width="160" height="24" viewBox="0 0 160 24" fill="none" xmlns="http://www.w3.org/2000/svg">
<path d="M10.1381 23.4636C6.83716 23.4636 4.32116 22.5175 2.5927 20.6226C0.864233 18.7303 0 16.0421 0 12.5606C0 10.8291 0.263361 9.28473 0.790083 7.92482C1.3168 6.56755 2.04041 5.41848 2.95834 4.48288C3.87626 3.54729 4.97062 2.83835 6.2414 2.35342C7.50962 1.86849 8.88779 1.62866 10.3708 1.62866C11.2299 1.62866 12.0123 1.69455 12.7129 1.82632C13.4186 1.95546 14.0323 2.10832 14.559 2.27963C15.0857 2.45093 15.5255 2.62487 15.8758 2.80672C16.2261 2.98857 16.4818 3.12825 16.6378 3.23103L15.321 7.03666C14.6945 6.69669 13.9684 6.40415 13.1374 6.16168C12.3089 5.91922 11.3654 5.79799 10.312 5.79799C9.60628 5.79799 8.92103 5.91922 8.24601 6.16168C7.57099 6.40415 6.97779 6.79156 6.45873 7.32657C5.94224 7.85893 5.52547 8.54943 5.21352 9.39542C4.90158 10.2414 4.74561 11.2666 4.74561 12.4763C4.74561 13.4435 4.84789 14.3422 5.055 15.1777C5.25955 16.0157 5.59195 16.7326 6.04963 17.3387C6.50732 17.9423 7.10819 18.4219 7.85225 18.7724C8.59375 19.123 9.49378 19.2995 10.5472 19.2995C11.2095 19.2995 11.8078 19.26 12.3345 19.1783C12.8612 19.0966 13.3317 19.0017 13.7408 18.891C14.1499 18.7804 14.5104 18.6539 14.8249 18.5142C15.1369 18.3719 15.4207 18.2427 15.6738 18.1215L16.9344 21.8955C16.29 22.2987 15.3798 22.6624 14.2087 22.9839C13.0376 23.3002 11.6799 23.4636 10.1381 23.4636Z" fill="#38AE83"/>
<path d="M26.7825 6.82251C28.0712 6.82251 29.1451 6.97537 30.0068 7.27581C30.8659 7.57626 31.5537 8.01111 32.0727 8.5751C32.5918 9.1391 32.9574 9.82432 33.1722 10.6281C33.387 11.4346 33.4944 12.3307 33.4944 13.3163V22.6776C32.8679 22.8199 32.0011 22.9859 30.8863 23.1757C29.7741 23.368 28.4266 23.4629 26.8439 23.4629C25.8467 23.4629 24.9441 23.3733 24.1336 23.1915C23.3205 23.0096 22.6224 22.7118 22.0369 22.3007C21.4514 21.8895 21.0014 21.3493 20.6894 20.6851C20.3775 20.021 20.2215 19.2066 20.2215 18.2394C20.2215 17.3144 20.403 16.529 20.7636 15.8859C21.1241 15.2402 21.6099 14.7289 22.2133 14.3468C22.8193 13.9647 23.5122 13.6879 24.2946 13.5166C25.0745 13.3453 25.885 13.261 26.7263 13.261C27.2913 13.261 27.795 13.2873 28.2348 13.3348C28.6721 13.3875 29.03 13.4507 29.3036 13.5324V13.1108C29.3036 12.3438 29.0786 11.7324 28.6311 11.2659C28.1811 10.8047 27.4013 10.5728 26.2865 10.5728C25.545 10.5728 24.8137 10.6281 24.0901 10.7388C23.369 10.8495 22.7426 11.0077 22.2159 11.2079L21.661 7.58153C21.9142 7.50246 22.2312 7.41813 22.6122 7.32589C22.9932 7.23364 23.4074 7.15458 23.8574 7.08342C24.3074 7.01226 24.7805 6.95428 25.279 6.90157C25.7725 6.84886 26.2737 6.82251 26.7825 6.82251ZM27.1354 19.9894C27.5649 19.9894 27.974 19.9788 28.3652 19.9577C28.7564 19.9367 29.0709 19.9077 29.3036 19.8681V16.4552C29.1297 16.4157 28.8638 16.3735 28.5135 16.334C28.1607 16.2971 27.8385 16.2733 27.547 16.2733C27.1379 16.2733 26.7518 16.2997 26.3913 16.3498C26.0282 16.4025 25.7112 16.4947 25.4376 16.637C25.164 16.7767 24.9492 16.9717 24.7932 17.2089C24.6373 17.4514 24.5606 17.7518 24.5606 18.1155C24.5606 18.8192 24.7907 19.3094 25.2484 19.5809C25.7035 19.8523 26.335 19.9894 27.1354 19.9894Z" fill="#38AE83"/>
<path d="M46.0668 11.5674C45.6781 11.4672 45.2179 11.3618 44.6911 11.2485C44.1644 11.1378 43.5968 11.0824 42.9908 11.0824C42.7172 11.0824 42.3899 11.1088 42.009 11.1589C41.628 11.2089 41.339 11.2643 41.1447 11.3249V23.4639H36.7801V8.42586C37.5599 8.14387 38.483 7.87768 39.5467 7.62468C40.6103 7.37431 41.7993 7.2478 43.1059 7.2478C43.3385 7.2478 43.6224 7.26362 43.9548 7.29261C44.2872 7.32423 44.6196 7.36376 44.9519 7.41384C45.2843 7.46655 45.6142 7.52453 45.9466 7.59569C46.279 7.66421 46.5628 7.75118 46.7955 7.85396L46.0668 11.5674Z" fill="#38AE83"/>
<path d="M56.1696 2.29517C59.197 2.29517 61.5212 2.84335 63.1423 3.9397C64.7634 5.0387 65.5739 6.8361 65.5739 9.3319C65.5739 11.8461 64.7557 13.6646 63.1142 14.7821C61.4727 15.8995 59.1305 16.4582 56.0827 16.4582H54.6483V23.4633H50.0791V2.83807C51.0737 2.63778 52.1297 2.49546 53.242 2.4164C54.3542 2.3347 55.331 2.29517 56.1696 2.29517ZM56.4637 6.31164C56.1313 6.31164 55.804 6.31954 55.4818 6.34063C55.1597 6.36171 54.881 6.38016 54.6457 6.40124V12.4391H56.0802C57.6654 12.4391 58.8544 12.2177 59.6547 11.775C60.455 11.3349 60.8565 10.5073 60.8565 9.30027C60.8565 8.71519 60.7542 8.23554 60.5496 7.85076C60.3451 7.46861 60.051 7.16026 59.6701 6.92834C59.2891 6.69905 58.8263 6.53565 58.2791 6.44605C57.7319 6.35644 57.1259 6.31164 56.4637 6.31164Z" fill="#1E1F21"/>
<path d="M78.1474 11.5674C77.7588 11.4672 77.2986 11.3618 76.7693 11.2485C76.2426 11.1378 75.6749 11.0824 75.0715 11.0824C74.7979 11.0824 74.4706 11.1088 74.0896 11.1589C73.7087 11.2089 73.4197 11.2643 73.2254 11.3249V23.4639H68.8608V8.42586C69.6432 8.14387 70.5637 7.87768 71.6273 7.62468C72.6936 7.37431 73.88 7.2478 75.1866 7.2478C75.4218 7.2478 75.7031 7.26362 76.038 7.29261C76.3704 7.32423 76.7002 7.36376 77.0326 7.41384C77.365 7.46655 77.6949 7.52453 78.0298 7.59569C78.3622 7.66421 78.6435 7.75118 78.8787 7.85396L78.1474 11.5674Z" fill="#1E1F21"/>
<path d="M87.3798 2.99037C87.3798 3.81528 87.1216 4.46361 86.6025 4.93799C86.086 5.40974 85.4749 5.64694 84.7718 5.64694C84.0686 5.64694 83.4601 5.40974 82.9411 4.93799C82.4246 4.46361 82.1638 3.81528 82.1638 2.99037C82.1638 2.16547 82.422 1.51714 82.9411 1.04276C83.4575 0.56837 84.0686 0.331177 84.7692 0.331177C85.4749 0.331177 86.0835 0.56837 86.6 1.04012C87.119 1.51451 87.3798 2.16547 87.3798 2.99037ZM86.9682 23.4628H82.601V7.57874H86.9682V23.4628Z" fill="#1E1F21"/>
<path d="M90.6646 15.0966C90.6646 13.9501 90.8461 12.8696 91.2066 11.8497C91.5671 10.8324 92.0913 9.94685 92.774 9.19311C93.4567 8.43672 94.2877 7.83847 95.2644 7.39571C96.2412 6.95295 97.3534 6.73157 98.6037 6.73157C99.4245 6.73157 100.176 6.808 100.859 6.95822C101.542 7.11108 102.206 7.32719 102.851 7.60918L101.943 11.2013C101.531 11.0406 101.084 10.8983 100.596 10.7797C100.107 10.6584 99.56 10.5978 98.954 10.5978C97.6654 10.5978 96.704 11.0116 96.0673 11.8365C95.4332 12.6614 95.1161 13.7498 95.1161 15.0966C95.1161 16.5276 95.4127 17.6345 96.0085 18.4199C96.6042 19.2053 97.6449 19.598 99.1279 19.598C99.6572 19.598 100.222 19.5479 100.828 19.4451C101.432 19.3476 101.989 19.1842 102.498 18.9602L103.112 22.6472C102.603 22.8686 101.969 23.0584 101.207 23.2218C100.445 23.3825 99.606 23.4642 98.6881 23.4642C97.2818 23.4642 96.0698 23.2481 95.0548 22.8159C94.0397 22.381 93.2036 21.7933 92.549 21.0475C91.8944 20.3017 91.4163 19.4214 91.1146 18.4067C90.818 17.3894 90.6646 16.2852 90.6646 15.0966Z" fill="#1E1F21"/>
<path d="M106.4 15.2152C106.4 13.8078 106.61 12.5744 107.029 11.5176C107.449 10.4581 108.001 9.58052 108.684 8.87421C109.366 8.17054 110.154 7.63554 111.041 7.27448C111.931 6.91078 112.844 6.73157 113.78 6.73157C115.966 6.73157 117.697 7.42206 118.965 8.80305C120.236 10.1814 120.87 12.2107 120.87 14.8857C120.87 15.1467 120.86 15.4339 120.842 15.7475C120.821 16.0585 120.803 16.3353 120.783 16.5777H110.88C110.977 17.5054 111.399 18.2381 112.141 18.781C112.882 19.3239 113.877 19.5953 115.127 19.5953C115.927 19.5953 116.715 19.5189 117.487 19.3687C118.259 19.2158 118.888 19.0313 119.377 18.81L119.962 22.4654C119.727 22.584 119.415 22.7078 119.024 22.8264C118.633 22.9477 118.2 23.0531 117.72 23.1453C117.242 23.2376 116.728 23.314 116.181 23.372C115.633 23.4326 115.086 23.4642 114.539 23.4642C113.153 23.4642 111.946 23.2507 110.921 22.8291C109.896 22.4074 109.047 21.8276 108.372 21.0949C107.697 20.3596 107.201 19.4873 106.876 18.4805C106.559 17.4711 106.4 16.3827 106.4 15.2152ZM116.654 13.4942C116.633 13.1147 116.569 12.7405 116.464 12.3768C116.357 12.0131 116.188 11.6915 115.966 11.4095C115.741 11.1302 115.459 10.8983 115.117 10.7164C114.777 10.5346 114.352 10.445 113.843 10.445C113.355 10.445 112.936 10.5293 112.583 10.7032C112.233 10.8745 111.939 11.0986 111.703 11.3806C111.468 11.6625 111.289 11.9893 111.164 12.3609C111.036 12.7352 110.944 13.1121 110.885 13.4942H116.654V13.4942Z" fill="#1E1F21"/>
<path d="M154.29 15.4808C152.636 16.3663 150.683 16.1766 150.332 15.2621C150.02 14.4398 151.176 13.6149 152.117 12.6635C153.022 11.749 154.428 11.2482 155.461 12.1127C156.328 12.8348 156.4 14.3528 154.29 15.4808ZM148.072 18.0451C147.282 18.8911 146.489 18.8674 144.891 18.9122C144.124 18.9306 137.921 18.8964 137.151 18.87C135.604 18.8094 134.763 18.8226 133.986 17.9687C133.204 17.1122 133.83 16.4454 134.955 16.4348C135.53 16.4296 146.545 16.4928 147.123 16.5034C148.243 16.5245 148.865 17.1991 148.072 18.0451ZM131.708 15.2621C131.357 16.1766 129.401 16.3663 127.745 15.4808C125.638 14.3555 125.709 12.8374 126.576 12.1127C127.606 11.2482 129.013 11.749 129.918 12.6635C130.861 13.6149 132.017 14.4398 131.708 15.2621ZM133.025 3.59479C134.64 2.61967 137.08 2.2507 141.094 2.2507C145.354 2.2507 148.128 2.75144 149.828 3.82408C151.265 4.73069 152.426 6.7969 152.544 8.73134C150.698 9.39021 133.349 9.44292 129.798 8.73134C130.442 6.5518 131.263 4.65689 133.025 3.59479ZM159.217 14.3897C158.89 12.6081 158.207 11.3747 157.688 10.5498C157.399 10.0913 157.044 9.67221 156.673 9.27425C157.844 9.12667 158.121 8.17789 158.187 7.40306C158.253 6.64668 157.151 6.5887 156.349 6.64404C155.689 6.68885 155.16 6.9234 154.692 7.3688C154.254 5.50025 153.395 3.36551 151.158 1.95289C150.151 1.31774 148.931 0.848624 147.417 0.529731C146.709 0.379509 145.942 0.260912 145.096 0.176577C143.909 0.0553451 142.585 0 141.092 0C139.683 0 138.425 0.0579806 137.295 0.176577C136.471 0.266183 135.719 0.38478 135.029 0.540273C133.674 0.843353 132.562 1.2703 131.657 1.83693C129.767 3.02817 128.813 5.20507 127.926 7.15269C127.52 6.84434 127.064 6.68094 126.52 6.64404C125.719 6.5887 124.699 6.64404 124.684 7.40306C124.666 8.20952 124.63 9.00016 125.671 9.22154C125.3 9.6195 124.963 10.0464 124.656 10.4971C123.766 11.8096 123.252 13.2117 123.165 14.5505C123.068 16.0501 123.528 17.3863 124.467 18.4036C124.515 19.8109 124.543 21.603 124.571 22.2856C124.62 23.5085 125.267 23.4768 127.489 23.4479C128.9 23.4268 130.491 23.7694 130.524 22.0326C130.537 21.4844 130.526 21.0944 130.511 20.7518C136.507 21.8376 146.047 22.0063 152.096 20.8361C152.084 21.1576 152.076 21.5266 152.086 22.0326C152.119 23.772 153.707 23.4268 155.124 23.4479C157.341 23.4795 157.99 23.5111 158.039 22.2856C158.067 21.6188 158.092 19.8873 158.141 18.4958C159.154 17.2097 159.46 15.7022 159.217 14.3897Z" fill="#38AE83"/>
</svg>
