<svg width="240" height="399" viewBox="0 0 240 399" fill="none" xmlns="http://www.w3.org/2000/svg">
<g clip-path="url(#clip0_12_239)">
<path d="M111.286 372.202L113.807 362.569C114.969 363.022 125.475 377.442 138.012 376.804C141.97 382.276 148.314 390.628 152.406 393.799C158.744 398.707 152.254 400.734 144.987 397.225C139.609 394.628 122.953 385.056 114.67 380.271C113.3 379.479 112.228 378.261 111.617 376.804C111.006 375.347 110.89 373.731 111.286 372.202Z" fill="#1E1F21"/>
<path d="M113.808 362.569L118.154 346.049L142.201 352.628L134.445 371.697C134.445 371.697 135.879 373.823 138.012 376.804C125.475 377.442 114.969 363.022 113.808 362.569Z" fill="#F8D1BE"/>
<path d="M4.87293 279.322L14.3095 276.067C14.5716 277.28 8.38543 294.004 15.8823 304.044C13.5231 310.364 10.0761 320.255 9.69606 325.425C9.122 333.41 3.82705 329.151 2.72087 321.173C1.90042 315.272 0.623858 296.137 0.0235884 286.609C-0.076224 285.033 0.343716 283.468 1.21931 282.152C2.09491 280.836 3.37807 279.842 4.87293 279.322Z" fill="#1E1F21"/>
<path d="M14.3042 276.067L30.4906 270.5L38.3544 294.103L18.147 298.258C18.147 298.258 17.1693 300.611 15.8691 304.052C8.38804 294.004 14.5716 277.28 14.3042 276.067Z" fill="#F8D1BE"/>
<path d="M165.224 168.126C165.224 170.092 183.835 241.267 180.923 264.549C178.01 287.83 142.201 363.082 142.201 363.082C142.201 363.082 129.619 364.162 113.808 351.71L138.71 262.182L121.11 167.948L148.864 158.574L165.224 168.126Z" fill="#56ADF4"/>
<path d="M136.445 165.906C135.991 168.814 135.834 255.131 124.515 273.339C113.197 291.548 30.4486 299.526 30.4486 299.526C30.4486 299.526 22.438 287.88 23.9295 269.506C23.9295 269.506 78.2815 252.665 90.3472 247.25C90.3472 247.25 82.9473 201.466 85.5634 182.096L136.445 165.906Z" fill="#67B3FA"/>
<path d="M149.638 70.613C166.676 73.0028 201.355 81.5347 206.949 80.6483C213.329 64.8423 217.636 35.4137 217.636 35.4137C221.266 37.9134 229.246 40.2666 229.246 40.2666C229.246 40.2666 232.27 89.0232 220.514 105.292C215.272 112.563 146.856 108.885 146.856 108.885C142.71 77.2674 149.638 70.613 149.638 70.613Z" fill="#F8D1BE"/>
<path d="M148.55 70.2887C148.55 70.2887 183.722 75.1155 189.321 75.8763C189.321 75.8763 191.987 98.491 184.91 112.916L144.353 114.022L148.55 70.2887Z" fill="#38AE83"/>
<path d="M218.414 44.7953C218.773 45.5282 219.196 46.2281 219.678 46.887C220.438 47.9329 221.387 48.8742 222.582 49.3527C223.777 49.8312 225.256 49.7554 226.228 48.9108C227.259 48.0166 227.5 46.5576 227.893 45.2502C228.821 42.1727 231.882 41.6995 234.378 40.3163C236.693 39.0298 238.766 37.1472 239.783 34.7051C240.076 34.0457 240.235 33.3346 240.25 32.6133C240.201 31.8202 240.028 31.0395 239.738 30.2993C239.117 28.4429 238.428 26.5237 237.028 25.1509C234.294 22.4761 230.897 24.0789 227.958 25.2869C229.306 24.5809 230.894 19.2731 228.981 18.8887C228.709 18.8525 228.433 18.8828 228.176 18.9772C227.919 19.0715 227.688 19.2269 227.505 19.4299C227.142 19.8384 226.841 20.2973 226.611 20.7922C225.922 22.0787 225.112 23.3389 223.99 24.2698C217.751 29.4103 214.645 37.1708 218.414 44.7953Z" fill="#F8D1BE"/>
<path d="M75.6655 105.872C88.5097 75.3874 100.426 71.4836 100.426 71.4836C101.999 70.2992 107.404 68.4636 126.017 68.6728C135.236 68.7695 141.506 69.2873 145.761 69.9174C150.015 70.5475 151.858 70.5815 152.988 71.0993L172.06 187.051C172.06 187.051 139.451 200.418 97.6081 190.351C92.2223 189.06 86.9216 187.439 81.7363 185.496L91.2594 125.925C91.2594 125.925 80.5568 149.42 76.0718 148.843C55.8146 146.228 75.6655 105.872 75.6655 105.872Z" fill="#38AE83"/>
<path d="M119.152 68.6493C119.152 68.6493 126.801 76.1143 137.04 69.0467L136.306 62.5544L135.661 56.5406L120.14 57.8636L119.676 62.9178L119.152 68.6493Z" fill="#F8D1BE"/>
<path d="M119.685 62.9074C121.871 63.8591 124.489 64.4239 127.624 64.4239C131.126 64.4239 133.986 63.7153 136.314 62.5544L135.669 56.5406L120.149 57.8636L119.685 62.9074Z" fill="#F68A73"/>
<path d="M109.307 22.1832C110.68 20.3189 112.62 18.9384 114.667 17.8533C115.823 17.2388 117.063 16.7002 118.371 16.6557C119.106 16.6593 119.839 16.717 120.565 16.8283C119.307 15.0947 117.703 13.6906 116.007 12.2186C115.745 11.9911 116.025 11.5623 116.337 11.6512C118.909 12.3754 120.793 14.496 121.842 16.9094C121.886 16.9094 121.936 16.9094 121.983 16.9094C122.012 14.2502 123.019 10.8955 125.601 10.4772C125.787 10.4484 126.007 10.6419 125.863 10.8328C125.058 11.9911 124.075 12.8147 123.585 14.2031C123.324 15.0139 123.162 15.8532 123.103 16.7028C123.31 16.6232 123.506 16.5178 123.687 16.389C126.474 14.3992 131 13.9024 134.434 14.2005C135.703 14.3129 137.103 14.6372 137.808 15.6987C137.928 15.9368 138.091 16.1512 138.288 16.3315C138.54 16.4747 138.825 16.5503 139.116 16.5511C141.415 16.7891 143.504 18.12 144.862 19.966C146.254 21.8433 146.136 23.7364 146.773 25.8308C147.242 27.3787 148.322 28.6808 148.385 30.4823C148.456 32.4486 147.121 33.7743 146.351 35.4843C145.58 37.1943 146.516 38.8233 145.868 40.5673C145.344 41.9505 143.716 42.8865 142.529 43.6134C140.846 44.641 139.084 45.7052 137.119 45.8673C135.769 45.9823 134.419 45.6712 133.116 45.3025C130.605 44.5595 128.136 43.6867 125.716 42.6878C124.08 42.0367 122.413 41.3622 120.654 41.2654C118.151 41.1294 115.585 42.1806 113.181 41.4694C111.635 41.0118 110.363 39.8535 109.511 38.4807C108.659 37.108 108.219 35.5313 107.923 33.9494C107.223 30.1398 106.869 25.4752 109.307 22.1832Z" fill="#1E1F21"/>
<path d="M143.504 39.5711C143.504 39.5711 146.125 36.857 147.858 38.5932C149.59 40.3294 148.183 49.4547 142.196 49.2377L143.504 39.5711Z" fill="#F8D1BE"/>
<path d="M112.494 39.5711C112.494 39.5711 109.873 36.857 108.138 38.5932C106.402 40.3294 107.813 49.4547 113.799 49.2377L112.494 39.5711Z" fill="#F8D1BE"/>
<path d="M112.366 45.4359C113.677 52.3858 117.375 61.5033 128.046 61.5033C138.718 61.5033 142.414 52.3858 143.719 45.4359C144.576 40.8915 143.719 33.4082 143.006 28.7932C143.006 28.7749 143.006 28.7514 142.988 28.7279C142.201 25.2268 139.643 24.3718 137.483 24.3221C135.832 24.2829 134.243 24.8633 132.655 25.3235C129.907 26.1341 126.974 26.5864 124.196 25.8988C122.809 25.5588 121.472 24.9365 120.046 24.8319C118.211 24.6934 115.483 24.7352 114.308 26.1393C113.181 27.4807 113.061 29.5646 112.584 32.4904V32.5087C112.067 36.8099 111.718 41.9688 112.366 45.4359Z" fill="#F8D1BE"/>
<path d="M132.303 34.2161C132.827 33.2121 134.311 33.1702 135.307 33.1519C136.535 33.0889 137.755 33.3852 138.817 34.0043C139.446 34.3861 139.063 35.5731 138.34 35.4084C137.292 35.1862 136.28 34.9116 135.213 34.9874C134.314 35.0528 133.504 35.5731 132.626 35.2489C132.531 35.2077 132.447 35.1468 132.379 35.0704C132.31 34.994 132.259 34.9037 132.228 34.8058C132.198 34.7079 132.189 34.6046 132.202 34.5029C132.215 34.4011 132.249 34.3033 132.303 34.2161Z" fill="#1C2139"/>
<path d="M125.297 34.2972C124.793 33.3193 123.318 33.2278 122.324 33.1598C121.111 33.0468 119.89 33.2789 118.804 33.8292C118.167 34.1691 118.523 35.3065 119.249 35.1888C120.298 35.0215 121.312 34.7992 122.376 34.9273C123.27 35.0267 124.07 35.5549 124.951 35.2829C125.046 35.2504 125.133 35.1967 125.204 35.1259C125.276 35.055 125.33 34.9689 125.364 34.8739C125.397 34.779 125.408 34.6778 125.397 34.5779C125.385 34.478 125.351 34.382 125.297 34.2972Z" fill="#1C2139"/>
<path d="M129.324 45.4045C129.328 45.4045 129.331 45.4058 129.333 45.4081C129.335 45.4103 129.337 45.4134 129.337 45.4167C129.337 45.4199 129.335 45.423 129.333 45.4253C129.331 45.4276 129.328 45.4289 129.324 45.4289C129.321 45.4289 129.318 45.4276 129.316 45.4253C129.313 45.423 129.312 45.4199 129.312 45.4167C129.312 45.4134 129.313 45.4103 129.316 45.4081C129.318 45.4058 129.321 45.4045 129.324 45.4045Z" fill="#594E8A"/>
<path d="M143.921 44.845C144.256 44.1782 144.62 43.5376 145.016 42.8892C145.244 42.5152 145.52 41.8563 146.012 41.8433C146.03 41.8432 146.046 41.8488 146.06 41.8592C146.074 41.8696 146.084 41.8842 146.088 41.9008C146.261 42.3741 145.734 42.9205 145.506 43.3127C145.446 43.4121 145.391 43.5167 145.333 43.6187L145.483 43.7076C145.609 43.7623 145.722 43.8444 145.813 43.9479C145.903 44.0515 145.97 44.174 146.007 44.3063C146.007 44.3653 145.984 44.4218 145.942 44.4635C145.9 44.5052 145.843 44.5286 145.784 44.5286C145.565 44.474 145.362 44.3703 145.189 44.2253C145.141 44.199 145.091 44.1763 145.04 44.1573C144.854 44.4972 144.673 44.8397 144.497 45.1823C144.322 45.5248 143.732 45.2346 143.921 44.845Z" fill="#F68A73"/>
<path d="M110.41 41.7779C110.9 42.218 111.307 42.7423 111.611 43.3258C111.86 43.7625 112.279 44.3926 112.135 44.9129C112.127 44.9419 112.112 44.9687 112.092 44.9912C112.072 45.0136 112.047 45.0312 112.018 45.0425C111.99 45.0539 111.96 45.0587 111.93 45.0566C111.9 45.0545 111.87 45.0456 111.844 45.0306C111.522 44.824 111.357 44.4214 111.186 44.0501C111.098 44.0557 111.01 44.0697 110.924 44.0919C110.794 44.1345 110.674 44.202 110.57 44.2906C110.514 44.3392 110.442 44.3648 110.367 44.3622C110.293 44.3596 110.223 44.329 110.17 44.2766C110.118 44.2242 110.087 44.1539 110.084 44.0798C110.082 44.0057 110.107 43.9335 110.156 43.8775C110.351 43.6689 110.616 43.5402 110.901 43.5167C110.594 43.0486 110.23 42.6329 109.915 42.1753C109.671 41.8354 110.143 41.574 110.41 41.7779Z" fill="#F68A73"/>
<path d="M134.788 39.6783C134.827 39.2782 134.935 38.8389 135.331 38.6507C135.519 38.5718 135.73 38.5648 135.923 38.6308C136.116 38.6968 136.279 38.8314 136.379 39.0089C136.474 39.1754 136.536 39.3591 136.56 39.5493C136.584 39.7396 136.569 39.9328 136.518 40.1175C136.482 40.2672 136.425 40.4108 136.348 40.5437C136.293 40.7466 136.179 40.9287 136.02 41.0667C135.942 41.1263 135.851 41.1685 135.755 41.1902C135.659 41.212 135.559 41.2128 135.463 41.1928C135.366 41.1727 135.275 41.1321 135.196 41.0738C135.117 41.0155 135.051 40.9408 135.003 40.8549C134.814 40.4934 134.739 40.0831 134.788 39.6783Z" fill="#1C2139"/>
<path d="M121.947 39.6783C121.986 39.2782 122.093 38.8389 122.489 38.6507C122.678 38.5718 122.889 38.5648 123.082 38.6308C123.275 38.6968 123.437 38.8314 123.538 39.0089C123.73 39.3455 123.779 39.7442 123.677 40.1175C123.64 40.2668 123.583 40.4103 123.506 40.5437C123.452 40.7466 123.338 40.9287 123.179 41.0667C123.1 41.1263 123.01 41.1685 122.914 41.1902C122.818 41.212 122.718 41.2128 122.622 41.1928C122.525 41.1727 122.434 41.1321 122.355 41.0738C122.275 41.0155 122.209 40.9408 122.162 40.8549C121.972 40.4934 121.897 40.0831 121.947 39.6783Z" fill="#1C2139"/>
<path d="M81.7364 185.503C86.9219 187.444 92.2226 189.063 97.6082 190.351C96.5229 185.585 95.6848 180.767 95.097 175.915C92.1664 151.823 93 114.977 93 114.977L81.7364 185.503Z" fill="#339972"/>
<path d="M122.921 114.985C122.921 114.985 93.7259 122.044 76.7873 130.534C74.0035 131.928 70.2341 134.639 69.2092 137.576C67.9719 141.15 66.719 145.715 74.4517 149.342C85.9695 154.726 122.827 126.855 122.827 126.855L122.921 114.985Z" fill="#F8D1BE"/>
<path d="M119.208 142.907L160.495 143.867C161.263 143.885 162.015 143.65 162.636 143.2C163.258 142.749 163.713 142.107 163.932 141.372L180.734 85.0043C180.885 84.4908 180.915 83.9495 180.823 83.4223C180.731 82.8951 180.518 82.3961 180.202 81.9639C179.885 81.5318 179.473 81.178 178.998 80.9299C178.523 80.6818 177.996 80.5461 177.46 80.5332L136.17 79.5736C135.402 79.5557 134.65 79.7903 134.03 80.2411C133.409 80.6919 132.954 81.3339 132.736 82.068L115.934 138.423C115.78 138.937 115.748 139.48 115.839 140.009C115.93 140.538 116.143 141.039 116.459 141.472C116.776 141.906 117.189 142.261 117.665 142.51C118.142 142.759 118.67 142.895 119.208 142.907Z" fill="#DADADA"/>
<path d="M154.917 99.5186C153.606 98.6662 151.855 98.2322 150.461 98.9486C148.476 99.9684 148.125 102.669 146.592 104.283C145.858 105.054 144.872 105.556 144.193 106.374C143.632 107.103 143.271 107.964 143.145 108.874C142.841 110.668 143.174 112.634 144.353 114.022C145.533 115.411 147.648 116.046 149.286 115.241C150.995 114.399 151.884 112.265 153.708 111.711C156.537 110.853 159.213 111.233 159.058 107.428C158.948 104.636 157.276 101.051 154.917 99.5186Z" fill="white"/>
<path d="M117.433 119.809C118.499 116.535 120.665 112.03 124.573 111.742C133.399 111.089 134.117 122.01 129.454 127.169C127.378 129.462 122.25 131.745 119.16 130.417C117.938 129.894 117.134 128.662 116.788 127.381C116.122 124.884 116.646 122.209 117.433 119.809Z" fill="#F8D1BE"/>
<path d="M128.156 44.6227C128.47 44.5561 128.794 44.5481 129.111 44.5991C129.252 44.6087 129.394 44.5999 129.533 44.573C129.643 44.5515 129.751 44.52 129.855 44.4789C129.816 44.3115 129.753 44.1442 129.7 43.9847C129.609 43.7232 129.527 43.4434 129.459 43.1663C129.326 42.6433 129.215 42.0942 129.134 41.553C129.053 41.0118 128.987 40.4522 128.953 39.8979C128.919 39.3436 128.854 38.7579 129.079 38.2454C129.113 38.1885 129.161 38.1414 129.219 38.1087C129.277 38.0759 129.342 38.0587 129.408 38.0587C129.474 38.0587 129.54 38.0759 129.597 38.1087C129.655 38.1414 129.703 38.1885 129.737 38.2454C129.876 38.6607 129.945 39.0965 129.939 39.5344C129.97 39.9345 130.015 40.3319 130.078 40.7268C130.219 41.5886 130.421 42.4395 130.681 43.2735C130.799 43.6631 131.014 44.0919 131.035 44.5024C131.058 44.9809 130.676 45.2685 130.248 45.3992C129.585 45.6084 128.56 45.5378 128.031 45.0646C127.997 45.0317 127.973 44.9903 127.961 44.9449C127.949 44.8994 127.949 44.8516 127.962 44.8063C127.975 44.7611 128 44.7202 128.034 44.6878C128.068 44.6555 128.11 44.633 128.156 44.6227Z" fill="#F68A73"/>
<path d="M124.636 48.6337C124.944 48.6529 125.246 48.7209 125.532 48.835C125.81 48.9161 126.08 48.9893 126.355 49.0965C126.949 49.3082 127.565 49.4554 128.19 49.5357C128.806 49.6132 129.427 49.6334 130.046 49.5959C130.328 49.5842 130.608 49.5448 130.882 49.4782C131.137 49.3823 131.4 49.3114 131.669 49.2664C131.717 49.2669 131.764 49.2783 131.807 49.2997C131.85 49.3211 131.888 49.352 131.917 49.39C131.946 49.4281 131.967 49.4723 131.976 49.5192C131.986 49.5662 131.985 49.6148 131.973 49.6612C131.763 50.3018 131.006 50.4456 130.4 50.5293C129.683 50.6446 128.955 50.6701 128.232 50.6051C127.525 50.5381 126.827 50.3952 126.151 50.1789C125.793 50.0671 125.451 49.907 125.137 49.7031C124.833 49.5443 124.573 49.3135 124.379 49.0311C124.353 48.989 124.339 48.9404 124.339 48.8908C124.34 48.8413 124.354 48.7928 124.381 48.7512C124.408 48.7095 124.446 48.6764 124.491 48.6556C124.537 48.6348 124.587 48.6272 124.636 48.6337Z" fill="#F68A73"/>
<path d="M227.077 36.3001C226.49 34.7757 226.378 33.1127 226.307 31.4812C226.247 30.0561 226.226 28.5658 226.831 27.2767C224.144 29.5463 223.243 33.3481 223.447 36.8675C223.518 38.1042 223.709 39.3697 224.343 40.4418C225.227 41.9609 228.105 43.4984 229.374 41.4301C230.475 39.6234 227.699 37.9133 227.077 36.3001Z" fill="#F68A73"/>
<path fill-rule="evenodd" clip-rule="evenodd" d="M19.4288 47.3263L25.8745 49.6377L27.1852 56.4543L20.7342 54.1429L19.4288 47.3263Z" fill="#38AE83"/>
<path fill-rule="evenodd" clip-rule="evenodd" d="M193.219 7.69772L190.335 0.677211L191.303 0L196.807 5.22943L202.721 2.50751L203.431 3.47757L199.025 8.47952L201.591 15.0163L200.621 15.6883L195.455 10.9583L189.255 13.335L188.61 12.3231L193.219 7.69772Z" fill="#F8DD53"/>
<path fill-rule="evenodd" clip-rule="evenodd" d="M224.776 246.683L224.727 253.627L218.8 257.175L218.85 250.228L224.776 246.683Z" fill="#F8DD53"/>
<path fill-rule="evenodd" clip-rule="evenodd" d="M202.289 147.731L198.22 142.823L198.933 142.094L203.004 146.994L202.289 147.731Z" fill="#6ECECF"/>
<path fill-rule="evenodd" clip-rule="evenodd" d="M71.6838 335.083L68.8004 328.06L69.7755 327.386L75.2802 332.615L81.2095 329.906L81.9172 330.874L77.5109 335.876L80.0771 342.412L79.1072 343.087L73.9197 338.344L67.7073 340.713L67.0625 339.701L71.6838 335.083Z" fill="#38AE83"/>
<path d="M28.6426 180.449C28.6379 181.208 28.408 181.948 27.982 182.577C27.5559 183.206 26.9528 183.694 26.2486 183.981C25.5444 184.268 24.7708 184.341 24.0254 184.19C23.2799 184.039 22.596 183.671 22.0599 183.132C21.5239 182.594 21.1597 181.909 21.0133 181.165C20.8669 180.42 20.9449 179.649 21.2375 178.949C21.53 178.248 22.0239 177.65 22.657 177.229C23.2901 176.808 24.0338 176.584 24.7945 176.585C25.3016 176.586 25.8033 176.688 26.2711 176.883C26.7389 177.078 27.1636 177.363 27.5209 177.722C27.8783 178.081 28.1612 178.506 28.3537 178.974C28.5461 179.442 28.6443 179.943 28.6426 180.449V180.449Z" stroke="#67B3FA" stroke-width="1.55"/>
<path fill-rule="evenodd" clip-rule="evenodd" d="M31.8327 183.78L24.0633 179.257L24.64 178.386L32.4094 182.91L31.8327 183.78Z" fill="#67B3FA"/>
</g>
<defs>
<clipPath id="clip0_12_239">
<rect width="240" height="399" fill="white"/>
</clipPath>
</defs>
</svg>
