<svg width="416" height="278" viewBox="0 0 416 278" fill="none" xmlns="http://www.w3.org/2000/svg">
<path d="M378.72 203.16C378.72 203.16 325.995 211.773 325.363 211.398C324.731 211.023 317.902 182.024 317.902 182.024C317.902 182.024 361.502 174.308 362.208 174.308C362.914 174.308 372.397 181.775 372.523 182.274C372.649 182.773 378.72 203.16 378.72 203.16Z" fill="#C7C7C7"/>
<path d="M217.89 210.529C216.626 210.652 152.777 209.308 152.777 209.308L157.583 194.846C157.583 194.846 166.433 181.671 171.11 181.91C175.788 182.149 203.612 177.71 208.413 180.988C213.214 184.266 217.514 181.652 219.789 189.488C222.063 197.324 223.84 198.207 222.066 202.933C220.291 207.66 217.89 210.529 217.89 210.529Z" fill="#C7C7C7"/>
<path d="M352.093 229.722C340.089 229.722 330.359 220.14 330.359 208.32C330.359 196.501 340.089 186.918 352.093 186.918C364.097 186.918 373.827 196.501 373.827 208.32C373.827 220.14 364.094 229.722 352.093 229.722Z" fill="#1E1F21"/>
<path d="M352.096 223.211C343.744 223.211 336.975 216.544 336.975 208.322C336.975 200.1 343.744 193.431 352.096 193.431C360.447 193.431 367.217 200.098 367.217 208.322C367.217 216.546 360.447 223.211 352.096 223.211Z" fill="#C7C7C7"/>
<path d="M352.094 218.28C346.51 218.28 341.982 213.821 341.982 208.321C341.982 202.82 346.51 198.363 352.094 198.363C357.679 198.363 362.206 202.821 362.206 208.321C362.206 213.82 357.679 218.28 352.094 218.28Z" fill="#DEDEDE"/>
<path d="M184.769 229.722C172.765 229.722 163.035 220.14 163.035 208.32C163.035 196.501 172.765 186.918 184.769 186.918C196.773 186.918 206.503 196.504 206.503 208.32C206.503 220.137 196.771 229.722 184.769 229.722Z" fill="#1E1F21"/>
<path d="M184.771 223.211C176.421 223.211 169.65 216.544 169.65 208.322C169.65 200.1 176.42 193.431 184.771 193.431C193.123 193.431 199.892 200.098 199.892 208.322C199.892 216.546 193.122 223.211 184.771 223.211Z" fill="#C7C7C7"/>
<path d="M194.884 208.321C194.884 213.821 190.355 218.28 184.77 218.28C179.186 218.28 174.66 213.821 174.66 208.321C174.66 202.82 179.186 198.363 184.77 198.363C190.355 198.363 194.884 202.821 194.884 208.321Z" fill="#DEDEDE"/>
<path d="M396.03 169.815H382.638C382.375 169.812 382.116 169.875 381.883 169.997C381.65 170.119 381.452 170.297 381.305 170.514C381.158 170.732 381.068 170.982 381.043 171.242C381.017 171.503 381.057 171.766 381.159 172.007L382.664 175.535C383.375 177.189 384.559 178.597 386.069 179.586C387.578 180.575 389.347 181.1 391.154 181.095H396.03C396.486 181.098 396.924 180.92 397.248 180.6C397.572 180.281 397.755 179.847 397.757 179.394V171.516C397.756 171.292 397.711 171.069 397.623 170.862C397.536 170.655 397.408 170.467 397.248 170.309C397.088 170.151 396.897 170.026 396.688 169.941C396.479 169.857 396.255 169.813 396.03 169.815Z" fill="white"/>
<path d="M134.428 194.099V209.602C134.432 210.298 134.573 210.986 134.843 211.627C135.114 212.269 135.509 212.851 136.006 213.34C136.503 213.829 137.092 214.216 137.74 214.479C138.387 214.742 139.08 214.875 139.779 214.87H156.041C156.631 214.871 157.214 214.749 157.752 214.511C158.291 214.272 158.773 213.924 159.167 213.488C159.561 213.052 159.858 212.538 160.038 211.979C160.219 211.421 160.279 210.831 160.216 210.248C160.118 209.369 160.07 208.485 160.071 207.601C160.071 194.078 171.352 183.145 185.149 183.426C198.463 183.695 209.231 194.564 209.192 207.673C209.188 208.727 209.114 209.781 208.973 210.826C208.909 211.335 208.955 211.852 209.108 212.342C209.261 212.832 209.518 213.283 209.861 213.666C210.204 214.049 210.626 214.355 211.098 214.562C211.569 214.77 212.08 214.874 212.596 214.869H325.663C326.019 214.872 326.372 214.797 326.696 214.649C327.02 214.501 327.307 214.283 327.537 214.012C327.766 213.74 327.932 213.422 328.024 213.079C328.115 212.736 328.129 212.377 328.064 212.028C327.79 210.573 327.651 209.095 327.65 207.613C327.65 194.342 338.7 183.435 352.182 183.419C364.861 183.403 375.495 192.607 376.841 204.714C376.867 204.95 376.942 205.179 377.061 205.385C377.179 205.592 377.339 205.772 377.53 205.915C377.721 206.058 377.94 206.16 378.172 206.216C378.404 206.272 378.646 206.28 378.881 206.239L391.167 203.044C392.761 202.638 394.174 201.716 395.184 200.425C396.195 199.133 396.746 197.545 396.752 195.908V166.312C396.744 164.61 396.135 162.966 395.03 161.667C393.925 160.368 392.395 159.498 390.71 159.209L387.304 158.611C387.304 158.611 368.591 152.305 357.81 144.007C347.029 135.71 334.547 129.894 313.304 129.734C292.062 129.574 266.776 128.905 256.492 131.227C246.208 133.549 204.223 153.798 204.223 153.798C204.223 153.798 179.609 166.246 160.216 170.063C142.648 173.523 136.706 176.028 134.87 187.953C134.564 189.987 134.417 192.042 134.428 194.099ZM281.627 139.985C281.627 139.985 282.097 136.816 285.182 136.778C287.056 136.754 302.749 135.655 318.028 137.479C330.381 138.959 341.89 144.482 350.746 153.178L355.359 157.721C355.359 157.721 358.472 162.577 351.631 162.641L286.639 163.246C286.639 163.246 282.661 163.142 282.126 159.456C281.591 155.771 281.63 139.984 281.63 139.984L281.627 139.985ZM220.093 156.653C228.052 151.553 248.298 140.518 255.786 139.451C260.555 138.771 266.791 138.478 270.698 138.351C271.183 138.339 271.666 138.425 272.118 138.603C272.569 138.781 272.98 139.047 273.326 139.387C273.672 139.726 273.945 140.131 274.131 140.578C274.316 141.024 274.409 141.503 274.404 141.987V158.534C274.414 159.559 274.024 160.548 273.317 161.294C272.609 162.039 271.64 162.484 270.611 162.534L219.526 164.554C218.946 164.584 218.367 164.468 217.844 164.215C217.321 163.963 216.871 163.583 216.535 163.111C215.624 161.774 215.518 159.586 220.093 156.653Z" fill="#67B3FA"/>
<path d="M156.175 175.292C148.8 176.405 140.308 183.278 140.308 183.278C138.277 185.427 139.955 188.914 142.928 188.731L157.306 187.836C158.758 187.751 160.149 187.223 161.288 186.323C162.428 185.423 163.261 184.196 163.674 182.808C165.071 178.061 163.882 174.13 156.175 175.292Z" fill="white"/>
<path d="M396.667 197.011C396.878 197.006 397.086 197.053 397.275 197.147C397.463 197.241 397.626 197.38 397.748 197.551C397.87 197.722 397.948 197.921 397.975 198.129C398.002 198.337 397.977 198.548 397.903 198.745C397.414 199.952 396.647 201.029 395.663 201.888C394.68 202.747 393.508 203.364 392.241 203.691L378.476 207.272C378.212 207.317 377.941 207.309 377.681 207.246C377.42 207.184 377.175 207.069 376.961 206.909C376.747 206.749 376.568 206.548 376.435 206.316C376.302 206.085 376.218 205.829 376.189 205.564C375.938 203.311 375.392 201.1 374.564 198.988C374.501 198.825 374.479 198.648 374.5 198.474C374.52 198.3 374.582 198.133 374.681 197.988C374.781 197.843 374.913 197.724 375.069 197.641C375.224 197.558 375.397 197.514 375.573 197.511L396.667 197.011Z" fill="#469FE8"/>
<path d="M159.957 202.589C160.201 202.582 160.444 202.628 160.669 202.724C160.893 202.819 161.094 202.962 161.258 203.143C161.421 203.323 161.543 203.537 161.616 203.769C161.688 204.001 161.709 204.246 161.677 204.487C161.398 206.616 161.377 208.769 161.614 210.902C161.686 211.55 161.619 212.206 161.419 212.826C161.218 213.446 160.888 214.018 160.45 214.502C160.012 214.987 159.476 215.374 158.877 215.638C158.279 215.902 157.631 216.037 156.976 216.034H138.941C137.374 216.043 135.868 215.432 134.754 214.336C133.64 213.239 133.009 211.748 133 210.189V205.592C133 204.961 133.25 204.354 133.695 203.904C134.14 203.454 134.746 203.196 135.38 203.187L159.957 202.589Z" fill="#469FE8"/>
<path d="M203.785 160.872L203.921 161.309C203.99 161.53 210.814 183.716 211.144 204.962L211.154 205.524L277.567 204.25L278.154 204.234L278.703 204.223L326.369 203.019L326.413 202.518C326.413 202.461 326.969 196.644 331.448 191.132C337.369 183.844 347.491 180.387 360.71 181.116L361.194 181.144L365.74 160.146L365.545 159.939C364.833 159.168 347.929 141.026 334.95 137.044C322.057 133.091 280.152 133.986 278.143 134.031C277.39 133.995 259.872 133.229 244.179 140.389C228.33 147.617 204.431 160.524 204.193 160.654L203.785 160.872ZM278.707 203.104V135.139C283.825 135.043 322.656 134.443 334.612 138.112C346.567 141.781 362.552 158.411 364.509 160.481L360.288 179.976C343.386 179.161 334.775 185.224 330.521 190.484C326.573 195.362 325.568 200.348 325.34 201.923L278.707 203.104ZM205.141 161.419C208.351 159.692 229.974 148.1 244.658 141.406C258.812 134.951 274.495 135.043 277.567 135.131V203.129L212.272 204.383C211.865 184.797 206.093 164.62 205.141 161.419Z" fill="#469FE8"/>
<path d="M208.133 209.214C208.138 208.018 208.052 206.824 207.876 205.641C207.826 205.309 207.848 204.971 207.939 204.649C208.031 204.327 208.191 204.028 208.408 203.772C208.625 203.515 208.894 203.308 209.198 203.164C209.501 203.019 209.833 202.941 210.169 202.934L327.77 200.106C328.066 200.098 328.36 200.16 328.627 200.286C328.895 200.412 329.128 200.599 329.309 200.832C329.49 201.065 329.614 201.337 329.669 201.627C329.725 201.916 329.711 202.214 329.628 202.497C328.592 206.117 328.415 209.926 329.109 213.626C329.176 213.982 329.163 214.348 329.071 214.699C328.98 215.05 328.811 215.376 328.578 215.654C328.345 215.933 328.053 216.157 327.723 216.31C327.393 216.463 327.033 216.542 326.669 216.541H211.594C211.066 216.542 210.544 216.431 210.064 216.215C209.583 215.998 209.154 215.682 208.807 215.287C208.459 214.892 208.201 214.427 208.049 213.924C207.897 213.421 207.855 212.892 207.926 212.372C208.062 211.324 208.132 210.27 208.133 209.214Z" fill="#469FE8"/>
<path d="M258.274 170.341H272.897C272.982 170.342 273.067 170.326 273.146 170.295C273.226 170.263 273.298 170.216 273.359 170.156C273.42 170.097 273.468 170.025 273.501 169.947C273.534 169.869 273.551 169.784 273.551 169.699V168.455C273.551 168.37 273.534 168.286 273.501 168.207C273.468 168.129 273.42 168.057 273.359 167.998C273.298 167.938 273.226 167.891 273.146 167.859C273.067 167.828 272.982 167.812 272.897 167.813H258.274C258.189 167.812 258.104 167.828 258.025 167.86C257.945 167.892 257.873 167.939 257.813 167.998C257.752 168.058 257.704 168.129 257.671 168.207C257.638 168.286 257.621 168.37 257.621 168.455V169.699C257.621 169.784 257.638 169.868 257.671 169.947C257.704 170.025 257.752 170.096 257.813 170.156C257.873 170.215 257.945 170.263 258.025 170.294C258.104 170.326 258.189 170.342 258.274 170.341Z" fill="#469FE8"/>
<path d="M339.164 169.08H353.789C353.874 169.082 353.959 169.066 354.039 169.034C354.118 169.003 354.19 168.956 354.251 168.896C354.312 168.836 354.36 168.765 354.393 168.687C354.426 168.608 354.443 168.524 354.443 168.439V167.194C354.443 167.109 354.426 167.025 354.393 166.947C354.36 166.868 354.312 166.797 354.251 166.737C354.19 166.678 354.118 166.631 354.039 166.599C353.959 166.567 353.874 166.552 353.789 166.553H339.166C339.081 166.552 338.996 166.567 338.916 166.599C338.837 166.631 338.765 166.678 338.704 166.737C338.643 166.797 338.595 166.868 338.562 166.947C338.529 167.025 338.512 167.109 338.512 167.194V168.439C338.512 168.524 338.529 168.608 338.562 168.686C338.594 168.765 338.643 168.836 338.703 168.895C338.764 168.955 338.836 169.002 338.915 169.034C338.994 169.066 339.079 169.081 339.164 169.08Z" fill="#469FE8"/>
<path d="M263.862 48.6951C263.862 48.6951 260.768 48.8715 258.426 46.0835C258.426 46.0835 247.881 64.2278 246.622 68.326C245.157 73.0974 252.388 73.4268 255.194 70.0427C258 66.6587 263.862 48.6951 263.862 48.6951Z" fill="#F8D1BE"/>
<path d="M263.215 50.0052C263.56 49.6061 263.853 49.1655 264.089 48.6936C265.37 46.4011 266.564 44.148 267.257 41.5831C267.897 39.2134 268.384 36.8014 268.801 34.3836C268.858 34.0513 268.718 33.7132 268.552 33.4203C268.399 33.1969 268.2 33.0083 267.969 32.8665C267.895 32.8135 267.817 32.7648 267.736 32.7208C267.64 32.6625 267.531 32.6013 267.426 32.5488C267.148 32.4032 266.863 32.2723 266.572 32.1568C266.439 32.0999 266.311 32.0518 266.184 32.0037C265.97 31.928 265.747 31.858 265.535 31.7982C265.433 31.7683 265.328 31.7454 265.223 31.7297C265.118 31.7043 265.01 31.6892 264.901 31.6846C264.828 31.686 264.754 31.6929 264.681 31.705C264.031 31.8274 263.639 32.473 263.352 33.0662C262.387 35.0532 261.597 37.1208 260.992 39.2454C260.746 38.4118 260.516 37.5782 260.284 36.746C260.186 36.389 260.07 36.0057 259.804 35.7361C259.537 35.4665 259.075 35.3688 258.784 35.6195C258.529 35.8454 258.742 37.3567 258.764 37.6933C258.803 38.2981 258.972 38.8038 258.925 39.4232C258.821 40.8107 258.366 42.1398 258.085 43.4951C257.73 45.2148 257.988 47.8673 259.597 48.5231C261.289 49.211 261.411 51.6025 263.032 50.1816C263.094 50.1204 263.153 50.0635 263.215 50.0052Z" fill="#F8D1BE"/>
<path d="M261.643 38.8986C261.902 38.8215 262.172 38.7895 262.441 38.8038C262.441 38.7907 262.431 38.782 262.441 38.7674C262.752 37.4907 263.248 36.2709 263.686 35.0409C264.071 33.9318 264.414 32.7572 264.902 31.6772C265.011 31.6818 265.118 31.697 265.224 31.7224C265.01 32.7426 264.642 33.7628 264.296 34.7407C263.832 36.1135 263.398 37.5257 262.733 38.8213C263.179 38.8839 263.62 38.9814 264.052 39.1128C264.174 39.1463 264.302 39.1857 264.428 39.2221C264.707 37.8682 265.182 36.574 265.504 35.2303C265.76 34.1766 265.885 33.0516 266.185 32.0052C266.312 32.0532 266.438 32.1013 266.572 32.1582C266.588 33.3474 266.281 34.6037 266.013 35.7375C265.706 36.9821 265.341 38.1903 264.703 39.3022C265.183 39.4481 265.65 39.6323 266.101 39.8531C266.284 38.4978 266.794 37.1497 267.03 35.8016C267.213 34.7363 267.233 33.6156 267.431 32.5502C267.536 32.6027 267.646 32.6639 267.742 32.7222C267.822 32.7659 267.899 32.8146 267.973 32.8679C267.995 34.0134 267.739 35.223 267.536 36.3C267.305 37.5199 267.063 38.935 266.462 40.0499C266.613 40.1358 266.758 40.2302 266.899 40.3326C266.923 40.3515 266.94 40.3782 266.946 40.4083C266.953 40.4383 266.949 40.4697 266.934 40.4969C266.92 40.5242 266.897 40.5456 266.868 40.5573C266.84 40.5691 266.808 40.5706 266.779 40.5614C265.116 40.0557 263.566 39.104 261.756 39.2498C261.568 39.2556 261.429 38.9641 261.643 38.8986Z" fill="#F68A73"/>
<path d="M261.157 46.0617C261.624 45.3169 261.955 44.6218 261.972 43.7299C261.99 42.8379 261.651 42.0728 261.501 41.2217C261.492 41.1765 261.557 41.1416 261.587 41.1809C262.606 42.545 262.766 45.0794 261.402 46.2817C261.256 46.4114 261.059 46.219 261.157 46.0617Z" fill="#F68A73"/>
<path d="M215.355 75.7148C215.355 75.7148 217.999 71.6065 229.607 68.9002C240.617 66.3352 248.3 63.5516 248.3 63.5516L250.931 58.3225C250.931 58.3225 254.606 62.3551 259.765 62.6946C259.765 62.6946 257.202 69.5152 254.24 72.6048C251.279 75.6944 215.549 89.9476 215.549 89.9476C215.549 89.9476 213.854 80.4324 215.355 75.7148Z" fill="#E88A0F"/>
<path d="M211.045 45.1478C210.436 43.4149 209.408 41.8832 207.881 40.7596C206.425 39.6928 204.613 39.0108 203.613 37.5126C203.154 36.8261 202.908 36.0188 202.492 35.3061C201.11 32.935 198.18 32.0226 195.486 31.5082C192.792 30.9937 189.879 30.5929 187.869 28.7261C185.675 26.6857 184.966 23.2303 182.389 21.7059C178.243 19.2531 172.691 23.5407 168.264 21.6505C165.665 20.54 164.261 17.5975 161.748 16.3048C160.481 15.6534 159.016 15.4727 157.594 15.5251C154.797 15.6301 151.947 16.691 150.127 18.8115C148.307 20.932 147.743 24.2169 149.179 26.6201C149.99 27.977 151.346 28.9796 151.982 30.4268C152.866 32.438 152.16 34.7596 152.312 36.9515C152.41 38.2152 152.793 39.4402 153.433 40.5339C154.073 41.6276 154.953 42.5614 156.007 43.2648C157.477 44.2296 159.244 44.7222 160.606 45.8284C164.133 48.7125 163.728 54.6265 167.159 57.6214C171.2 61.1468 178.036 58.6329 182.448 61.6802C184.312 62.9685 185.451 65.073 187.184 66.5318C192.399 70.9214 201.756 68.5722 205.04 62.9656C205.692 61.8507 207.207 60.9676 208.066 59.978C211.173 56.4045 212.743 49.9848 211.045 45.1478Z" fill="#260E14"/>
<path d="M176.127 166.559C176.127 166.559 176.029 187.444 181.739 192.689C187.448 197.935 221.331 225.153 221.331 225.153L225.871 218.349C225.871 218.349 207.156 191.156 202.427 188.677C197.699 186.198 192.109 183.693 192.109 183.693L193.666 166.35L176.127 166.559Z" fill="#F4BEAB"/>
<path d="M195.284 147.896C195.284 147.896 189.337 187.363 189.337 190.673C189.337 193.982 182.371 242.791 182.371 242.791H190.866C190.866 242.791 194.435 229.529 197.322 219.833C200.21 210.137 202.591 206.739 203.1 194.912C203.472 186.314 214.674 155.374 214.674 155.374L195.453 147.04L195.284 147.896Z" fill="#F8D1BE"/>
<path d="M183.687 115.274C183.687 115.274 173.437 116.137 176.878 98.6597C179.471 85.488 181.602 76.3881 185.568 74.6422C189.535 72.8962 191.151 99.0882 191.151 99.0882L187.584 111.039L183.687 115.274Z" fill="#F99A0B"/>
<path d="M221.715 139.678C221.331 144.414 221.594 161.393 220.987 170.596C220.955 171.199 220.911 171.772 220.856 172.31V172.321C220.624 174.959 220.273 176.641 219.78 176.663C186.615 178.345 176.679 172.266 166.562 166.727C166.431 166.649 166.999 164.686 167.935 161.792C168.08 161.363 168.226 160.917 168.372 160.461C170.381 154.46 173.587 145.646 175.751 140.897C179.488 132.673 181.963 123.929 186.136 115.903C186.257 115.672 186.388 115.441 186.521 115.2C186.773 114.694 187.058 114.2 187.343 113.682C188.058 112.407 188.827 111.1 189.662 109.781L215.205 109.836C215.205 109.836 215.933 110.935 217.028 112.958C221.443 121.201 222.463 130.588 221.715 139.678Z" fill="#F99A0B"/>
<path d="M193.137 71.8672C193.137 71.8672 198.495 91.6875 203.196 90.6907C207.896 89.6938 210.649 71.1312 210.649 71.1312L206.743 69.0778C206.487 68.9447 206.268 68.7489 206.108 68.5086C205.948 68.2683 205.851 67.9913 205.827 67.7035L205.786 67.1963L205.407 62.5808L198.606 63.3343L198.386 65.9444L198.205 68.0387C198.182 68.3102 198.094 68.5721 197.949 68.8026C197.804 69.0331 197.606 69.2254 197.371 69.3634L193.137 71.8672Z" fill="#F8D1BE"/>
<path d="M198.385 65.9444C199.733 67.138 201.539 67.874 203.95 67.6044C204.574 67.5404 205.189 67.4034 205.782 67.1963L205.408 62.5808L198.606 63.3343L198.385 65.9444Z" fill="#F68A73"/>
<path d="M194.906 55.7238C194.906 55.7238 193.433 54.4894 192.648 55.4688C191.863 56.4482 193.085 61.0068 196.105 60.5594L194.906 55.7238Z" fill="#F8D1BE"/>
<path d="M210.025 49.8259C208.477 46.5381 202.797 46.5833 202.797 46.5833C202.797 46.5833 201.891 49.2547 194.816 53.2173C194.816 53.2173 194.073 55.2576 195.122 58.7159C196.17 62.1743 198.552 66.6003 203.951 66.0028C209.351 65.4053 210.718 60.5712 210.993 56.9671C211.268 53.363 210.025 49.8259 210.025 49.8259Z" fill="#F8D1BE"/>
<path d="M202.407 57.8998C202.397 57.8998 202.399 57.9154 202.407 57.9138C202.415 57.9123 202.416 57.8982 202.407 57.8998Z" fill="#594E8A"/>
<path d="M200.43 54.5231C200.381 54.5244 200.332 54.5317 200.284 54.545C199.767 54.6907 199.817 55.4092 200.025 55.7867C200.068 55.8822 200.138 55.9626 200.227 56.017C200.317 56.0714 200.42 56.0973 200.525 56.0912C200.769 56.0606 200.906 55.8406 200.961 55.6205C201.068 55.2256 200.969 54.4706 200.43 54.5231Z" fill="#260E14"/>
<path d="M207.123 54.0289C207.171 54.0194 207.22 54.016 207.268 54.0187C207.807 54.0552 207.912 54.7605 207.791 55.1744C207.771 55.2768 207.719 55.3705 207.644 55.4429C207.569 55.5153 207.473 55.563 207.37 55.5796C207.124 55.6029 206.942 55.4178 206.839 55.2152C206.652 54.8494 206.586 54.0945 207.123 54.0289Z" fill="#260E14"/>
<path d="M185.568 74.6421L186.187 79.9965H186.197L186.208 80.0475L187.754 93.3854L188.034 95.7726L188.044 95.8833L188.693 101.468L188.802 102.408L189.662 109.781C189.662 109.781 195.112 113.248 202.589 113.248C210.066 113.248 215.208 109.841 215.208 109.841L216.974 97.1221L217.323 94.5848L217.344 94.4143C217.344 94.4143 217.533 94.1447 217.802 93.6856C218.711 92.1656 220.528 88.5848 219.02 86.3608C217.649 84.3324 216.878 81.9584 216.795 79.5112C216.733 78.0879 216.864 76.6629 217.184 75.2746C217.354 74.5153 217.523 74.046 217.533 73.9965L217.543 73.9863L208.987 70.0703C208.14 72.9574 208.026 84.0524 203.195 84.0524C198.363 84.0524 195.441 70.27 195.441 70.27L186.497 74.2355L186.397 74.2763H186.387L185.568 74.6421Z" fill="#F99A0B"/>
<path d="M204.411 56.1961C204.226 55.7589 204.238 55.1847 203.956 54.8174C203.953 54.8134 203.949 54.8102 203.944 54.808C203.939 54.8058 203.934 54.8047 203.929 54.8047C203.924 54.8047 203.918 54.8058 203.914 54.808C203.909 54.8102 203.905 54.8134 203.901 54.8174C203.534 55.176 203.764 55.8376 203.919 56.2588C204.028 56.5503 204.162 56.8417 204.296 57.1259C204.341 57.2207 204.558 57.5165 204.535 57.6243C204.47 57.9231 203.922 57.9158 203.715 57.8925C203.373 57.8546 203.37 58.3997 203.715 58.4332C204.205 58.4784 205.201 58.2321 205.084 57.5937C204.998 57.123 204.596 56.6333 204.411 56.1961Z" fill="#F68A73"/>
<path d="M194.05 56.6378C193.918 56.5882 193.794 56.7923 193.904 56.8826C194.204 57.1031 194.484 57.3493 194.74 57.6186C194.481 57.6179 194.223 57.6638 193.98 57.7541C193.804 57.8182 193.816 58.1097 194.027 58.101C194.353 58.0879 194.746 58.1491 195.065 58.0747C195.182 58.2759 195.283 58.4857 195.4 58.697C195.426 58.7364 195.465 58.7655 195.51 58.7791C195.555 58.7928 195.603 58.7902 195.646 58.7718C195.69 58.7534 195.725 58.7204 195.747 58.6785C195.768 58.6366 195.774 58.5885 195.764 58.5426C195.586 57.7308 194.813 56.9263 194.05 56.6378Z" fill="#F68A73"/>
<path d="M191.512 248.562C190.983 250.591 190.455 252.61 189.925 254.638H186.172C186.205 254.072 186.198 253.504 186.152 252.939C186.121 252.659 186.072 252.356 185.861 252.169C185.501 251.85 184.932 252.07 184.533 252.35C183.974 252.725 183.468 253.171 183.026 253.678C182.748 254.021 182.445 254.342 182.117 254.638H166.187C165.577 254.338 164.958 253.764 165.098 253.089C165.209 252.54 165.768 252.229 166.286 252.019C169.012 250.951 172.016 251.101 174.612 249.712C177.168 248.344 179.214 245.923 179.882 243.048C180.112 242.058 180.213 240.99 180.782 240.133C181.479 239.094 182.727 238.594 183.936 238.238C185.803 237.669 187.83 237.288 189.696 237.878C194.787 239.49 192.448 244.996 191.512 248.562Z" fill="#260E14"/>
<path d="M231.564 220.719C233.02 222.22 234.476 223.717 235.941 225.218L234 228.435C233.536 228.114 233.049 227.827 232.544 227.575C232.289 227.455 232.007 227.343 231.736 227.429C231.277 227.575 231.171 228.172 231.203 228.659C231.235 229.332 231.355 229.997 231.561 230.638C231.711 231.053 231.828 231.479 231.912 231.912L223.679 245.563C223.107 245.93 222.291 246.162 221.786 245.696C221.373 245.318 221.396 244.676 221.485 244.125C221.978 241.238 223.66 238.741 223.814 235.799C223.96 232.901 222.941 229.893 220.838 227.839C220.11 227.13 219.248 226.493 218.8 225.561C218.272 224.425 218.489 223.098 218.8 221.876C219.277 219.982 220.001 218.051 221.469 216.755C225.501 213.225 228.995 218.076 231.564 220.719Z" fill="#260E14"/>
<path d="M187.718 76.6694C187.555 76.4304 187.096 76.5717 187.217 76.8807C190.466 85.2052 188.698 93.9976 187.428 102.573C187.38 102.892 187.823 103.035 187.925 102.71C189.381 98.0549 189.878 93.0313 189.963 88.1681C190.02 84.341 189.955 79.9426 187.718 76.6694Z" fill="#E88A0F"/>
<path d="M220.988 170.596C220.956 171.199 220.912 171.772 220.857 172.31C216.607 171.485 212.182 171.804 207.788 171.937C202.002 172.101 196.204 172.228 190.461 171.365C182.532 170.156 174.318 166.935 167.938 161.792C168.083 161.363 168.229 160.917 168.374 160.461C176.402 165.802 184.945 169.485 194.863 170.211C201.143 170.672 207.436 170.221 213.728 170.156C216.117 170.128 218.632 170.112 220.988 170.596Z" fill="white"/>
<path d="M203.952 104.991C204.752 105.734 210.266 108.109 219.678 100.595C219.924 100.385 220.102 100.106 220.189 99.795C220.243 99.5409 220.243 99.2782 220.189 99.024C220.18 98.9358 220.166 98.8482 220.146 98.7617C220.124 98.6568 220.095 98.5402 220.064 98.4324C219.984 98.1436 219.89 97.859 219.782 97.5798C219.735 97.4486 219.685 97.3277 219.636 97.2082C219.55 97.0085 219.455 96.8088 219.358 96.6252C219.312 96.5342 219.26 96.4465 219.202 96.3629C219.152 96.2719 219.092 96.1864 219.024 96.1078C218.975 96.0557 218.923 96.007 218.867 95.9621C218.358 95.5861 217.651 95.7318 217.05 95.9169C215.035 96.5321 213.079 97.3225 211.202 98.2793C211.626 97.5638 212.057 96.8598 212.489 96.1559C212.676 95.8557 212.868 95.5249 212.883 95.162C212.897 94.7991 212.663 94.4114 212.3 94.3765C211.158 95.2509 210.339 96.2944 209.315 97.2912C207.839 98.7109 206.265 100.026 204.606 101.226C204.114 101.593 203.295 101.934 203.057 102.498C202.723 103.304 203.384 104.472 203.952 104.991Z" fill="#F8D1BE"/>
<path d="M213.981 102.708C215.225 102.447 216.449 101.624 217.515 100.959C218.397 100.398 219.408 99.7936 220.197 99.0299C220.188 98.9417 220.173 98.854 220.153 98.7676C220.132 98.6627 220.102 98.5461 220.072 98.4382C219.198 98.9906 218.4 99.7091 217.537 100.273C216.372 101.035 214.98 101.566 213.873 102.411C213.755 102.496 213.811 102.749 213.981 102.708Z" fill="#F68A73"/>
<path d="M213.383 100.965C214.657 100.709 215.794 100.143 216.923 99.5165C217.894 98.9714 218.968 98.3637 219.79 97.5796C219.743 97.4485 219.694 97.3275 219.644 97.208C218.717 97.6787 217.849 98.3229 216.946 98.8301C215.747 99.5063 214.47 100.027 213.306 100.758C213.218 100.814 213.271 100.997 213.383 100.965Z" fill="#F68A73"/>
<path d="M212.6 99.2398C213.945 98.8638 215.221 98.2429 216.495 97.6716C217.399 97.2767 218.354 96.8716 219.209 96.36C219.159 96.2691 219.099 96.1836 219.031 96.105C217.961 96.4679 216.914 96.9896 215.888 97.4428C214.743 97.9354 213.567 98.3814 212.472 98.9949C212.324 99.078 212.461 99.2747 212.6 99.2398Z" fill="#F68A73"/>
<path d="M208.13 105.923C208.13 105.923 205.545 104.376 205.964 100.677C205.964 100.677 186.278 104.594 182.351 106.544C177.78 108.815 180.188 115.58 184.68 115.269C189.172 114.959 208.13 105.923 208.13 105.923Z" fill="#F8D1BE"/>
<path d="M201.961 52.5178C201.909 52.496 201.853 52.477 201.799 52.4566L201.929 52.5324C201.785 52.43 201.61 52.3815 201.434 52.3954C201.3 52.3954 201.165 52.3954 201.031 52.3954C200.733 52.4053 200.436 52.4349 200.142 52.4843C199.858 52.534 199.578 52.6106 199.308 52.7131C199.031 52.7925 198.776 52.9357 198.564 53.1314C198.542 53.1547 198.526 53.184 198.52 53.2158C198.514 53.2475 198.518 53.2803 198.53 53.3102C198.543 53.34 198.563 53.3656 198.59 53.3838C198.617 53.402 198.648 53.4121 198.68 53.4127C198.944 53.3857 199.204 53.33 199.455 53.2465C199.724 53.181 200.003 53.1299 200.279 53.0891C200.538 53.0512 200.799 53.0322 201.06 53.0323C201.194 53.0323 201.329 53.0323 201.463 53.044C201.529 53.044 201.598 53.0614 201.665 53.06C201.732 53.0585 201.811 53.0206 201.894 53.0119C201.954 53.011 202.012 52.9884 202.057 52.9484C202.102 52.9084 202.132 52.8535 202.14 52.7937C202.148 52.7339 202.134 52.6732 202.102 52.6226C202.069 52.572 202.019 52.5348 201.961 52.5178Z" fill="#260E14"/>
<path d="M209.09 52.3414C209.015 52.2193 208.9 52.1279 208.764 52.0834C208.343 51.9362 207.895 51.8893 207.453 51.9464C207.168 51.968 206.886 52.0268 206.616 52.1213C206.473 52.1752 206.334 52.237 206.198 52.3064C206.133 52.3321 206.073 52.368 206.019 52.4128C205.967 52.4714 205.919 52.5327 205.873 52.5964C205.848 52.6189 205.831 52.6495 205.826 52.6829C205.821 52.7164 205.827 52.7506 205.845 52.7797C205.862 52.8089 205.889 52.8311 205.92 52.8426C205.952 52.8541 205.987 52.8541 206.019 52.8427C206.077 52.8347 206.136 52.8304 206.195 52.8296C206.264 52.8183 206.331 52.7972 206.395 52.767C206.516 52.7218 206.64 52.6834 206.766 52.6518C207.008 52.5853 207.255 52.5419 207.506 52.5221C207.765 52.5126 208.025 52.5229 208.283 52.5527C208.516 52.5746 208.809 52.6883 209.027 52.5658C209.064 52.5436 209.092 52.5079 209.103 52.4661C209.115 52.4244 209.11 52.3797 209.09 52.3414Z" fill="#260E14"/>
<path d="M204.901 60.233C204.835 60.2403 204.776 60.2258 204.71 60.233C204.638 60.2422 204.566 60.2573 204.496 60.2782C204.371 60.3062 204.244 60.3261 204.116 60.338C203.862 60.3632 203.607 60.3725 203.351 60.3657C203.105 60.3536 202.861 60.3135 202.623 60.2462C202.366 60.1733 202.118 60.0363 201.859 59.978C201.808 59.9672 201.754 59.9729 201.706 59.9942C201.658 60.0155 201.619 60.0514 201.592 60.0968C201.566 60.1422 201.555 60.1947 201.56 60.2469C201.565 60.2991 201.587 60.3483 201.622 60.3875C201.852 60.5865 202.126 60.7279 202.421 60.8C202.716 60.89 203.02 60.9458 203.328 60.9661C203.627 60.9893 203.929 60.9662 204.221 60.8976C204.361 60.863 204.499 60.8197 204.634 60.7679C204.704 60.7461 204.772 60.7188 204.837 60.6863C204.89 60.6426 204.939 60.5938 204.982 60.5405C205.097 60.4604 205.089 60.2097 204.901 60.233Z" fill="#F68A73"/>
<path d="M239.044 19.4737C238.961 19.4727 238.879 19.4538 238.803 19.4184C238.728 19.3829 238.661 19.3317 238.607 19.2682C238.527 19.1735 236.657 16.9364 237.168 14.3612C237.495 12.7304 238.689 11.3751 240.718 10.3345C241.119 10.1285 241.537 9.95691 241.966 9.82151C242.318 8.92787 242.86 8.12134 243.554 7.45765C245.502 5.56306 247.208 5.0384 248.542 5.07192C248.795 3.46142 249.221 1.88308 249.813 0.364601C249.871 0.221202 249.984 0.106708 250.126 0.046306C250.268 -0.0140957 250.429 -0.0154573 250.572 0.0425207C250.715 0.100499 250.83 0.213067 250.89 0.355462C250.95 0.497857 250.952 0.658414 250.894 0.801813C250.333 2.23508 249.93 3.72567 249.694 5.24681C250.216 5.39468 250.708 5.63078 251.15 5.94489C252.627 6.99566 253.436 8.82612 252.916 9.94247C252.791 10.2106 252.271 11.053 250.808 10.6712C250.395 10.5724 250.01 10.3827 249.68 10.1159C249.35 9.84918 249.084 9.5121 248.9 9.12926C248.497 8.32916 248.385 7.30608 248.434 6.24365C247.156 6.25677 245.751 6.95194 244.37 8.29273C243.987 8.6626 243.657 9.08391 243.389 9.54461C244.105 9.47897 244.827 9.5641 245.508 9.79452C246.189 10.0249 246.814 10.3955 247.344 10.8825C248.529 11.9726 249.045 13.5058 248.596 14.5988C248.241 15.4732 247.353 15.941 246.159 15.9002C244.066 15.8317 242.508 14.8611 241.882 13.2405C241.635 12.5861 241.547 11.8823 241.624 11.1871C241.497 11.2439 241.369 11.3051 241.238 11.3722C239.543 12.2466 238.556 13.3207 238.301 14.5784C237.895 16.591 239.466 18.4914 239.484 18.5133C239.583 18.6313 239.632 18.7839 239.619 18.9377C239.606 19.0915 239.533 19.234 239.415 19.3338C239.312 19.4225 239.18 19.472 239.044 19.4737ZM242.875 10.7848C242.699 11.4591 242.733 12.1712 242.974 12.8252C243.428 14.0056 244.576 14.6862 246.201 14.7402C246.689 14.7562 247.315 14.6687 247.521 14.1572C247.743 13.6165 247.481 12.5862 246.56 11.7409C246.045 11.2672 244.793 10.3943 242.875 10.7848ZM249.573 6.43603C249.544 7.27256 249.636 8.03914 249.923 8.60897C250.034 8.8431 250.196 9.0491 250.398 9.21162C250.6 9.37413 250.835 9.48896 251.088 9.54753C251.325 9.61019 251.741 9.68015 251.848 9.4528C252.068 8.97915 251.584 7.6952 250.461 6.89802C250.191 6.70119 249.893 6.5446 249.578 6.43311L249.573 6.43603Z" fill="#38AE83"/>
<path d="M337.204 83.4111L336.374 86.9671L326.403 102.417L322.885 83.3659L324.899 82.713L325.098 78.3161L325.13 77.4402L325.242 74.8708L334.505 76.5221L334.625 78.7358L334.649 79.1468L334.858 82.8237L337.204 83.4111Z" fill="#F8D1BE"/>
<path d="M334.624 78.7373C333.459 79.568 332.003 80.0766 330.142 80.0766C328.775 80.1018 327.425 79.7698 326.225 79.1133C326.213 79.1018 326.198 79.0942 326.181 79.0914C325.797 78.8673 325.434 78.6067 325.1 78.3132L325.132 77.4387L325.244 74.8694L334.506 76.5206L334.624 78.7373Z" fill="#F68A73"/>
<path d="M320.205 67.7443C320.205 67.7443 319.606 63.4757 320.374 59.8934C321.141 56.3112 321.798 54.2519 325.997 53.7287C330.197 53.2056 336.044 52.9738 337.765 55.6729C339.487 58.3719 340.264 63.6884 339.09 68.3112C337.917 72.934 321.933 68.7951 321.933 68.7951L320.205 67.7443Z" fill="#260E14"/>
<path d="M338.631 67.6437C338.631 67.6437 338.564 67.6437 338.441 67.6539C338.431 68.0197 338.431 68.3739 338.431 68.7295C338.398 69.0384 338.364 69.3605 338.309 69.6491C338.3 69.7973 338.274 69.944 338.232 70.0863C338.054 71.1064 338.01 72.0013 337.69 72.9763C337.37 73.9512 336.937 74.9758 336.311 75.8356L336.157 76.0674C335.75 76.5682 335.282 77.0149 334.762 77.3965C333.578 78.2826 332.072 78.8364 330.136 78.8364C328.768 78.8616 327.418 78.5296 326.219 77.873C326.207 77.8615 326.191 77.8539 326.175 77.8512C325.448 77.4323 324.8 76.8898 324.26 76.2481C324.248 76.216 324.215 76.1941 324.205 76.1708C322.749 74.422 322.002 72.1062 321.626 70.1023C321.499 69.27 321.44 68.4288 321.448 67.5869C321.448 67.4105 321.46 67.2327 321.472 67.0564C321.472 67.0447 321.46 67.0447 321.448 67.0331C321.437 67.0214 321.46 66.9675 321.493 66.8334C321.539 66.2463 321.636 65.6645 321.785 65.0948C322.061 63.5674 322.172 62.9466 322.305 62.282C322.538 61.1526 322.803 58.882 325.415 58.4827C328.027 58.0833 334.256 57.8997 336.547 59.1589C338.837 60.4181 338.631 67.6437 338.631 67.6437Z" fill="#F8D1BE"/>
<path d="M330.834 70.0864C330.836 70.0864 330.838 70.0872 330.839 70.0886C330.84 70.09 330.841 70.0919 330.841 70.0939C330.841 70.0959 330.84 70.0978 330.839 70.0992C330.838 70.1006 330.836 70.1014 330.834 70.1014C330.832 70.1014 330.83 70.1006 330.828 70.0992C330.827 70.0978 330.826 70.0959 330.826 70.0939C330.826 70.0919 330.827 70.09 330.828 70.0886C330.83 70.0872 330.832 70.0864 330.834 70.0864Z" fill="#594E8A"/>
<path d="M321.677 66.8161C321.677 66.8161 320.598 64.7364 319.253 65.7959C318.204 66.6223 319.075 71.6998 322.319 71.5817L321.677 66.8161Z" fill="#F8D1BE"/>
<path d="M320.483 67.5288C320.749 67.7675 320.969 68.0524 321.133 68.3697C321.27 68.6072 321.497 68.9526 321.414 69.2325C321.409 69.2482 321.401 69.2628 321.39 69.275C321.379 69.2872 321.366 69.2967 321.351 69.3029C321.336 69.3091 321.319 69.3117 321.303 69.3106C321.287 69.3095 321.271 69.3047 321.256 69.2966C321.082 69.1829 320.991 68.9643 320.9 68.7632C320.851 68.766 320.802 68.7739 320.754 68.7865C320.683 68.8081 320.618 68.8444 320.562 68.8929C320.532 68.9205 320.492 68.9354 320.451 68.9345C320.41 68.9336 320.371 68.917 320.343 68.888C320.314 68.8591 320.297 68.8201 320.296 68.7792C320.295 68.7383 320.31 68.6986 320.338 68.6684C320.443 68.5558 320.586 68.4862 320.74 68.4732C320.575 68.2196 320.377 67.9937 320.207 67.7445C320.083 67.5652 320.339 67.4122 320.483 67.5288Z" fill="#F68A73"/>
<path d="M338.409 66.8161C338.409 66.8161 339.488 64.7364 340.834 65.7959C341.882 66.6223 341.01 71.6998 337.766 71.5817L338.409 66.8161Z" fill="#F8D1BE"/>
<path d="M339.602 67.5288C339.337 67.7679 339.117 68.0527 338.953 68.3697C338.817 68.6072 338.59 68.9526 338.672 69.2325C338.676 69.2482 338.684 69.2628 338.695 69.275C338.706 69.2872 338.719 69.2967 338.735 69.3029C338.75 69.3091 338.766 69.3117 338.782 69.3106C338.799 69.3095 338.815 69.3047 338.829 69.2966C339.005 69.1829 339.095 68.9643 339.187 68.7632C339.236 68.766 339.285 68.7739 339.333 68.7865C339.403 68.8088 339.469 68.845 339.525 68.8929C339.555 68.9205 339.595 68.9354 339.636 68.9345C339.676 68.9336 339.715 68.917 339.744 68.888C339.773 68.8591 339.79 68.8201 339.791 68.7792C339.792 68.7383 339.777 68.6986 339.749 68.6684C339.644 68.5556 339.5 68.486 339.346 68.4732C339.512 68.2196 339.71 67.9937 339.88 67.7445C340.003 67.5652 339.748 67.4122 339.602 67.5288Z" fill="#F68A73"/>
<path d="M408.572 57.7643C408.502 57.6851 408.429 57.6097 408.351 57.5385C408.256 57.451 408.147 57.3577 408.044 57.2747C407.767 57.0473 407.48 56.8342 407.182 56.6363C407.045 56.5431 406.915 56.4585 406.784 56.3755C406.564 56.2414 406.333 56.1117 406.107 55.9936C406 55.9374 405.889 55.8887 405.775 55.8479C405.664 55.7939 405.547 55.7514 405.427 55.7211C405.345 55.7071 405.261 55.6978 405.178 55.6934C404.421 55.6774 403.834 56.307 403.375 56.9016C401.834 58.8933 400.47 61.016 399.298 63.2455C399.219 62.2574 399.152 61.2737 399.093 60.2914C399.068 59.8688 399.027 59.417 398.791 59.0512C398.556 58.6854 398.063 58.4683 397.689 58.6839C397.174 60.3177 397.098 61.9048 396.789 63.5866C396.393 65.6612 395.864 67.7081 395.205 69.7148L390.787 76.2104L397.485 79.9995L400.85 73.3218C403.492 71.522 406.82 67.6628 409.143 59.656C409.238 59.2816 409.219 58.8873 409.089 58.5236C408.972 58.2367 408.796 57.9779 408.572 57.7643Z" fill="#F8D1BE"/>
<path d="M334.635 257.081L333.233 251.712C332.589 251.964 326.753 260.003 319.787 259.647C317.59 262.697 314.064 267.352 311.793 269.12C308.27 271.857 311.877 272.986 315.914 271.029C318.9 269.582 328.154 264.247 332.755 261.58C333.516 261.138 334.112 260.459 334.451 259.647C334.791 258.834 334.855 257.933 334.635 257.081Z" fill="#1E1F21"/>
<path d="M333.234 251.712L330.819 242.506L317.461 246.171L321.77 256.801C321.77 256.801 320.975 257.984 319.788 259.647C326.754 260.003 332.59 251.964 333.234 251.712Z" fill="#F8D1BE"/>
<path d="M393.749 205.313L388.506 203.499C388.361 204.175 391.799 213.495 387.633 219.093C388.943 222.617 390.86 228.129 391.071 231.011C391.388 235.462 394.33 233.087 394.945 228.64C395.401 225.351 396.11 214.686 396.444 209.375C396.499 208.497 396.265 207.624 395.779 206.891C395.292 206.157 394.579 205.603 393.749 205.313Z" fill="#1E1F21"/>
<path d="M388.507 203.502L379.517 200.399L375.148 213.553L386.374 215.869C386.374 215.869 386.915 217.19 387.638 219.099C391.799 213.495 388.36 204.175 388.507 203.502Z" fill="#F8D1BE"/>
<path d="M304.671 143.327C304.671 144.424 294.332 184.094 295.951 197.072C297.571 210.05 317.46 251.99 317.46 251.99C317.46 251.99 324.449 252.593 333.232 245.653L319.399 195.751L329.177 143.229L313.761 138.003L304.671 143.327Z" fill="#E88A0F"/>
<path d="M320.658 142.097C320.91 143.717 320.999 191.828 327.286 201.977C333.574 212.126 379.539 216.574 379.539 216.574C379.539 216.574 383.99 210.089 383.16 199.842C383.16 199.842 352.968 190.454 346.267 187.437C346.267 187.437 350.376 161.917 348.923 151.121L320.658 142.097Z" fill="#F99A0B"/>
<path d="M327.205 65.7624C327.152 65.7553 327.098 65.7553 327.045 65.7624C326.463 65.8601 326.423 66.6368 326.608 67.0741C326.642 67.1834 326.708 67.2798 326.797 67.3504C326.887 67.421 326.996 67.4624 327.111 67.469C327.381 67.469 327.559 67.246 327.651 67.0143C327.807 66.6092 327.796 65.7799 327.205 65.7624Z" fill="#260E14"/>
<path d="M328.508 63.4001C328.237 62.6714 327.378 62.6714 326.799 62.6801C326.045 62.6766 325.313 62.9311 324.724 63.4015C324.344 63.7017 324.523 64.5674 324.949 64.4362C325.564 64.2468 326.167 64.0165 326.786 64.0471C327.305 64.0734 327.758 64.4421 328.281 64.1797C328.539 64.0515 328.607 63.6726 328.508 63.4001Z" fill="#260E14"/>
<path d="M333.806 65.5277C333.859 65.5235 333.912 65.5265 333.964 65.5365C334.547 65.6458 334.569 66.4269 334.384 66.8612C334.348 66.9696 334.279 67.0645 334.188 67.1332C334.097 67.2019 333.987 67.2412 333.873 67.246C333.602 67.2387 333.429 67.0142 333.343 66.7811C333.187 66.3628 333.213 65.5292 333.806 65.5277Z" fill="#260E14"/>
<path d="M332.368 63.1769C332.629 62.4381 333.49 62.4381 334.068 62.4351C334.821 62.4211 335.557 62.666 336.151 63.1288C336.536 63.4203 336.368 64.2947 335.94 64.1665C335.323 63.9843 334.719 63.7628 334.098 63.8007C333.58 63.8342 333.131 64.2087 332.606 63.9537C332.347 63.8269 332.272 63.448 332.368 63.1769Z" fill="#260E14"/>
<path d="M329.139 71.0017C329.128 71.0017 329.128 71.0169 329.139 71.0185C329.15 71.02 329.15 71.0017 329.139 71.0017Z" fill="#594E8A"/>
<path d="M331.465 67.8551C331.361 67.2371 331.201 66.6298 330.987 66.0406C330.972 66.0077 330.946 65.9811 330.913 65.9657C330.88 65.9503 330.843 65.947 330.808 65.9565C330.773 65.9659 330.743 65.9875 330.722 66.0173C330.701 66.0471 330.692 66.0833 330.696 66.1193C330.776 66.7387 330.943 67.3494 331.053 67.9658C331.095 68.2063 331.261 68.6552 331.198 68.8927C331.303 69.1755 331.178 69.2308 330.82 69.0574C330.669 69.0154 330.516 68.9828 330.361 68.9598C330.16 68.9233 329.99 69.2104 330.207 69.3168C330.585 69.5048 331.565 69.8371 331.677 69.1798C331.743 68.8053 331.54 68.2238 331.465 67.8551Z" fill="#F68A73"/>
<path d="M322.885 83.363L326.398 102.412L336.379 86.9642L337.201 83.414L334.857 82.8179L334.773 81.0691C332.476 82.713 327.559 83.0511 324.961 81.2586L324.893 82.7159L322.885 83.363Z" fill="#F6F6F6"/>
<path d="M304.164 133.313L311.251 84.121C311.251 84.121 315.715 82.6636 324.894 82.7131C325.419 86.1467 328.291 97.4327 328.291 97.4327C329.641 95.2845 333.927 85.3262 335.269 82.8997C344.666 83.7231 347.611 85.3641 347.611 85.3641C347.611 85.3641 350.944 149.715 352.486 155.872C352.486 155.872 329.142 160.699 326.415 158.045C323.687 155.391 322.885 140.702 322.885 140.702C322.885 140.702 317.748 158.253 313.47 158.045C308.038 157.778 300.34 155.226 300.34 155.226L304.164 133.313Z" fill="#38AE83"/>
<path d="M337.932 63.9902C337.163 63.1347 336.152 63.6258 335.18 63.7584C334.207 63.8911 332.644 63.636 331.82 64.3079C331.477 64.5877 331.408 65.0001 331.448 65.4111C330.96 65.3579 330.468 65.4301 330.016 65.621C330.037 65.057 329.93 64.4944 329.55 64.0732C328.781 63.2178 327.771 63.7089 326.798 63.8415C325.825 63.9741 324.263 63.7176 323.439 64.3895C322.953 64.7859 323.002 65.4475 323.155 65.9926C323.592 67.5301 323.934 69.2309 325.728 69.6594C327.724 70.1345 329.386 68.4789 329.852 66.6761L329.86 66.6441C330.08 66.5872 330.297 66.4561 330.523 66.4065C330.909 66.3344 331.306 66.3463 331.688 66.4415C332.071 67.8202 332.524 69.1974 334.112 69.5763C336.108 70.0514 337.77 68.3973 338.236 66.5945C338.45 65.7594 338.556 64.6839 337.932 63.9902ZM328.758 67.1294C328.321 68.1379 327.244 69.0356 326.088 68.8928C325.311 68.7981 324.777 68.2005 324.468 67.5199C324.186 66.8918 323.848 65.7798 324.313 65.1677C324.777 64.5556 326.067 64.8661 326.746 64.7859C327.424 64.7057 328.745 64.1009 329.086 65.2231C329.247 65.7638 328.968 66.6441 328.755 67.1294H328.758ZM337.139 67.0463C336.703 68.0548 335.625 68.9525 334.469 68.8112C333.693 68.715 333.158 68.1175 332.85 67.4369C332.567 66.8087 332.229 65.6968 332.695 65.0861C333.161 64.4755 334.443 64.7844 335.127 64.7028C335.811 64.6212 337.128 64.0179 337.467 65.14C337.629 65.6807 337.349 66.561 337.137 67.0463H337.139Z" fill="#F99A0B"/>
<path d="M405.047 65.6341C406.08 64.5207 406.707 62.8753 407.284 61.4879C407.757 60.3337 408.326 59.0424 408.57 57.7585C408.499 57.6797 408.425 57.6048 408.347 57.5341C408.254 57.4466 408.144 57.3533 408.041 57.2703C407.572 58.4085 407.287 59.6589 406.834 60.8044C406.215 62.3536 405.232 63.8255 404.734 65.4112C404.682 65.5788 404.91 65.7886 405.047 65.6341Z" fill="#F68A73"/>
<path d="M403.267 64.3459C404.331 63.2179 405.051 61.8829 405.719 60.494C406.29 59.2946 406.919 57.9625 407.175 56.6305C407.04 56.5372 406.909 56.4527 406.778 56.3696C406.195 57.467 405.796 58.6941 405.265 59.809C404.563 61.2941 403.682 62.6772 403.049 64.1958C403.002 64.3109 403.184 64.4493 403.267 64.3459Z" fill="#F68A73"/>
<path d="M401.319 63.2033C402.371 61.9092 403.191 60.4241 404.036 58.9915C404.644 57.9844 405.297 56.9308 405.774 55.8406C405.663 55.7856 405.546 55.7426 405.426 55.7124C404.634 56.8054 403.97 58.0355 403.284 59.1839C402.508 60.4518 401.669 61.6978 401.024 63.0503C400.939 63.2354 401.208 63.333 401.319 63.2033Z" fill="#F68A73"/>
<path d="M400.925 74.8157C400.925 74.8157 397.905 72.6617 392.874 70.5791C392.874 70.5791 384.203 81.9743 377.799 91.3001C377.768 91.2418 364.968 87.6275 355.497 85.7271C346.026 83.8267 340.471 84.1429 340.471 84.1429C338.763 87.7412 344.777 101.528 344.777 101.528C344.777 101.528 376.794 109.031 385.027 102.961C392.149 97.7111 400.925 74.8157 400.925 74.8157Z" fill="#38AE83"/>
<path d="M290.342 121.074C291.943 116.804 288.073 100.76 286.467 94.5498C286.071 92.9992 285.812 92.0577 285.812 92.0577C286.102 90.0555 286.512 88.0728 287.042 86.1204C287.53 84.3555 288.198 82.7903 288.465 80.9744C288.204 80.594 287.617 80.5794 287.23 80.8112C286.843 81.0429 286.582 81.4714 286.356 81.8663C285.837 82.7845 285.317 83.7026 284.778 84.6193C284.69 81.9214 284.366 79.2365 283.811 76.595C283.647 75.8065 283.374 74.9263 282.637 74.5867C282.555 74.5525 282.47 74.5228 282.384 74.4978C282.254 74.4707 282.122 74.457 281.989 74.457C281.86 74.4436 281.729 74.4397 281.599 74.4454C281.327 74.4526 281.044 74.4701 280.769 74.4964C280.605 74.5153 280.439 74.5343 280.264 74.5619C279.884 74.6128 279.508 74.6834 279.135 74.7733C278.997 74.8039 278.844 74.8432 278.716 74.8855C278.607 74.9165 278.5 74.954 278.396 74.9977C278.08 75.097 277.788 75.2619 277.54 75.4815C277.244 75.7716 277.041 76.1429 276.957 76.5483C275.574 84.6718 276.666 89.7944 278.18 92.8709C278.18 92.8709 278.172 93.9727 278.18 95.7478C278.231 102.172 278.563 117.445 280.51 121.594C282.991 126.893 288.956 124.771 290.342 121.074Z" fill="#F8D1BE"/>
<path d="M278.118 84.2288C277.642 82.6738 277.807 80.7938 277.898 79.1878C277.98 77.8528 278.035 76.3415 278.399 74.9906C278.504 74.9469 278.611 74.9094 278.72 74.8783C278.851 74.8361 279.001 74.7982 279.139 74.7661C279.059 76.0777 278.75 77.4229 278.653 78.7375C278.525 80.5213 278.785 82.4013 278.525 84.1618C278.496 84.3498 278.178 84.4445 278.118 84.2288Z" fill="#F68A73"/>
<path d="M280.436 83.8223C279.935 82.2367 279.866 80.6161 279.871 78.9619C279.882 77.5381 279.898 75.9612 280.267 74.5548C280.442 74.5272 280.608 74.5082 280.773 74.4893C280.818 75.8184 280.627 77.1883 280.627 78.5131C280.611 80.2721 280.814 82.0108 280.716 83.7786C280.709 83.9141 280.467 83.9622 280.436 83.8223Z" fill="#F68A73"/>
<path d="M282.85 83.6326C282.439 81.894 282.343 80.0781 282.198 78.3016C282.081 77.0468 281.944 75.7249 281.992 74.4497C282.125 74.4496 282.258 74.4633 282.388 74.4905C282.642 75.9144 282.706 77.4053 282.825 78.8379C282.981 80.425 283.208 82.0179 283.198 83.6239C283.201 83.8411 282.897 83.8104 282.85 83.6326Z" fill="#F68A73"/>
<path d="M290.603 125.314C286.234 128.957 281.806 129.202 279.791 124.693C277.918 120.513 277.307 101.688 277.361 95.2626C279.677 95.1168 285.147 94.4231 287.465 93.8052C288.101 96.4401 288.946 102.609 289.727 107.239C289.734 107.234 289.739 107.227 289.743 107.22C289.743 107.22 300.153 79.4296 312.524 84.6966C316.637 86.4454 315.808 90.341 308.846 102.203C303.482 111.337 297.199 119.949 290.603 125.314Z" fill="#339972"/>
<path d="M332.182 72.1441C332.036 72.0465 331.89 72.099 331.729 72.1281C331.567 72.1572 331.389 72.1631 331.221 72.1908C330.878 72.2476 330.53 72.2957 330.184 72.3219C329.835 72.3482 329.485 72.3482 329.137 72.3219C328.965 72.3088 328.795 72.2913 328.626 72.2636C328.457 72.2359 328.269 72.1733 328.1 72.2447C328.075 72.2525 328.053 72.2665 328.035 72.2853C328.017 72.3041 328.004 72.3272 327.997 72.3523C327.991 72.3775 327.99 72.4039 327.997 72.4291C328.003 72.4544 328.015 72.4777 328.033 72.4968C328.15 72.6425 328.333 72.6673 328.503 72.7052C328.674 72.7431 328.881 72.7795 329.071 72.8057C329.452 72.8596 329.836 72.883 330.22 72.8757C330.608 72.8725 330.993 72.8236 331.369 72.73C331.554 72.6719 331.736 72.6023 331.912 72.5216C332.058 72.4618 332.17 72.4152 332.228 72.2563C332.233 72.2351 332.231 72.2128 332.223 72.1927C332.215 72.1725 332.2 72.1555 332.182 72.1441Z" fill="#F68A73"/>
<path d="M67.2219 263.063L68.6227 257.694C69.2677 257.946 75.1039 265.985 82.0685 265.628C84.2672 268.68 87.791 273.335 90.064 275.101C93.5849 277.837 89.9795 278.966 85.9432 277.01C82.9552 275.563 73.7031 270.228 69.1017 267.561C68.3409 267.119 67.7453 266.441 67.4059 265.629C67.0665 264.816 67.0018 263.916 67.2219 263.063Z" fill="#1E1F21"/>
<path d="M68.623 257.694L71.0373 248.488L84.403 252.153L80.0943 262.782C80.0943 262.782 80.8908 263.967 82.0761 265.628C75.1042 265.985 69.2681 257.946 68.623 257.694Z" fill="#F8D1BE"/>
<path d="M8.11117 211.296L13.3459 209.477C13.4915 210.153 10.0551 219.475 14.2196 225.071C12.9091 228.595 10.9943 234.107 10.7831 236.988C10.4643 241.439 7.5229 239.065 6.90842 234.618C6.45265 231.329 5.74352 220.664 5.41007 215.353C5.3556 214.474 5.5902 213.602 6.07798 212.869C6.56577 212.137 7.2799 211.584 8.11117 211.296Z" fill="#1E1F21"/>
<path d="M13.3452 209.477L22.3367 206.376L26.7051 219.53L15.4799 221.846C15.4799 221.846 14.9469 223.176 14.2189 225.078C10.0587 219.478 13.4981 210.156 13.3452 209.477Z" fill="#F8D1BE"/>
<path d="M97.1848 149.309C97.1848 150.407 107.523 190.077 105.906 203.053C104.288 216.029 96.8776 259.484 96.8776 259.484C96.8776 259.484 77.4078 258.576 68.6289 251.635L82.462 201.734L72.6856 149.212L88.1016 143.986L97.1848 149.309Z" fill="#339972"/>
<path d="M81.2003 148.079C80.9484 149.7 80.861 197.811 74.5735 207.96C68.286 218.109 27.5788 231.502 27.5788 231.502C27.5788 231.502 17.8694 216.072 18.6965 205.825C18.6965 205.825 48.8891 196.437 55.5916 193.418C55.5916 193.418 51.481 167.9 52.9342 157.103L81.2003 148.079Z" fill="#38AE83"/>
<path d="M88.5278 94.9651C97.9926 96.2972 117.257 101.054 120.364 100.559C123.907 91.7487 126.301 75.3459 126.301 75.3459C128.318 76.7421 132.75 78.0421 132.75 78.0421C132.75 78.0421 134.43 105.216 127.9 114.284C124.98 118.337 86.9829 116.287 86.9829 116.287C84.6793 98.6741 88.5278 94.9651 88.5278 94.9651Z" fill="#F8D1BE"/>
<path d="M87.923 94.7817C87.923 94.7817 107.461 97.4721 110.572 97.8962C110.572 97.8962 112.052 110.5 108.121 118.541L85.5918 119.156L87.923 94.7817Z" fill="#67B3FA"/>
<path d="M126.734 80.5752C126.932 80.9841 127.167 81.3743 127.436 81.7411C127.858 82.324 128.385 82.8487 129.049 83.1154C129.713 83.3821 130.534 83.3398 131.075 82.8691C131.647 82.3721 131.781 81.5575 131.999 80.8288C132.515 79.1134 134.215 78.8511 135.602 78.0787C136.887 77.3617 138.039 76.3124 138.604 74.9512C138.767 74.5837 138.855 74.1873 138.863 73.7853C138.834 73.3428 138.736 72.9077 138.572 72.4955C138.227 71.4608 137.844 70.3911 137.066 69.6259C135.548 68.1351 133.661 69.0284 132.028 69.7017C132.777 69.3082 133.659 66.3498 132.596 66.1355C132.445 66.1156 132.292 66.1326 132.149 66.1852C132.006 66.2377 131.878 66.3242 131.776 66.4372C131.575 66.6647 131.407 66.9205 131.28 67.1965C130.897 67.915 130.447 68.616 129.824 69.1348C126.365 72 124.64 76.3255 126.734 80.5752Z" fill="#F8D1BE"/>
<path d="M47.4363 114.619C54.5786 97.6279 61.1908 95.452 61.1908 95.452C62.0645 94.7904 65.067 93.7673 75.4069 93.8854C80.5281 93.9378 84.0111 94.2264 86.3744 94.5776C88.7376 94.9288 89.7598 94.9492 90.3889 95.2363L100.984 159.865C100.984 159.865 82.8709 167.315 59.6299 161.709C56.6381 160.989 53.6935 160.085 50.8131 159.002L56.0988 125.795C56.0988 125.795 50.1534 138.891 47.662 138.568C36.4092 137.111 47.4363 114.619 47.4363 114.619Z" fill="#67B3FA"/>
<path d="M71.5898 93.8707C71.5898 93.8707 75.8388 98.0315 81.5264 94.0922L81.123 90.475L80.7634 87.1157L72.1417 87.8532L71.884 90.6703L71.5898 93.8707Z" fill="#F8D1BE"/>
<path d="M71.8887 90.6703C73.1031 91.2008 74.5577 91.5156 76.2993 91.5156C78.2446 91.5156 79.8332 91.1206 81.1263 90.475L80.7637 87.1157L72.142 87.8532L71.8887 90.6703Z" fill="#F68A73"/>
<path d="M66.1187 67.966C66.8817 66.9269 67.9592 66.1589 69.0964 65.5526C69.7386 65.2116 70.4273 64.9099 71.1539 64.8866C71.5619 64.8888 71.9692 64.9205 72.3727 64.9813C71.6737 64.0151 70.7826 63.2325 69.8405 62.412C69.8124 62.382 69.7948 62.3438 69.7901 62.303C69.7855 62.2622 69.7941 62.221 69.8147 62.1855C69.8353 62.15 69.8668 62.1221 69.9045 62.1059C69.9422 62.0898 69.9841 62.0862 70.024 62.0957C71.4524 62.5009 72.4921 63.6813 73.0818 65.0265C73.1066 65.0265 73.1342 65.0265 73.1604 65.0265C73.1764 63.5458 73.7341 61.6745 75.1699 61.4428C75.2733 61.4253 75.3956 61.5332 75.3155 61.6395C74.8685 62.2852 74.3224 62.7442 74.0501 63.5181C73.9052 63.9701 73.8152 64.4378 73.7822 64.9114C73.8974 64.867 74.0065 64.8082 74.1069 64.7365C75.6548 63.6274 78.1695 63.3505 80.077 63.5181C80.7818 63.5793 81.5593 63.7615 81.9496 64.3517C82.017 64.4844 82.1078 64.6039 82.2175 64.7044C82.3575 64.7849 82.5162 64.8271 82.6776 64.8268C83.9546 64.9594 85.1152 65.7012 85.8694 66.7302C86.6426 67.778 86.5771 68.8317 86.9309 69.9991C87.1916 70.8618 87.7915 71.5876 87.8264 72.5917C87.8658 73.6877 87.1246 74.4266 86.6965 75.3797C86.2684 76.3328 86.7882 77.2407 86.4286 78.2128C86.1374 78.9838 85.2331 79.5055 84.5735 79.9107C83.6386 80.4834 82.6601 81.0766 81.5681 81.1669C80.8182 81.2325 80.0683 81.0576 79.3446 80.8536C77.95 80.4394 76.578 79.953 75.2339 79.3962C74.3253 79.0348 73.3992 78.6573 72.4222 78.6034C71.0316 78.5291 69.6061 79.1135 68.2708 78.7171C67.4117 78.462 66.7055 77.8164 66.2322 77.0513C65.759 76.2862 65.5144 75.4074 65.3498 74.5257C64.9669 72.4066 64.7703 69.8067 66.1187 67.966Z" fill="#1E1F21"/>
<path d="M85.1211 77.6647C85.1211 77.6647 86.5773 76.1505 87.5398 77.1196C88.5022 78.0888 87.7203 83.1721 84.3945 83.0511L85.1211 77.6647Z" fill="#F8D1BE"/>
<path d="M67.8935 77.6647C67.8935 77.6647 66.4373 76.1505 65.4734 77.1196C64.5094 78.0888 65.2928 83.1721 68.6186 83.0511L67.8935 77.6647Z" fill="#F8D1BE"/>
<path d="M67.8241 80.9366C68.5522 84.8117 70.6068 89.8936 76.5346 89.8936C82.4625 89.8936 84.5156 84.8117 85.2407 80.9366C85.7169 78.4051 85.2407 74.2327 84.8447 71.6604C84.8447 71.6516 84.8447 71.6371 84.8345 71.624C84.3976 69.6725 82.9765 69.196 81.7766 69.1683C80.8593 69.1464 79.9769 69.47 79.0945 69.7279C77.5685 70.1782 75.9391 70.4304 74.3956 70.0471C73.6253 69.8576 72.8827 69.5108 72.0905 69.4525C71.0713 69.3752 69.5555 69.3986 68.9031 70.1812C68.277 70.9288 68.21 72.0903 67.945 73.7226V73.7313C67.6596 76.1272 67.4645 78.9997 67.8241 80.9366Z" fill="#F8D1BE"/>
<path d="M78.8982 74.6786C79.1894 74.1204 80.0136 74.0956 80.5669 74.0854C81.2472 74.0514 81.9227 74.2165 82.5108 74.5605C82.8603 74.7733 82.6477 75.435 82.2458 75.3432C81.6634 75.2208 81.1013 75.0663 80.5087 75.11C80.0092 75.145 79.5593 75.4365 79.0715 75.2557C79.0193 75.2324 78.9727 75.1981 78.935 75.1552C78.8973 75.1122 78.8692 75.0617 78.8528 75.0069C78.8363 74.9521 78.8319 74.8944 78.8397 74.8378C78.8475 74.7811 78.8675 74.7268 78.8982 74.6786Z" fill="#1C2139"/>
<path d="M75.0073 74.7251C74.7278 74.1786 73.908 74.1276 73.3561 74.0897C72.682 74.0273 72.004 74.1571 71.4005 74.4643C71.0467 74.6523 71.2447 75.2862 71.6481 75.2221C72.2305 75.1274 72.794 75.0049 73.3852 75.0764C73.8818 75.1317 74.3259 75.4276 74.8151 75.276C74.8684 75.2579 74.9168 75.228 74.9567 75.1884C74.9966 75.1488 75.027 75.1006 75.0455 75.0475C75.064 74.9944 75.0702 74.9378 75.0636 74.8819C75.057 74.8261 75.0378 74.7724 75.0073 74.7251Z" fill="#1C2139"/>
<path d="M77.2438 80.9146C77.2458 80.9146 77.2477 80.9153 77.2491 80.9167C77.2506 80.9182 77.2513 80.9201 77.2513 80.9221C77.2513 80.924 77.2506 80.9259 77.2491 80.9274C77.2477 80.9288 77.2458 80.9296 77.2438 80.9296C77.2418 80.9296 77.2399 80.9288 77.2385 80.9274C77.2371 80.9259 77.2363 80.924 77.2363 80.9221C77.2363 80.9201 77.2371 80.9182 77.2385 80.9167C77.2399 80.9153 77.2418 80.9146 77.2438 80.9146Z" fill="#594E8A"/>
<path d="M85.3512 80.6027C85.5376 80.2311 85.74 79.8668 85.9599 79.5126C86.0866 79.3042 86.2394 78.9297 86.5132 78.9297C86.5227 78.9299 86.5319 78.9331 86.5395 78.9389C86.5471 78.9446 86.5527 78.9526 86.5554 78.9618C86.6515 79.2255 86.3588 79.5301 86.2307 79.7487C86.1987 79.8041 86.1681 79.8624 86.1361 79.9192L86.2191 79.9688C86.2894 79.9995 86.3521 80.0455 86.4024 80.1035C86.4528 80.1615 86.4897 80.23 86.5103 80.304C86.5099 80.3366 86.4967 80.3677 86.4735 80.3906C86.4504 80.4136 86.4191 80.4264 86.3865 80.4264C86.2652 80.3959 86.1523 80.3387 86.056 80.2588C86.0293 80.2437 86.0016 80.2305 85.973 80.2195C85.8691 80.4138 85.7687 80.6047 85.6716 80.7922C85.5595 80.9962 85.2464 80.8126 85.3512 80.6027Z" fill="#F68A73"/>
<path d="M66.7367 78.8963C67.0081 79.1423 67.2338 79.4344 67.4036 79.7591C67.5419 80.0039 67.7749 80.3537 67.6948 80.6437C67.6902 80.6599 67.682 80.6748 67.6707 80.6873C67.6595 80.6998 67.6456 80.7096 67.63 80.716C67.6144 80.7223 67.5976 80.725 67.5808 80.7238C67.564 80.7227 67.5478 80.7177 67.5332 80.7093C67.3541 80.5942 67.2624 80.3697 67.1677 80.1628C67.1185 80.1659 67.0698 80.1737 67.0221 80.1861C66.9499 80.2096 66.883 80.2472 66.8255 80.2969C66.7944 80.3239 66.7541 80.3382 66.7129 80.3367C66.6716 80.3353 66.6325 80.3182 66.6033 80.289C66.5741 80.2598 66.5571 80.2206 66.5556 80.1793C66.5542 80.1381 66.5684 80.0978 66.5955 80.0666C66.7034 79.9503 66.8509 79.8786 67.009 79.8655C66.8386 79.6061 66.6362 79.3743 66.4615 79.1178C66.3261 78.9313 66.5882 78.7739 66.7367 78.8963Z" fill="#F68A73"/>
<path d="M80.2796 77.7302C80.3014 77.5057 80.3611 77.2609 80.581 77.156C80.6857 77.112 80.8028 77.1081 80.9102 77.1449C81.0176 77.1817 81.1077 77.2567 81.1634 77.3556C81.2165 77.4484 81.2506 77.5508 81.2638 77.6569C81.2771 77.7629 81.2692 77.8706 81.2406 77.9735C81.2209 78.0569 81.189 78.137 81.146 78.2111C81.116 78.3244 81.0525 78.4259 80.964 78.5026C80.9205 78.5361 80.8704 78.5598 80.8169 78.572C80.7635 78.5843 80.708 78.5848 80.6543 78.5736C80.6007 78.5624 80.5501 78.5397 80.506 78.507C80.4619 78.4744 80.4254 78.4326 80.399 78.3845C80.294 78.1835 80.2524 77.9554 80.2796 77.7302Z" fill="#1C2139"/>
<path d="M73.1448 77.7302C73.1667 77.5057 73.2264 77.2609 73.4462 77.156C73.5509 77.112 73.668 77.1081 73.7754 77.1449C73.8828 77.1817 73.9729 77.2567 74.0287 77.3556C74.1352 77.5432 74.1629 77.7655 74.1059 77.9735C74.0855 78.0568 74.0537 78.1367 74.0112 78.2111C73.9812 78.3244 73.9178 78.4259 73.8292 78.5026C73.7858 78.5361 73.7356 78.5598 73.6822 78.572C73.6287 78.5843 73.5733 78.5848 73.5196 78.5736C73.4659 78.5624 73.4153 78.5397 73.3712 78.507C73.3271 78.4744 73.2906 78.4326 73.2642 78.3845C73.1593 78.1835 73.1176 77.9554 73.1448 77.7302Z" fill="#1C2139"/>
<path d="M50.8086 159.002C53.689 160.085 56.6336 160.989 59.6254 161.709C59.0224 159.052 58.5568 156.367 58.2304 153.662C56.601 140.234 57.0655 119.697 57.0655 119.697L50.8086 159.002Z" fill="#469FE8"/>
<path d="M76.5941 80.4789C76.7684 80.4418 76.9482 80.4373 77.1241 80.4658C77.2025 80.4709 77.2812 80.4665 77.3586 80.4527C77.4197 80.4401 77.4797 80.422 77.5377 80.3988C77.5158 80.3055 77.4809 80.2122 77.4518 80.1233C77.4008 79.9776 77.3557 79.8216 77.3178 79.6672C77.2435 79.3757 77.1824 79.0711 77.1372 78.7679C77.0921 78.4648 77.0557 78.1544 77.0368 77.8454C77.0178 77.5365 76.9814 77.21 77.1067 76.9244C77.1255 76.8926 77.1522 76.8664 77.1843 76.8481C77.2163 76.8299 77.2525 76.8203 77.2894 76.8203C77.3263 76.8203 77.3625 76.8299 77.3945 76.8481C77.4266 76.8664 77.4533 76.8926 77.4721 76.9244C77.5496 77.1559 77.5875 77.3988 77.5843 77.6429C77.6017 77.8658 77.6265 78.0873 77.6614 78.3089C77.7403 78.7887 77.8522 79.2625 77.9963 79.7269C78.0604 79.9455 78.1813 80.1831 78.1929 80.4119C78.206 80.68 77.9934 80.8389 77.7561 80.9118C77.3877 81.0284 76.8183 80.989 76.5242 80.7252C76.5055 80.7069 76.4921 80.6838 76.4853 80.6585C76.4786 80.6332 76.4789 80.6065 76.486 80.5813C76.4932 80.5561 76.507 80.5332 76.526 80.5152C76.545 80.4972 76.5685 80.4847 76.5941 80.4789Z" fill="#F68A73"/>
<path d="M74.6387 82.7161C74.8097 82.7261 74.9779 82.764 75.1367 82.8283C75.291 82.8735 75.441 82.9128 75.5939 82.9667C75.9239 83.0847 76.2656 83.1668 76.6132 83.2116C76.9551 83.2548 77.3002 83.266 77.6441 83.2451C77.8008 83.2386 77.9563 83.2166 78.1086 83.1795C78.2503 83.1268 78.3965 83.0872 78.5455 83.0615C78.5722 83.0617 78.5985 83.0681 78.6224 83.08C78.6463 83.0919 78.6671 83.1092 78.6834 83.1304C78.6997 83.1516 78.7109 83.1762 78.7163 83.2024C78.7217 83.2286 78.721 83.2556 78.7144 83.2815C78.5979 83.6386 78.1771 83.7187 77.8407 83.7654C77.4427 83.8304 77.0381 83.8446 76.6365 83.8076C76.2437 83.7703 75.8561 83.6906 75.4803 83.5701C75.2813 83.5077 75.0917 83.4185 74.9168 83.3048C74.748 83.2163 74.6035 83.0877 74.496 82.9303C74.4834 82.907 74.4774 82.8807 74.4787 82.8543C74.4799 82.8279 74.4883 82.8022 74.503 82.7802C74.5176 82.7582 74.538 82.7406 74.5619 82.7293C74.5858 82.718 74.6124 82.7134 74.6387 82.7161Z" fill="#F68A73"/>
<path d="M131.547 75.8358C131.221 74.9862 131.158 74.0607 131.119 73.1499C131.085 72.3556 131.074 71.5263 131.41 70.8079C129.914 72.0685 129.414 74.1904 129.527 76.1448C129.566 76.8356 129.673 77.5395 130.025 78.137C130.516 78.9837 132.115 79.8407 132.819 78.6894C133.434 77.6925 131.892 76.7408 131.547 75.8358Z" fill="#F68A73"/>
<path d="M49.5279 130.468C46.8355 126.789 31.306 121.236 25.2282 119.174C23.7167 118.656 22.7863 118.358 22.7863 118.358C21.2731 117.017 19.8416 115.587 18.4995 114.074C17.2909 112.699 16.3488 111.281 14.9771 110.062C14.517 110.072 14.1821 110.556 14.1646 111.008C14.1471 111.46 14.3612 111.912 14.5709 112.32C15.0528 113.258 15.5348 114.197 16.0066 115.148C13.7032 113.744 11.2817 112.544 8.76968 111.562C8.02124 111.27 7.13446 111.014 6.44863 111.444C6.37391 111.494 6.30242 111.549 6.23458 111.609C6.14088 111.702 6.05696 111.805 5.98413 111.916C5.90315 112.018 5.82873 112.124 5.76134 112.235C5.61573 112.468 5.47012 112.713 5.34926 112.964C5.275 113.11 5.20365 113.263 5.12648 113.424C4.9633 113.77 4.81751 114.124 4.68964 114.484C4.64013 114.618 4.59062 114.764 4.55277 114.896C4.5251 115.001 4.48724 115.121 4.47122 115.226C4.38166 115.545 4.35984 115.88 4.40715 116.208C4.48848 116.614 4.68811 116.987 4.98086 117.279C11.0106 122.889 15.8916 124.783 19.2945 125.2C19.2945 125.2 20.2104 125.811 21.7015 126.77C27.0993 130.248 40.0485 138.338 44.5785 138.987C50.3637 139.815 51.8577 133.654 49.5279 130.468Z" fill="#F8D1BE"/>
<path d="M9.25354 117.989C8.29978 117.712 7.39407 116.998 6.60486 116.413C5.94961 115.924 5.19679 115.393 4.62891 114.751C4.64144 114.683 4.65798 114.615 4.67841 114.549C4.70171 114.469 4.73083 114.379 4.76141 114.297C5.40793 114.78 5.98746 115.386 6.6267 115.877C7.50037 116.54 8.54295 117.043 9.35547 117.759C9.44138 117.836 9.38313 118.031 9.25354 117.989Z" fill="#F68A73"/>
<path d="M9.82188 116.667C8.84482 116.391 7.99299 115.884 7.15136 115.328C6.4233 114.847 5.62535 114.307 5.03125 113.65C5.07639 113.551 5.12153 113.459 5.16667 113.369C5.86269 113.792 6.49902 114.344 7.1732 114.793C8.06725 115.39 9.02683 115.871 9.89177 116.511C9.96021 116.558 9.90342 116.698 9.82188 116.667Z" fill="#F68A73"/>
<path d="M10.579 115.039C9.55247 114.668 8.59289 114.108 7.63622 113.582C6.93175 113.232 6.25079 112.836 5.59766 112.397C5.6423 112.329 5.69352 112.266 5.75055 112.209C6.56306 112.556 7.35228 113.024 8.12111 113.438C8.98313 113.889 9.86845 114.312 10.6897 114.85C10.7945 114.924 10.6766 115.07 10.579 115.039Z" fill="#F68A73"/>
<path d="M133.498 256.199C133.01 256.186 132.533 256.047 132.113 255.796C131.693 255.545 131.344 255.191 131.1 254.767C130.722 254.139 129.969 252.272 131.884 249.411C129.322 248.614 125.892 250.396 125.855 250.415C125.788 250.451 125.713 250.473 125.637 250.48C125.561 250.487 125.484 250.479 125.411 250.457C125.263 250.411 125.14 250.308 125.068 250.172C124.995 250.035 124.98 249.875 125.026 249.727C125.072 249.579 125.174 249.455 125.311 249.383C125.484 249.291 129.523 247.188 132.615 248.433C133.435 247.461 134.347 246.571 135.337 245.775C137.23 244.214 138.749 243.478 139.953 243.243C140.291 241.599 140.723 239.976 141.246 238.381C141.299 238.239 141.405 238.122 141.542 238.057C141.68 237.991 141.837 237.982 141.981 238.031C142.125 238.08 142.244 238.184 142.312 238.319C142.381 238.455 142.394 238.612 142.349 238.757C141.869 240.206 141.471 241.68 141.156 243.173C141.918 243.239 142.631 243.576 143.167 244.122C145.184 246.129 144.855 250.757 143.514 252.412C142.858 253.22 141.974 253.378 141.149 252.836C139.466 251.729 138.985 248.93 139.72 244.515C138.679 244.824 137.45 245.549 136.08 246.675C135.204 247.379 134.392 248.16 133.654 249.007C134.592 249.708 135.247 250.778 135.608 252.197C136.313 254.975 134.853 255.823 134.388 256.017C134.107 256.136 133.804 256.198 133.498 256.199ZM132.935 249.933C131.639 251.802 131.56 253.266 132.098 254.159C132.564 254.934 133.398 255.165 133.935 254.94C134.593 254.666 134.796 253.748 134.474 252.484C134.181 251.335 133.664 250.483 132.935 249.938V249.933ZM140.922 244.339C140.355 247.521 140.242 250.842 141.784 251.855C142.005 252.001 142.251 252.107 142.604 251.671C143.623 250.419 143.879 246.473 142.341 244.942C141.963 244.567 141.455 244.351 140.922 244.339Z" fill="#38AE83"/>
<path d="M112.944 41.274C112.836 41.2741 112.73 41.244 112.638 41.1871C112.546 41.1302 112.471 41.0488 112.423 40.952C107.593 31.2837 100.391 27.0311 95.1984 25.1657C89.5778 23.1457 85.0682 23.4168 85.0231 23.4168C84.8686 23.4267 84.7166 23.3747 84.6004 23.2724C84.4842 23.17 84.4134 23.0256 84.4035 22.871C84.3937 22.7164 84.4456 22.5642 84.5479 22.4479C84.6501 22.3316 84.7944 22.2608 84.9488 22.2509C85.141 22.2378 89.7468 21.9696 95.5931 24.0697C98.998 25.2866 102.161 27.0968 104.936 29.4168C108.389 32.3068 111.259 36.0129 113.465 40.4302C113.51 40.519 113.531 40.6177 113.526 40.7169C113.522 40.8161 113.492 40.9125 113.44 40.997C113.388 41.0816 113.315 41.1514 113.229 41.1998C113.142 41.2483 113.045 41.2739 112.946 41.274H112.944Z" fill="#F99A0B"/>
<path d="M117.4 38.298H117.364C117.287 38.2934 117.212 38.2737 117.144 38.2401C117.075 38.2066 117.013 38.1597 116.963 38.1024C116.912 38.045 116.873 37.9781 116.848 37.9057C116.823 37.8332 116.813 37.7566 116.818 37.6801C117.384 28.6079 102.955 19.2487 102.81 19.1554C102.68 19.0721 102.588 18.9405 102.555 18.7895C102.521 18.6385 102.55 18.4805 102.633 18.3502C102.716 18.2199 102.848 18.1281 102.998 18.0949C103.149 18.0617 103.307 18.0898 103.437 18.1731C106.103 19.9469 108.598 21.9648 110.891 24.2008C115.854 29.0641 118.239 33.6242 117.981 37.7544C117.971 37.9019 117.905 38.04 117.798 38.1409C117.69 38.2418 117.548 38.298 117.4 38.298Z" fill="#F99A0B"/>
<path d="M381.804 150.819C381.697 150.819 381.593 150.79 381.502 150.734C381.411 150.679 381.337 150.6 381.288 150.505C381.239 150.411 381.217 150.305 381.224 150.198C381.231 150.092 381.267 149.99 381.328 149.902C382.96 147.726 384.947 145.839 387.204 144.321C392.128 141.002 397.523 140.18 402.808 141.944C402.955 141.993 403.076 142.098 403.145 142.236C403.214 142.374 403.226 142.534 403.177 142.681C403.128 142.828 403.023 142.949 402.885 143.018C402.746 143.087 402.586 143.099 402.44 143.05C397.451 141.386 392.556 142.132 387.886 145.267C385.74 146.715 383.846 148.507 382.281 150.571C382.227 150.648 382.156 150.711 382.073 150.754C381.99 150.797 381.897 150.819 381.804 150.819Z" fill="#F99A0B"/>
<path d="M401.247 156.755C401.15 156.755 401.055 156.731 400.971 156.685C400.886 156.639 400.813 156.573 400.76 156.493C398.953 153.744 395.981 152.752 391.926 153.544C389.909 153.968 387.964 154.682 386.151 155.663C386.017 155.741 385.858 155.762 385.709 155.722C385.56 155.682 385.433 155.584 385.355 155.45C385.278 155.316 385.257 155.157 385.297 155.007C385.337 154.858 385.435 154.731 385.569 154.653C387.482 153.607 389.539 152.85 391.674 152.406C396.188 151.516 399.665 152.706 401.732 155.851C401.817 155.981 401.847 156.138 401.816 156.29C401.785 156.441 401.695 156.574 401.566 156.659C401.471 156.721 401.36 156.755 401.247 156.755Z" fill="#F99A0B"/>
<path d="M375.887 147.746C375.785 147.746 375.684 147.719 375.595 147.668C375.507 147.617 375.433 147.544 375.381 147.455C375.33 147.366 375.303 147.266 375.303 147.163C375.303 147.061 375.33 146.96 375.381 146.871C375.756 146.208 384.647 130.642 391.072 129.807C391.149 129.794 391.229 129.796 391.305 129.815C391.381 129.833 391.453 129.867 391.516 129.914C391.58 129.96 391.632 130.02 391.672 130.087C391.712 130.155 391.737 130.231 391.747 130.309C391.757 130.387 391.751 130.466 391.729 130.541C391.708 130.617 391.671 130.688 391.622 130.749C391.572 130.81 391.511 130.86 391.441 130.897C391.372 130.934 391.296 130.956 391.217 130.962C388.84 131.271 385.539 134.193 381.658 139.415C379.759 141.996 378 144.677 376.39 147.447C376.34 147.537 376.267 147.611 376.179 147.664C376.091 147.716 375.99 147.745 375.887 147.746Z" fill="#F99A0B"/>
<path d="M257.087 111.081C255.504 111.081 254.466 110.665 253.955 109.825C253.081 108.406 254.126 106.327 254.828 105.226C252.428 104.589 251.042 103.542 250.725 102.11C250.205 99.813 252.661 97.3121 253.889 96.2279C251.186 94.5621 249.882 92.8249 250.008 91.0571C250.231 87.9427 254.865 86.1166 255.061 86.0394C255.133 86.0117 255.209 85.9984 255.285 86.0002C255.362 86.0019 255.437 86.0187 255.507 86.0497C255.577 86.0806 255.64 86.125 255.693 86.1804C255.746 86.2357 255.787 86.301 255.815 86.3724C255.842 86.4437 255.856 86.5199 255.854 86.5964C255.852 86.673 255.835 86.7484 255.804 86.8184C255.774 86.8885 255.729 86.9517 255.674 87.0046C255.619 87.0575 255.553 87.0989 255.482 87.1266C254.33 87.574 251.31 89.1669 251.17 91.1416C251.07 92.5509 252.458 94.1045 255.185 95.6376C255.269 95.6849 255.341 95.7526 255.393 95.8344C255.444 95.9162 255.475 96.0096 255.482 96.1063C255.488 96.2029 255.471 96.2996 255.431 96.3878C255.39 96.4759 255.329 96.5527 255.252 96.6111C254.166 97.4375 251.44 99.9923 251.861 101.858C252.175 103.239 254.236 103.942 255.91 104.289C256.007 104.309 256.096 104.353 256.171 104.417C256.246 104.482 256.303 104.564 256.337 104.656C256.372 104.749 256.382 104.848 256.368 104.946C256.353 105.044 256.314 105.136 256.254 105.214C255.712 105.924 254.311 108.184 254.943 109.22C255.213 109.658 256.174 110.294 259.58 109.644C259.731 109.616 259.888 109.649 260.015 109.736C260.143 109.823 260.23 109.957 260.259 110.109C260.288 110.261 260.255 110.417 260.168 110.545C260.082 110.673 259.948 110.761 259.796 110.79C258.904 110.971 257.997 111.068 257.087 111.081Z" fill="#67B3FA"/>
<path d="M24.7526 85.6278C24.7209 85.6282 24.6892 85.6258 24.6579 85.6205C24.5056 85.5955 24.3695 85.511 24.2794 85.3856C24.1893 85.2601 24.1526 85.1041 24.1774 84.9516C24.4177 83.484 24.4919 81.585 23.4829 80.8709C22.2612 80.0125 19.7887 81.056 18.9398 81.5297C18.8501 81.5815 18.7482 81.6085 18.6446 81.6079C18.5411 81.6072 18.4395 81.5789 18.3505 81.5259C18.2615 81.4729 18.1882 81.3971 18.1382 81.3063C18.0882 81.2155 18.0633 81.113 18.0661 81.0094C18.1054 78.8364 17.7079 77.4461 16.9434 77.0949C15.9242 76.63 14.2074 77.8614 13.6817 78.3307C13.6097 78.3947 13.523 78.4399 13.4293 78.4622C13.3356 78.4844 13.2378 78.4831 13.1448 78.4582C13.0517 78.4334 12.9663 78.3858 12.8961 78.3198C12.8259 78.2538 12.7731 78.1715 12.7425 78.0801C11.7378 75.0647 10.2671 73.2707 8.37418 72.7402C5.2246 71.8658 1.81292 74.7368 1.77943 74.766C1.66203 74.8665 1.50955 74.9162 1.35553 74.9041C1.20152 74.8921 1.05859 74.8193 0.958177 74.7018C0.857769 74.5843 0.80811 74.4317 0.820125 74.2776C0.832141 74.1234 0.904846 73.9804 1.02225 73.8799C1.18388 73.7502 4.93483 70.5891 8.68579 71.621C10.8015 72.2039 12.444 73.9965 13.5783 76.9433C14.4739 76.3079 16.0843 75.4203 17.4371 76.0412C18.5524 76.5542 19.1422 77.8877 19.2295 80.1043C20.4439 79.587 22.6747 78.886 24.1512 79.9207C25.3583 80.7689 25.7529 82.5251 25.3278 85.1396C25.3053 85.276 25.2351 85.4 25.1298 85.4894C25.0244 85.5789 24.8907 85.6279 24.7526 85.6278Z" fill="#67B3FA"/>
<path d="M207.518 11.0729C209.243 11.0729 210.641 9.67335 210.641 7.94687C210.641 6.22039 209.243 4.8208 207.518 4.8208C205.793 4.8208 204.395 6.22039 204.395 7.94687C204.395 9.67335 205.793 11.0729 207.518 11.0729Z" fill="#67B3FA"/>
<path d="M368.2 57.8823C369.925 57.8823 371.323 56.4827 371.323 54.7562C371.323 53.0297 369.925 51.6301 368.2 51.6301C366.475 51.6301 365.076 53.0297 365.076 54.7562C365.076 56.4827 366.475 57.8823 368.2 57.8823Z" fill="#F99A0B"/>
<path d="M20.0687 163.111C21.7937 163.111 23.192 161.711 23.192 159.985C23.192 158.258 21.7937 156.859 20.0687 156.859C18.3437 156.859 16.9453 158.258 16.9453 159.985C16.9453 161.711 18.3437 163.111 20.0687 163.111Z" fill="#38AE83"/>
<path d="M242.203 153.982C241.698 153.982 241.205 153.832 240.785 153.551C240.365 153.27 240.038 152.871 239.845 152.405C239.651 151.938 239.601 151.424 239.699 150.928C239.798 150.433 240.041 149.978 240.398 149.62C240.755 149.263 241.21 149.02 241.705 148.921C242.2 148.823 242.713 148.873 243.18 149.067C243.646 149.26 244.045 149.587 244.325 150.007C244.606 150.428 244.755 150.922 244.755 151.427C244.755 152.104 244.486 152.754 244.007 153.233C243.529 153.712 242.88 153.981 242.203 153.982ZM242.203 150.038C241.928 150.038 241.66 150.119 241.432 150.272C241.204 150.425 241.026 150.642 240.921 150.895C240.816 151.149 240.788 151.428 240.842 151.698C240.895 151.967 241.028 152.215 241.222 152.409C241.416 152.603 241.663 152.735 241.932 152.789C242.201 152.843 242.48 152.815 242.734 152.71C242.988 152.605 243.204 152.427 243.357 152.198C243.509 151.97 243.591 151.702 243.591 151.427C243.59 151.059 243.443 150.706 243.183 150.446C242.923 150.185 242.571 150.039 242.203 150.038Z" fill="#F99A0B"/>
<path d="M412.624 181.071C412.119 181.071 411.625 180.922 411.205 180.641C410.785 180.36 410.458 179.961 410.265 179.493C410.071 179.026 410.021 178.512 410.119 178.017C410.218 177.521 410.461 177.065 410.818 176.708C411.176 176.35 411.631 176.107 412.126 176.008C412.621 175.909 413.135 175.96 413.602 176.154C414.068 176.347 414.467 176.675 414.748 177.095C415.028 177.515 415.178 178.01 415.178 178.515C415.177 179.193 414.908 179.843 414.429 180.322C413.951 180.801 413.301 181.071 412.624 181.071ZM412.624 177.126C412.349 177.126 412.081 177.208 411.852 177.361C411.624 177.514 411.446 177.731 411.341 177.985C411.236 178.239 411.208 178.519 411.262 178.788C411.316 179.058 411.448 179.306 411.643 179.5C411.837 179.695 412.085 179.827 412.354 179.881C412.624 179.934 412.903 179.906 413.157 179.801C413.411 179.695 413.627 179.517 413.78 179.288C413.932 179.059 414.014 178.79 414.013 178.515C414.013 178.146 413.867 177.793 413.607 177.532C413.346 177.271 412.993 177.124 412.624 177.123V177.126Z" fill="#38AE83"/>
<path d="M41.8553 249.722C41.3505 249.722 40.8569 249.573 40.4372 249.292C40.0174 249.011 39.6902 248.612 39.497 248.145C39.3038 247.678 39.2533 247.165 39.3518 246.669C39.4503 246.174 39.6934 245.718 40.0504 245.361C40.4073 245.004 40.8622 244.76 41.3573 244.662C41.8525 244.563 42.3657 244.614 42.8321 244.807C43.2986 245.001 43.6972 245.328 43.9777 245.748C44.2582 246.168 44.4079 246.662 44.4079 247.168C44.4067 247.845 44.1374 248.494 43.659 248.973C43.1805 249.452 42.5319 249.721 41.8553 249.722ZM41.8553 245.779C41.5809 245.779 41.3126 245.86 41.0844 246.013C40.8562 246.165 40.6783 246.382 40.5733 246.636C40.4682 246.89 40.4407 247.169 40.4943 247.439C40.5478 247.708 40.68 247.955 40.8741 248.15C41.0681 248.344 41.3154 248.476 41.5846 248.53C41.8538 248.583 42.1328 248.556 42.3863 248.451C42.6399 248.346 42.8566 248.168 43.0091 247.939C43.1616 247.711 43.243 247.442 43.243 247.168C43.2426 246.799 43.0963 246.446 42.8361 246.186C42.576 245.926 42.2232 245.779 41.8553 245.779Z" fill="#F99A0B"/>
<path d="M98.6614 55.9352C98.1562 55.9352 97.6624 55.7853 97.2424 55.5043C96.8223 55.2234 96.495 54.8241 96.3017 54.3569C96.1084 53.8897 96.0579 53.3757 96.1566 52.8798C96.2553 52.3839 96.4987 51.9284 96.856 51.5709C97.2133 51.2135 97.6686 50.9702 98.1641 50.8717C98.6596 50.7732 99.1732 50.8241 99.6398 51.0178C100.107 51.2115 100.505 51.5393 100.786 51.9599C101.066 52.3804 101.216 52.8748 101.215 53.3805C101.214 54.0579 100.945 54.7073 100.466 55.1862C99.9873 55.6651 99.3383 55.9345 98.6614 55.9352ZM98.6614 51.9901C98.3867 51.9901 98.1181 52.0717 97.8897 52.2244C97.6612 52.3772 97.4832 52.5943 97.3781 52.8484C97.2729 53.1024 97.2454 53.382 97.299 53.6517C97.3526 53.9214 97.4849 54.1691 97.6792 54.3636C97.8735 54.558 98.121 54.6904 98.3904 54.7441C98.6599 54.7977 98.9392 54.7702 99.193 54.665C99.4469 54.5597 99.6638 54.3815 99.8165 54.1529C99.9691 53.9242 100.051 53.6554 100.051 53.3805C100.05 53.0118 99.9037 52.6584 99.6433 52.3978C99.3829 52.1371 99.0298 51.9905 98.6614 51.9901Z" fill="#F99A0B"/>
<path d="M155.123 95.2521C156.848 95.2521 158.247 93.8525 158.247 92.1261C158.247 90.3996 156.848 89 155.123 89C153.398 89 152 90.3996 152 92.1261C152 93.8525 153.398 95.2521 155.123 95.2521Z" fill="#67B3FA"/>
<path fill-rule="evenodd" clip-rule="evenodd" d="M140.289 132.875L143.868 134.161L144.596 137.962L141.017 136.674L140.289 132.875Z" fill="#F99A0B"/>
<path fill-rule="evenodd" clip-rule="evenodd" d="M365.316 236.93L368.897 238.218L369.625 242.017L366.046 240.73L365.316 236.93Z" fill="#67B3FA"/>
<path fill-rule="evenodd" clip-rule="evenodd" d="M42.5784 38.199L41.7397 41.9109L38.0586 43.0914L38.9031 39.378L42.5784 38.199Z" fill="#38AE83"/>
<path fill-rule="evenodd" clip-rule="evenodd" d="M303.286 27.5967L301.685 23.6822L302.225 23.3062L305.283 26.2209L308.576 24.7111L308.971 25.2503L306.512 28.0339L307.937 31.6773L307.397 32.0533L304.528 29.4111L301.074 30.73L300.715 30.166L303.286 27.5967Z" fill="#F99A0B"/>
<path fill-rule="evenodd" clip-rule="evenodd" d="M264.42 236.159L262.819 232.246L263.359 231.868L266.417 234.783L269.71 233.272L270.105 233.812L267.657 236.6L269.083 240.244L268.544 240.62L265.674 237.977L262.223 239.289L261.863 238.725L264.42 236.159Z" fill="#38AE83"/>
</svg>
