<?xml version="1.0" encoding="UTF-8" standalone="no"?>
<!-- Generator: Adobe Illustrator 24.0.3, SVG Export Plug-In . SVG Version: 6.00 Build 0)  -->

<svg
   xmlns:dc="http://purl.org/dc/elements/1.1/"
   xmlns:cc="http://creativecommons.org/ns#"
   xmlns:rdf="http://www.w3.org/1999/02/22-rdf-syntax-ns#"
   xmlns:svg="http://www.w3.org/2000/svg"
   xmlns="http://www.w3.org/2000/svg"
   xmlns:sodipodi="http://sodipodi.sourceforge.net/DTD/sodipodi-0.dtd"
   xmlns:inkscape="http://www.inkscape.org/namespaces/inkscape"
   version="1.1"
   id="svg4"
   x="0px"
   y="0px"
   viewBox="0 0 120 120"
   style="enable-background:new 0 0 120 120;"
   xml:space="preserve"
   sodipodi:docname="favicon.svg"
   inkscape:version="0.92.5 (2060ec1f9f, 2020-04-08)"><metadata
   id="metadata3785"><rdf:RDF><cc:Work
       rdf:about=""><dc:format>image/svg+xml</dc:format><dc:type
         rdf:resource="http://purl.org/dc/dcmitype/StillImage" /></cc:Work></rdf:RDF></metadata><defs
   id="defs3783" /><sodipodi:namedview
   pagecolor="#ffffff"
   bordercolor="#666666"
   borderopacity="1"
   objecttolerance="10"
   gridtolerance="10"
   guidetolerance="10"
   inkscape:pageopacity="0"
   inkscape:pageshadow="2"
   inkscape:window-width="1920"
   inkscape:window-height="1043"
   id="namedview3781"
   showgrid="false"
   inkscape:zoom="5.008673"
   inkscape:cx="82.923066"
   inkscape:cy="54.795528"
   inkscape:window-x="1920"
   inkscape:window-y="0"
   inkscape:window-maximized="1"
   inkscape:current-layer="svg4" />
<style
   type="text/css"
   id="style3777">
	.st0{fill:#2DAB66;}
</style>
<path
   id="path2"
   class="st0"
   d="m 98.880509,70.642545 c -4.926856,2.597797 -10.749505,2.060321 -11.824455,-0.627055 -1.074951,-2.597797 2.508218,-4.747698 5.285173,-7.524653 2.776956,-2.776956 6.897599,-4.120644 9.943293,-1.612426 3.04569,2.508218 2.86653,6.539282 -3.404011,9.764134 z m -18.542896,7.435074 c -2.329059,2.508218 -4.658118,2.418639 -9.495396,2.508218 -2.23948,0.08958 -20.692796,0 -23.021856,-0.08958 -4.568539,-0.179159 -7.076757,-0.179159 -9.405816,-2.597797 -2.32906,-2.418639 -0.447897,-4.478961 2.866534,-4.478961 l 36.19,0.179159 c 3.40401,0.08958 5.285173,2.060321 2.866534,4.478961 z m -48.641509,-7.97255 c -0.985371,2.597797 -6.80802,3.135273 -11.734876,0.627055 -6.270545,-3.224852 -6.001807,-7.703812 -3.493589,-9.764134 2.508218,-2.060321 7.255916,-0.985371 9.943292,1.612426 2.687376,2.597797 6.180965,5.016436 5.285173,7.524653 z m 3.941485,-33.86094 c 4.747698,-2.866534 12.003614,-3.941485 24.007228,-3.941485 12.003613,0 20.961534,1.522847 25.97797,4.56854 5.016435,3.135272 7.703811,8.599604 8.062128,14.243094 -5.464331,1.881163 -57.061955,2.060321 -67.632301,0 1.881163,-6.360124 4.389381,-11.824456 9.584975,-14.870149 z M 113.5715,67.507272 c -0.80621,-3.941485 -2.32906,-7.793391 -4.56854,-11.107821 -0.89579,-1.343688 -1.88116,-2.597797 -3.04569,-3.672748 3.49359,-0.447896 4.2998,-3.135272 4.47896,-5.374752 0.17916,-2.23948 -3.0457,-2.32906 -5.46433,-2.23948 -1.88117,0.08958 -3.58317,0.806213 -4.92686,2.060321 C 98.79093,41.79804 96.193133,35.617075 89.564272,31.496431 86.160262,29.436109 82.397935,28.092421 78.45645,27.286208 76.396128,26.838312 74.067069,26.569575 71.558851,26.300837 69.050633,26.0321 64.123777,25.852941 59.644817,25.852941 c -4.478961,0 -7.97255,0.08958 -11.28698,0.447896 -2.239481,0.179159 -4.478961,0.627055 -6.718441,1.074951 -3.583168,0.716633 -6.987178,1.970742 -10.032871,3.762326 -5.64349,3.40401 -8.420446,9.674555 -11.107822,15.407624 -1.16453,-0.895792 -2.687376,-1.433267 -4.120643,-1.522847 -2.418639,-0.179158 -5.464332,0 -5.464332,2.239481 -0.08958,2.23948 -0.08958,4.568539 2.956114,5.285173 -1.16453,1.16453 -2.149901,2.418638 -3.135272,3.672747 -2.5082183,3.40401 -4.0310648,7.524654 -4.3893816,11.734877 -0.3583169,4.120643 1.0749505,8.151707 3.8519056,11.1974 0.08958,4.031065 0.179159,9.226659 0.268738,11.197401 0.179158,3.583169 2.060322,3.493589 8.689183,3.40401 4.120644,-0.08958 8.957921,0.985371 8.957921,-4.120643 0.08958,-1.254109 0,-2.508218 -0.08958,-3.672748 17.826263,3.135272 46.222871,3.672748 64.228292,0.268738 -0.08958,0.985371 -0.08958,2.060322 -0.08958,3.40401 0.179158,5.016435 4.837277,4.031064 9.047502,4.120643 6.53928,0.179159 8.51002,0.179159 8.68918,-3.40401 0.0896,-1.881163 0.0896,-6.897599 0.26874,-11.018242 2.86653,-3.314431 4.12064,-7.614233 3.40401,-11.824456 z"
   inkscape:connector-curvature="0"
   style="fill:#2dab66;stroke-width:0.89579207" />
</svg>