<svg viewBox="0 0 25 24" fill="none" xmlns="http://www.w3.org/2000/svg">
    <path fill-rule="evenodd" clip-rule="evenodd" d="M2.50586 12C2.50586 11.4477 2.95357 11 3.50586 11H21.5059C22.0581 11 22.5059 11.4477 22.5059 12C22.5059 12.5523 22.0581 13 21.5059 13H3.50586C2.95357 13 2.50586 12.5523 2.50586 12Z" fill="black"></path>
    <path fill-rule="evenodd" clip-rule="evenodd" d="M2.50586 6C2.50586 5.44772 2.95357 5 3.50586 5H21.5059C22.0581 5 22.5059 5.44772 22.5059 6C22.5059 6.55228 22.0581 7 21.5059 7H3.50586C2.95357 7 2.50586 6.55228 2.50586 6Z" fill="black"></path>
    <path fill-rule="evenodd" clip-rule="evenodd" d="M2.50586 18C2.50586 17.4477 2.95357 17 3.50586 17H21.5059C22.0581 17 22.5059 17.4477 22.5059 18C22.5059 18.5523 22.0581 19 21.5059 19H3.50586C2.95357 19 2.50586 18.5523 2.50586 18Z" fill="black"></path>
</svg>