<svg width="16" height="16" viewBox="0 0 16 16" fill="#37B587" xmlns="http://www.w3.org/2000/svg">
<path d="M16 8C16 12.4183 12.4183 16 8 16C3.58172 16 0 12.4183 0 8C0 3.58172 3.58172 0 8 0C12.4183 0 16 3.58172 16 8Z" fill=""/>
<path fill-rule="evenodd" clip-rule="evenodd" d="M12.4481 4.46219C12.7451 4.70968 12.7852 5.15108 12.5377 5.44807L7.53771 11.4481C7.40351 11.6091 7.2042 11.7015 6.99459 11.6999C6.78497 11.6983 6.58711 11.6029 6.45539 11.4398L3.45539 7.72549C3.21248 7.42474 3.25936 6.98401 3.56011 6.7411C3.86087 6.49819 4.30159 6.54507 4.54451 6.84582L7.00841 9.89636L11.4622 4.55182C11.7097 4.25482 12.1511 4.21469 12.4481 4.46219Z" fill="white"/>
</svg>
