<svg viewBox="0 0 24 24" fill="#4B7AF4" xmlns="http://www.w3.org/2000/svg"><path d="M11.7057 7.70568C11.3159 7.31594 10.6841 7.31594 10.2943 7.70568C9.90511 8.09489 9.9045 8.72572 10.293 9.11568L12.0001 10.8294C12.0629 10.8925 12.0182 11 11.9292 11H3C2.44771 11 2 11.4477 2 12C2 12.5523 2.44772 13 3 13H11.9286C12.0177 13 12.0623 13.1077 11.9993 13.1707L10.2946 14.8754C9.90506 15.2649 9.90434 15.8966 10.2925 16.2875C10.6826 16.6804 11.3181 16.6819 11.7096 16.2904L15.2929 12.7071C15.6834 12.3166 15.6834 11.6834 15.2929 11.2929L11.7057 7.70568ZM20 6C20 5.44772 19.5523 5 19 5H13C12.4477 5 12 4.55228 12 4C12 3.44772 12.4477 3 13 3H20C21.1 3 22 3.9 22 5V19C22 20.1 21.1 21 20 21H13C12.4477 21 12 20.5523 12 20C12 19.4477 12.4477 19 13 19H19C19.5523 19 20 18.5523 20 18V6Z" fill="inherit"></path></svg>