<svg viewBox="0 0 41 40" fill="#1E1F21" xmlns="http://www.w3.org/2000/svg"><path d="M8.09502 0.22168C4.04906 0.22168 0.79126 3.39803 0.79126 7.34283V32.1005C0.79126 36.0453 4.04906 39.2216 8.09502 39.2216H21.8575V23.9751H17.7225V18.4858H21.8575V13.7961C21.8575 10.1116 24.3007 6.72858 29.9288 6.72858C32.2075 6.72858 33.8925 6.94187 33.8925 6.94187L33.76 12.0679C33.76 12.0679 32.0415 12.0521 30.1663 12.0521C28.1367 12.0521 27.8113 12.9639 27.8113 14.4774V18.4859H33.9213L33.655 23.9751H27.8113V39.2217H33.4875C37.5335 39.2217 40.7913 36.0453 40.7913 32.1005V7.34287C40.7913 3.39807 37.5335 0.221719 33.4875 0.221719L8.09502 0.22168Z" fill="inherit"></path></svg>