<svg width="12" height="16" viewBox="0 0 12 16" fill="none" xmlns="http://www.w3.org/2000/svg">
<path d="M7.27034 0.259276C6.21636 -0.0733398 5.08746 -0.0862116 4.02618 0.222286C2.96489 0.530784 2.01881 1.14682 1.30737 1.99261L3.94441 4.21483L7.27034 0.259276Z" fill="#1A73E8"/>
<path d="M1.30738 1.99261C0.462544 2.9967 -0.000262149 4.26705 0.000717905 5.57928C-0.0119223 6.49785 0.176691 7.40804 0.55331 8.24594L3.94442 4.20891L1.30738 1.99261Z" fill="#EA4335"/>
<path d="M5.58294 3.44887C5.99011 3.44884 6.3888 3.56524 6.73199 3.78436C7.07517 4.00348 7.34853 4.31617 7.51983 4.68556C7.69113 5.05494 7.75322 5.46561 7.69878 5.86912C7.64434 6.27264 7.47564 6.65217 7.21257 6.96295L10.5341 3.01184C10.1958 2.36086 9.73249 1.78295 9.1707 1.31114C8.60891 0.839339 7.95963 0.4829 7.25998 0.262207L3.94739 4.21184C4.14678 3.97332 4.39602 3.7814 4.67757 3.64958C4.95912 3.51776 5.26614 3.44925 5.57702 3.44887" fill="#4285F4"/>
<path d="M5.58285 7.71704C5.1773 7.71566 4.78054 7.59878 4.439 7.38011C4.09746 7.16143 3.82528 6.84999 3.65431 6.48224C3.48333 6.11449 3.42065 5.70565 3.47358 5.30358C3.52652 4.9015 3.69289 4.52282 3.95322 4.21185L0.553223 8.24445C1.13396 9.53037 2.09693 10.563 3.08952 11.8637L7.21248 6.96296C7.01211 7.1997 6.76247 7.38984 6.48099 7.52009C6.19952 7.65033 5.893 7.71755 5.58285 7.71704Z" fill="#FBBC04"/>
<path d="M7.13105 13.1985C8.99327 10.2874 11.1636 8.96444 11.1636 5.57925C11.1644 4.68325 10.9484 3.80035 10.534 3.00592L3.09253 11.8637C3.40808 12.277 3.7266 12.7156 4.03623 13.197C5.1666 14.9511 4.85401 16 5.5829 16C6.31179 16 6.00068 14.9481 7.13105 13.1985Z" fill="#34A853"/>
</svg>
