<svg viewBox="0 0 40 40" fill="#1E1F21" xmlns="http://www.w3.org/2000/svg"><path d="M20.286 13.2189C16.7054 13.2189 13.7834 16.141 13.7834 19.7217C13.7834 23.3023 16.7054 26.2244 20.286 26.2244C23.8666 26.2244 26.7887 23.3023 26.7887 19.7217C26.7887 16.141 23.8666 13.2189 20.286 13.2189ZM39.7891 19.7217C39.7891 17.0289 39.8135 14.3604 39.6623 11.6725C39.511 8.55038 38.7988 5.77951 36.5158 3.49647C34.2279 1.20855 31.462 0.501193 28.3399 0.349966C25.6472 0.198739 22.9788 0.223131 20.2909 0.223131C17.5981 0.223131 14.9297 0.198739 12.2419 0.349966C9.11981 0.501193 6.34899 1.21342 4.06599 3.49647C1.77811 5.78439 1.07077 8.55038 0.919544 11.6725C0.76832 14.3653 0.792711 17.0337 0.792711 19.7217C0.792711 22.4096 0.76832 25.0829 0.919544 27.7709C1.07077 30.893 1.78299 33.6638 4.06599 35.9469C6.35386 38.2348 9.11981 38.9422 12.2419 39.0934C14.9346 39.2446 17.603 39.2202 20.2909 39.2202C22.9837 39.2202 25.652 39.2446 28.3399 39.0934C31.462 38.9422 34.2328 38.2299 36.5158 35.9469C38.8037 33.659 39.511 30.893 39.6623 27.7709C39.8184 25.0829 39.7891 22.4145 39.7891 19.7217ZM20.286 29.7271C14.7493 29.7271 10.2808 25.2585 10.2808 19.7217C10.2808 14.1848 14.7493 9.71629 20.286 9.71629C25.8228 9.71629 30.2912 14.1848 30.2912 19.7217C30.2912 25.2585 25.8228 29.7271 20.286 29.7271ZM30.701 11.6432C29.4083 11.6432 28.3643 10.5993 28.3643 9.30652C28.3643 8.01377 29.4083 6.96981 30.701 6.96981C31.9937 6.96981 33.0377 8.01377 33.0377 9.30652C33.038 9.61349 32.9779 9.91751 32.8606 10.2012C32.7433 10.4849 32.5712 10.7426 32.3541 10.9597C32.1371 11.1767 31.8793 11.3488 31.5956 11.4661C31.312 11.5834 31.0079 11.6436 30.701 11.6432Z" fill="inherit"></path></svg>