<svg viewBox="0 0 28 28" fill="#1E1F21" xmlns="http://www.w3.org/2000/svg"><path fill-rule="evenodd" clip-rule="evenodd" d="M28 14C28 21.732 21.732 28 14 28C6.26801 28 0 21.732 0 14C0 6.26801 6.26801 0 14 0C21.732 0 28 6.26801 28 14ZM14.0013 8.52383C14.8556 8.52383 15.5509 9.22821 15.5509 10.0947C15.5509 10.96 14.8556 11.6648 14.0013 11.6648C13.1472 11.6648 12.4517 10.96 12.4517 10.0947C12.4517 9.22821 13.1472 8.52383 14.0013 8.52383ZM14.0007 13.8868C16.0647 13.8868 17.7433 12.1857 17.7433 10.0941C17.7433 8.00163 16.0647 6.29982 14.0007 6.29982C11.9368 6.29982 10.258 8.00163 10.258 10.0941C10.258 12.1857 11.9368 13.8868 14.0007 13.8868ZM15.5143 16.9816C16.2762 16.8057 17.0111 16.5002 17.6876 16.0691C18.1999 15.742 18.3542 15.0558 18.0316 14.5366C17.7091 14.0164 17.0324 13.86 16.5196 14.1873C14.9865 15.1643 13.0128 15.1638 11.4807 14.1873C10.9677 13.86 10.2912 14.0164 9.96893 14.5366C9.64624 15.0562 9.80031 15.742 10.3124 16.0691C10.9889 16.4997 11.7239 16.8057 12.4855 16.9816L10.3935 19.1027C9.96557 19.5367 9.96557 20.2402 10.3939 20.6745C10.6082 20.8912 10.8884 20.9998 11.1687 20.9998C11.4498 20.9998 11.7304 20.8912 11.9444 20.6745L13.9999 18.5902L16.0569 20.6745C16.4844 21.1085 17.1786 21.1085 17.6065 20.6745C18.0356 20.2402 18.0356 19.5363 17.6065 19.1027L15.5143 16.9816Z" fill="inherit"></path></svg>