<svg width="16" height="16" viewBox="0 0 16 16" fill="none" xmlns="http://www.w3.org/2000/svg">
<path d="M0 8C0 12.4267 3.57333 16 8 16C12.4267 16 16 12.4267 16 8C16 3.57333 12.4267 0 8 0C3.57333 0 0 3.57333 0 8ZM2.77333 8C2.77333 5.22667 4.90667 2.98667 7.62667 2.77333V5.54667C6.45333 5.70667 5.54667 6.72 5.54667 7.94667C5.54667 9.28 6.61333 10.4 8 10.4C9.38667 10.4 10.4533 9.33333 10.4533 7.94667C10.4533 6.72 9.54667 5.70667 8.37333 5.54667V2.77333C11.0933 2.93333 13.2267 5.22667 13.2267 8C13.2267 10.88 10.88 13.2267 8 13.2267C5.12 13.2267 2.77333 10.88 2.77333 8ZM6.93333 1.38667C6.93333 0.8 7.41333 0.32 8 0.32C8.58667 0.32 9.06667 0.8 9.06667 1.38667C9.06667 1.97333 8.58667 2.45333 8 2.45333C7.41333 2.45333 6.93333 1.97333 6.93333 1.38667Z" fill="#B74746"/>
</svg>
