<svg viewBox="0 0 16 16" fill="none" xmlns="http://www.w3.org/2000/svg"><path d="M14.23 10.6289C13.2733 10.6289 12.3478 10.4733 11.4844 10.1933C11.2122 10.1 10.9089 10.17 10.6989 10.38L9.47778 11.9122C7.27667 10.8622 5.21556 8.87889 4.11889 6.6L5.63556 5.30889C5.84556 5.09111 5.90778 4.78778 5.82222 4.51556C5.53444 3.65222 5.38667 2.72667 5.38667 1.77C5.38667 1.35 5.03667 1 4.61667 1H1.92556C1.50556 1 1 1.18667 1 1.77C1 8.99556 7.01222 15 14.23 15C14.7822 15 15 14.51 15 14.0822V11.3989C15 10.9789 14.65 10.6289 14.23 10.6289Z" fill="#46474A"></path></svg>