<svg width="16" height="16" viewBox="0 0 16 16" fill="none" xmlns="http://www.w3.org/2000/svg">
<path fill-rule="evenodd" clip-rule="evenodd" d="M0.5 8C0.5 3.85786 3.85786 0.5 8 0.5C12.1421 0.5 15.5 3.85786 15.5 8C15.5 12.1421 12.1421 15.5 8 15.5C3.85786 15.5 0.5 12.1421 0.5 8ZM7.4945 4.61525C7.35765 4.74834 7.27335 4.9302 7.27335 5.13072C7.27335 5.53864 7.62222 5.86932 8.05257 5.86932C8.48292 5.86932 8.83179 5.53864 8.83179 5.13072C8.83179 4.93008 8.74739 4.74813 8.6104 4.61502C8.46888 4.47751 8.27124 4.39213 8.05257 4.39213C7.83399 4.39227 7.63592 4.47772 7.4945 4.61525ZM8.60074 11.4053C8.74341 11.2641 8.83179 11.0681 8.83179 10.8515V7.15851C8.83179 6.72816 8.48292 6.37929 8.05257 6.37929C7.62222 6.37929 7.27335 6.72816 7.27335 7.15851V10.8515C7.27335 11.0682 7.36182 11.2643 7.50463 11.4055C7.64539 11.5448 7.83894 11.6307 8.05257 11.6307C8.26609 11.6306 8.46007 11.5445 8.60074 11.4053ZM8 1.86364C4.61098 1.86364 1.86364 4.61098 1.86364 8C1.86364 11.389 4.61098 14.1364 8 14.1364C11.389 14.1364 14.1364 11.389 14.1364 8C14.1364 4.61098 11.389 1.86364 8 1.86364Z" fill="#9FA3AD"/>
</svg>
