<svg viewBox="0 0 41 40" fill="#1E1F21" xmlns="http://www.w3.org/2000/svg"><path d="M26.9304 0.22168H14.6521C3.44743 0.22168 0.79126 2.81144 0.79126 13.736V25.7074C0.79126 36.6319 3.44743 39.2217 14.6521 39.2217H26.9304C38.1351 39.2217 40.7913 36.6319 40.7913 25.7074V13.736C40.7913 2.81144 38.1088 0.22168 26.9304 0.22168ZM33.0827 28.0424H30.1791C29.0791 28.0424 28.7404 27.1918 26.7617 25.237C25.043 23.6124 24.2818 23.3967 23.858 23.3967C23.2593 23.3967 23.0893 23.5612 23.0893 24.3619V26.92C23.0893 27.6061 22.8681 28.0181 21.0056 28.0181C17.9257 28.0181 14.5083 26.2022 12.1122 22.819C8.49852 17.8613 7.5098 14.1479 7.5098 13.3801C7.5098 12.967 7.67854 12.5806 8.49227 12.5806H11.4022C12.1384 12.5806 12.4184 12.9109 12.7046 13.6787C14.1433 17.7285 16.5395 21.2761 17.5282 21.2761C17.8932 21.2761 18.062 21.1116 18.062 20.2037V16.0211C17.9507 14.0918 16.9095 13.9261 16.9095 13.2412C16.9095 12.9109 17.1895 12.5806 17.6382 12.5806H22.2143C22.8331 12.5806 23.0606 12.9109 23.0606 13.6214V19.2641C23.0606 19.8734 23.3406 20.0891 23.5093 20.0891C23.8743 20.0891 24.1868 19.8734 24.863 19.2129C26.9529 16.9278 28.4504 13.4045 28.4504 13.4045C28.6454 12.9913 28.9841 12.605 29.7204 12.605H32.6303C33.5027 12.605 33.6977 13.0425 33.5027 13.6519C33.1377 15.302 29.5766 20.2025 29.5766 20.2025C29.2704 20.6973 29.1529 20.913 29.5766 21.465C29.8891 21.8782 30.9053 22.7349 31.5815 23.5027C32.8253 24.8799 33.7815 26.0352 34.0365 26.8347C34.3227 27.6281 33.9002 28.0412 33.079 28.0412L33.0827 28.0424Z" fill="inherit"></path></svg>