<svg width="14" height="16" viewBox="0 0 14 16" fill="none" xmlns="http://www.w3.org/2000/svg">
<path fill-rule="evenodd" clip-rule="evenodd" d="M6.80704 0C5.54391 0.00401297 4.31022 0.381707 3.26134 1.08551C2.21246 1.78932 1.39529 2.78776 0.912763 3.95509C0.430233 5.12242 0.303917 6.40644 0.549724 7.64542C0.795532 8.8844 1.40247 10.0229 2.2941 10.9176C3.45174 12.0753 6.18116 13.7412 6.34116 15.5106C6.34116 15.6354 6.39074 15.7551 6.47899 15.8433C6.56724 15.9316 6.68694 15.9812 6.81174 15.9812C6.93655 15.9812 7.05625 15.9316 7.1445 15.8433C7.23275 15.7551 7.28233 15.6354 7.28233 15.5106C7.44704 13.7506 10.167 12.0753 11.3247 10.9176C12.2189 10.0235 12.8279 8.8844 13.0749 7.64422C13.3218 6.40404 13.1956 5.11848 12.7121 3.95004C12.2286 2.7816 11.4096 1.78271 10.3585 1.07964C9.30746 0.376559 8.07156 0.000852249 6.80704 0V0Z" fill="#FF4433"/>
<path opacity="0.25" fill-rule="evenodd" clip-rule="evenodd" d="M6.80702 8.63999C7.25098 8.63999 7.68497 8.50834 8.05411 8.26169C8.42325 8.01503 8.71096 7.66446 8.88086 7.25429C9.05076 6.84413 9.09521 6.39279 9.0086 5.95736C8.92198 5.52193 8.7082 5.12196 8.39427 4.80803C8.08034 4.49411 7.68037 4.28032 7.24494 4.19371C6.80951 4.10709 6.35818 4.15155 5.94801 4.32144C5.53784 4.49134 5.18727 4.77905 4.94062 5.14819C4.69397 5.51733 4.56232 5.95132 4.56232 6.39528C4.56232 6.99061 4.79881 7.56156 5.21978 7.98253C5.64074 8.40349 6.21169 8.63999 6.80702 8.63999V8.63999Z" fill="black"/>
</svg>
