<svg width="119" height="149" viewBox="0 0 119 149" fill="none" xmlns="http://www.w3.org/2000/svg">
<g clip-path="url(#clip0_34_269)">
<path d="M33.3617 101.741C40.9936 94.1095 40.9936 81.7356 33.3617 74.1037C25.7297 66.4717 13.3559 66.4717 5.72399 74.1037C-1.90794 81.7356 -1.90794 94.1095 5.72399 101.741C13.3559 109.373 25.7297 109.373 33.3617 101.741Z" fill="#FFC400"/>
<path d="M31.1255 99.5065C37.5227 93.1092 37.5227 82.7372 31.1255 76.34C24.7282 69.9427 14.3562 69.9427 7.95898 76.34C1.56173 82.7372 1.56173 93.1092 7.95897 99.5065C14.3562 105.904 24.7282 105.904 31.1255 99.5065Z" fill="#FFAB00"/>
<path d="M30.1737 98.5547C36.0454 92.6831 36.0453 83.1633 30.1737 77.2916C24.3021 71.42 14.7822 71.42 8.9106 77.2916C3.03896 83.1633 3.03896 92.6831 8.9106 98.5547C14.7822 104.426 24.3021 104.426 30.1737 98.5547Z" fill="#FFE380"/>
<path d="M14.8147 76.1608C14.627 75.7168 14.2108 75.5827 13.7618 75.6433C13.6625 75.6572 13.5632 75.6801 13.4639 75.691C13.732 75.6622 13.0149 75.7585 13.1659 75.7158C12.9178 75.7927 12.68 75.8995 12.4577 76.0337C12.0826 76.2731 11.7248 76.5387 11.3869 76.8283C10.8111 77.2745 10.2638 77.7562 9.74799 78.2706C9.2129 78.8125 8.73524 79.4084 8.32264 80.0486C8.1003 80.4002 7.919 80.7761 7.78229 81.169C7.59854 81.6924 7.56775 82.1474 7.92632 82.6023C8.08326 82.8009 8.39415 82.8397 8.62162 82.7861C9.08945 82.6778 9.30003 82.2815 9.53345 81.908C9.70826 81.6279 9.89202 81.3478 10.0857 81.0796L10.1761 80.9604L10.2585 80.8611C10.3658 80.7319 10.4764 80.6064 10.5903 80.4846C10.8197 80.2363 11.0631 80.0019 11.3124 79.7734C11.7991 79.3294 12.2997 78.9063 12.8182 78.499L12.8858 78.4484C12.9523 78.3977 13.0189 78.349 13.0844 78.2984C13.2463 78.1802 13.4152 78.0729 13.5811 77.9607C13.7181 77.8663 13.8532 77.768 13.9883 77.6706C14.1018 77.6094 14.1988 77.5219 14.2714 77.4153C14.3379 77.3707 14.4253 77.2962 14.4462 77.2832C14.6327 77.1721 14.7727 76.9972 14.8404 76.791C14.9081 76.5847 14.899 76.3609 14.8147 76.1608Z" fill="#FFF0B2"/>
<path d="M21.3256 93.4369H18.0418V95.4403H14.9428V93.4369H12.8459V90.9269H14.9428V90.1422H12.8459V87.6322H14.9428V80.4021H20.7892C21.9149 80.4021 22.9062 80.6054 23.7631 81.012C24.5802 81.3868 25.2705 81.9915 25.7497 82.7522C26.2268 83.5258 26.4722 84.42 26.4569 85.3288C26.4569 86.816 25.9526 87.9901 24.9441 88.8509C23.9356 89.7118 22.5328 90.1422 20.7356 90.1422H18.0418V90.9269H21.3256V93.4369ZM18.0418 87.6322H20.7167C22.4516 87.6322 23.3191 86.8707 23.3191 85.3477C23.3191 84.6245 23.0989 84.0408 22.6586 83.5965C22.2182 83.1522 21.6087 82.9267 20.8299 82.9201H18.0418V87.6322Z" fill="#FFC400"/>
<path d="M36.0694 30.7741C40.0904 26.7531 40.0904 20.2338 36.0694 16.2128C32.0484 12.1919 25.5291 12.1919 21.5082 16.2128C17.4872 20.2338 17.4872 26.7531 21.5082 30.7741C25.5291 34.795 32.0484 34.795 36.0694 30.7741Z" fill="#FFC400"/>
<path d="M34.8916 29.5962C38.262 26.2258 38.262 20.7612 34.8916 17.3907C31.5211 14.0202 26.0565 14.0202 22.686 17.3907C19.3156 20.7612 19.3156 26.2258 22.686 29.5962C26.0565 32.9667 31.5211 32.9667 34.8916 29.5962Z" fill="#FFAB00"/>
<path d="M34.3899 29.0947C37.4834 26.0012 37.4834 20.9857 34.3899 17.8922C31.2964 14.7987 26.2808 14.7987 23.1873 17.8922C20.0938 20.9857 20.0938 26.0012 23.1873 29.0947C26.2808 32.1882 31.2964 32.1882 34.3899 29.0947Z" fill="#FFE380"/>
<path d="M26.2982 17.296C26.1989 17.0616 25.9794 16.9911 25.743 17.0228C25.6913 17.0298 25.6436 17.0427 25.588 17.0487C25.729 17.0328 25.3516 17.0834 25.4311 17.0616C25.3006 17.1019 25.1755 17.158 25.0586 17.2285C24.8609 17.3547 24.6723 17.4947 24.4944 17.6476C24.1902 17.8817 23.901 18.1344 23.6283 18.4045C23.3466 18.6902 23.095 19.0041 22.8773 19.3412C22.7605 19.5268 22.6652 19.725 22.5933 19.9322C22.4939 20.2073 22.48 20.4477 22.6687 20.6871C22.7151 20.7352 22.7737 20.7699 22.8383 20.7874C22.9028 20.8049 22.9709 20.8046 23.0353 20.7864C23.2816 20.7298 23.3928 20.5212 23.516 20.3235C23.6074 20.1765 23.7047 20.0255 23.807 19.8875L23.8547 19.8249C23.8706 19.805 23.8935 19.7762 23.8984 19.7713C23.9541 19.7027 24.0127 19.6372 24.0723 19.5726C24.1934 19.4415 24.3216 19.3183 24.4527 19.1981C24.7089 18.9637 24.9732 18.7412 25.2473 18.5267L25.2831 18.4999L25.3884 18.4204C25.4738 18.3588 25.5632 18.3022 25.6506 18.2426C25.7221 18.1929 25.7936 18.1433 25.8651 18.0896C25.9249 18.0576 25.976 18.0116 26.0141 17.9555C26.0489 17.9317 26.0956 17.893 26.1065 17.886C26.2041 17.8271 26.2771 17.7351 26.3123 17.6267C26.3475 17.5184 26.3425 17.401 26.2982 17.296Z" fill="#FFF0B2"/>
<path d="M29.728 26.3974H27.9977V27.4533H26.3658V26.3974H25.2612V25.0754H26.3658V24.6622H25.2612V23.3421H26.3658V19.5299H29.4449C29.9846 19.5184 30.5199 19.6284 31.0113 19.8517C31.4424 20.0488 31.8066 20.3674 32.0592 20.7685C32.3106 21.1762 32.4398 21.6474 32.4317 22.1263C32.4317 22.9104 32.1668 23.5288 31.6371 23.9818C31.1073 24.4347 30.368 24.6615 29.4191 24.6622H27.9987V25.0754H29.729L29.728 26.3974ZM27.9977 23.3421H29.4072C30.3217 23.3421 30.7789 22.9415 30.7789 22.1402C30.7863 21.9708 30.7592 21.8017 30.6992 21.6431C30.6393 21.4845 30.5478 21.3397 30.4303 21.2175C30.1978 20.9831 29.8767 20.8642 29.4668 20.8609H27.9977V23.3421Z" fill="#FFC400"/>
<path d="M57.5607 20.4546L56.9935 22.8782L50.1925 33.4079L47.7917 20.4248L49.1655 19.9788L49.3015 16.9821L49.3244 16.3861L49.3999 14.6339L55.7182 15.7593L55.8016 17.2691L55.8165 17.5482L55.9595 20.0543L57.5607 20.4546Z" fill="#F8D1BE"/>
<path d="M55.8014 17.2691C55.0068 17.8353 54.0135 18.1819 52.7441 18.1819C51.6793 18.1819 50.7963 17.9326 50.0712 17.5254C50.0631 17.5173 50.0527 17.5121 50.0414 17.5105C49.7783 17.3585 49.5305 17.1815 49.3014 16.982L49.3242 16.3861L49.3997 14.6349L55.723 15.7593L55.8014 17.2691Z" fill="#F68A73"/>
<path d="M45.9641 9.77681C45.9641 9.77681 45.5559 6.86848 46.0803 4.42601C46.6048 1.98353 47.0507 0.581018 49.9154 0.224431C52.78 -0.132157 56.769 -0.290089 57.944 1.54947C59.1191 3.38902 59.6475 7.01251 58.8469 10.1632C58.0464 13.3139 47.1431 10.493 47.1431 10.493L45.9641 9.77681Z" fill="#260E14"/>
<path d="M58.5338 9.70832C58.5338 9.70832 58.4881 9.70832 58.4057 9.71627C58.3977 9.96459 58.3977 10.206 58.3977 10.4483C58.3749 10.6599 58.352 10.8784 58.3143 11.0751C58.3088 11.1762 58.2911 11.2762 58.2617 11.3731C58.1415 12.0684 58.1107 12.6782 57.8922 13.3427C57.6657 14.0221 57.3786 14.7015 56.9565 15.2836L56.8502 15.4415C56.573 15.7829 56.2532 16.0873 55.8986 16.3474C55.0911 16.9513 54.0651 17.3288 52.744 17.3288C51.6792 17.3288 50.7962 17.0795 50.0711 16.6722C50.063 16.6641 50.0526 16.6589 50.0413 16.6573C49.546 16.3713 49.1041 16.0016 48.7351 15.5647C48.7272 15.5419 48.7053 15.527 48.6974 15.5111C47.7041 14.3191 47.1955 12.7408 46.9383 11.375C46.8527 10.8077 46.8125 10.2344 46.8181 9.66064C46.8181 9.54046 46.825 9.41928 46.833 9.29909C46.833 9.29114 46.825 9.29114 46.8181 9.2832C46.8111 9.27525 46.825 9.2385 46.8479 9.14811C46.8807 8.74756 46.9488 8.35069 47.0515 7.96213C47.2402 6.92118 47.3157 6.49804 47.4061 6.0451C47.565 5.27531 47.7458 3.72778 49.5277 3.45562C51.3097 3.18346 55.5599 3.05831 57.1224 3.9165C58.6848 4.7747 58.5338 9.70832 58.5338 9.70832Z" fill="#F8D1BE"/>
<path d="M53.2152 11.3731C53.2165 11.3731 53.2178 11.3736 53.2187 11.3745C53.2196 11.3755 53.2201 11.3767 53.2201 11.378C53.2201 11.3794 53.2196 11.3806 53.2187 11.3815C53.2178 11.3825 53.2165 11.383 53.2152 11.383C53.2139 11.383 53.2126 11.3825 53.2117 11.3815C53.2107 11.3806 53.2102 11.3794 53.2102 11.378C53.2102 11.3767 53.2107 11.3755 53.2117 11.3745C53.2126 11.3736 53.2139 11.3731 53.2152 11.3731Z" fill="#594E8A"/>
<path d="M46.9681 9.144C46.9681 9.144 46.2321 7.72659 45.3143 8.4487C44.5992 9.01189 45.1931 12.4725 47.4062 12.392L46.9681 9.144Z" fill="#F8D1BE"/>
<path d="M46.1547 9.63484C46.3355 9.79784 46.4855 9.99196 46.5977 10.208C46.6901 10.3699 46.845 10.6053 46.7884 10.796C46.7853 10.8067 46.7799 10.8166 46.7724 10.825C46.765 10.8333 46.7558 10.8398 46.7454 10.844C46.7351 10.8482 46.7239 10.85 46.7128 10.8493C46.7016 10.8485 46.6908 10.8453 46.6811 10.8397C46.5619 10.7622 46.5003 10.6132 46.4378 10.4762C46.4042 10.4781 46.3709 10.4834 46.3384 10.492C46.29 10.507 46.2453 10.532 46.2073 10.5655C46.1868 10.5844 46.1597 10.5946 46.1318 10.5939C46.104 10.5933 46.0774 10.582 46.0577 10.5623C46.038 10.5425 46.0266 10.516 46.026 10.4881C46.0254 10.4602 46.0355 10.4332 46.0544 10.4126C46.126 10.335 46.2242 10.2871 46.3295 10.2785C46.2163 10.1057 46.0812 9.9517 45.965 9.78185C45.8816 9.6547 46.0554 9.55041 46.1547 9.63484Z" fill="#F68A73"/>
<path d="M58.3821 9.144C58.3821 9.144 59.1182 7.72659 60.036 8.4487C60.7511 9.01189 60.1571 12.4725 57.9441 12.392L58.3821 9.144Z" fill="#F8D1BE"/>
<path d="M59.1994 9.63484C59.0189 9.79788 58.8692 9.992 58.7574 10.208C58.664 10.3699 58.5091 10.6053 58.5657 10.796C58.5688 10.8067 58.5742 10.8166 58.5817 10.825C58.5891 10.8333 58.5984 10.8398 58.6087 10.844C58.619 10.8482 58.6302 10.85 58.6413 10.8493C58.6525 10.8485 58.6633 10.8453 58.673 10.8397C58.7922 10.7622 58.8537 10.6132 58.9163 10.4762C58.9499 10.4781 58.9832 10.4834 59.0156 10.492C59.0641 10.507 59.1087 10.532 59.1467 10.5655C59.1673 10.5844 59.1944 10.5946 59.2222 10.5939C59.2501 10.5933 59.2767 10.582 59.2964 10.5623C59.3161 10.5425 59.3275 10.516 59.3281 10.4881C59.3287 10.4602 59.3185 10.4332 59.2997 10.4126C59.2283 10.3352 59.1305 10.2873 59.0256 10.2785C59.1378 10.1057 59.2729 9.9517 59.3891 9.78185C59.4695 9.6547 59.2987 9.55041 59.1994 9.63484Z" fill="#F68A73"/>
<path d="M112.727 34.8641C112.727 34.7976 112.706 34.7191 112.696 34.6506C112.68 34.5652 112.658 34.4688 112.635 34.3814C112.575 34.1461 112.502 33.914 112.418 33.6861C112.383 33.5798 112.344 33.4805 112.306 33.3822C112.24 33.2193 112.165 33.0554 112.089 32.8984C112.053 32.8238 112.012 32.7518 111.966 32.6829C111.927 32.608 111.88 32.5374 111.826 32.4723C111.787 32.4312 111.745 32.3924 111.701 32.3561C111.292 32.0412 110.715 32.1495 110.222 32.2905C108.571 32.7599 106.963 33.3728 105.419 34.1222C105.775 33.548 106.138 32.9829 106.5 32.4177C106.657 32.1753 106.818 31.9101 106.836 31.6151C106.854 31.3201 106.67 31.0013 106.379 30.9675C105.436 31.6558 104.752 32.4961 103.904 33.2938C102.847 34.272 101.729 35.1814 100.556 36.0163L95.5038 37.7854L97.6542 42.576L102.202 40.2726C104.38 40.353 107.765 39.5822 112.281 36.1286C112.485 35.9615 112.633 35.7373 112.708 35.4849C112.758 35.2816 112.765 35.0701 112.727 34.8641Z" fill="#F8D1BE"/>
<path d="M55.8075 138.82L54.8519 135.161C54.4119 135.332 50.4309 140.811 45.679 140.569C44.1802 142.648 41.7764 145.82 40.2259 147.025C37.8242 148.891 40.2835 149.66 43.0369 148.326C45.0751 147.34 51.3864 143.705 54.5252 141.886C55.0444 141.585 55.4508 141.122 55.6823 140.569C55.9139 140.015 55.9578 139.401 55.8075 138.82Z" fill="#1E1F21"/>
<path d="M54.8518 135.16L53.2049 128.886L44.0925 131.384L47.0317 138.629C47.0317 138.629 46.4883 139.436 45.6788 140.569C50.4307 140.811 54.4117 135.332 54.8518 135.16Z" fill="#F8D1BE"/>
<path d="M96.1305 103.537L92.5547 102.301C92.4554 102.762 94.7995 109.114 91.9587 112.929C92.8527 115.33 94.1589 119.087 94.3029 121.051C94.5204 124.084 96.5259 122.465 96.946 119.436C97.2569 117.193 97.7406 109.925 97.9681 106.305C98.0059 105.706 97.8467 105.112 97.5149 104.612C97.1831 104.112 96.6969 103.735 96.1305 103.537Z" fill="#1E1F21"/>
<path d="M92.5567 102.301L86.4232 100.186L83.4434 109.151L91.1005 110.73C91.1005 110.73 91.471 111.63 91.9637 112.932C94.8015 109.114 92.4554 102.762 92.5567 102.301Z" fill="#F8D1BE"/>
<path d="M35.3689 61.2904C35.3689 62.0383 28.3167 89.0754 29.4202 97.9206C30.5237 106.766 44.0929 135.35 44.0929 135.35C44.0929 135.35 48.8607 135.762 54.8521 131.032L45.416 97.0207L52.0839 61.2238L41.565 57.6619L35.3689 61.2904Z" fill="#56ADF4"/>
<path d="M46.2738 60.4519C46.4446 61.5565 46.5052 94.3466 50.7942 101.264C55.0832 108.181 86.4381 111.213 86.4381 111.213C86.4381 111.213 89.4745 106.792 88.9094 99.8087C88.9094 99.8087 68.3127 93.41 63.7416 91.3539C63.7416 91.3539 66.5457 73.9615 65.5544 66.6023L46.2738 60.4519Z" fill="#67B3FA"/>
<path d="M50.7389 8.42701C50.7027 8.42163 50.6659 8.42163 50.6297 8.42701C50.2324 8.49356 50.2065 9.02298 50.3267 9.32096C50.3497 9.39553 50.395 9.46129 50.4564 9.50941C50.5178 9.55753 50.5925 9.5857 50.6704 9.59014C50.8542 9.59014 50.9753 9.43817 51.0379 9.28123C51.1541 9.00311 51.1432 8.43595 50.7389 8.42701Z" fill="#260E14"/>
<path d="M51.6288 6.81593C51.4451 6.31929 50.858 6.31929 50.4637 6.32525C49.9497 6.32315 49.4503 6.49661 49.0483 6.81692C48.7891 7.02154 48.9102 7.61155 49.2013 7.52215C49.6204 7.39303 50.0316 7.23609 50.4538 7.25695C50.8084 7.27483 51.1173 7.52613 51.4739 7.34734C51.6507 7.25993 51.6974 7.00167 51.6288 6.81593Z" fill="#260E14"/>
<path d="M55.2421 8.2661C55.2786 8.26328 55.3154 8.26528 55.3514 8.27206C55.7487 8.34655 55.7626 8.87895 55.6364 9.17495C55.6116 9.24865 55.565 9.31308 55.5027 9.35972C55.4405 9.40636 55.3655 9.43302 55.2878 9.43618C55.1031 9.43121 54.9898 9.27825 54.9263 9.11932C54.82 8.83425 54.8379 8.26709 55.2421 8.2661Z" fill="#260E14"/>
<path d="M54.2608 6.66392C54.4386 6.15834 55.0276 6.15834 55.4249 6.15834C55.9387 6.14975 56.4401 6.31652 56.8463 6.63114C57.1075 6.8298 56.9933 7.42576 56.7013 7.33836C56.2801 7.2142 55.8679 7.06322 55.4458 7.08904C55.0912 7.11189 54.7853 7.36716 54.4267 7.18837C54.2459 7.10692 54.1953 6.85363 54.2608 6.66392Z" fill="#260E14"/>
<path d="M52.059 11.9968C52.0579 11.9973 52.057 11.998 52.0564 11.999C52.0558 12 52.0554 12.0011 52.0554 12.0023C52.0554 12.0034 52.0558 12.0046 52.0564 12.0055C52.057 12.0065 52.0579 12.0073 52.059 12.0077C52.0601 12.0073 52.061 12.0065 52.0616 12.0055C52.0622 12.0046 52.0626 12.0034 52.0626 12.0023C52.0626 12.0011 52.0622 12 52.0616 11.999C52.061 11.998 52.0601 11.9973 52.059 11.9968Z" fill="#594E8A"/>
<path d="M53.644 9.85219C53.5735 9.43087 53.4645 9.01692 53.3182 8.61556C53.3111 8.58921 53.2938 8.56677 53.2702 8.55318C53.2465 8.53958 53.2184 8.53593 53.1921 8.54305C53.1658 8.55016 53.1433 8.56745 53.1297 8.5911C53.1161 8.61476 53.1125 8.64285 53.1196 8.66919C53.1732 9.09134 53.2874 9.50752 53.3619 9.92768C53.3917 10.0916 53.505 10.3975 53.4672 10.5594C53.5378 10.7521 53.4523 10.7898 53.209 10.6716C53.1058 10.643 53.001 10.6208 52.8951 10.6051C52.758 10.5803 52.6428 10.7759 52.7898 10.8485C53.0491 10.9766 53.7165 11.2031 53.793 10.7551C53.8357 10.5008 53.6957 10.1045 53.644 9.85219Z" fill="#F68A73"/>
<path d="M47.7917 20.4218L50.1885 33.4049L56.9965 22.8811L57.5586 20.4555L55.9595 20.0513L55.9019 18.8593C54.3355 19.9797 50.9822 20.2112 49.2092 18.9885L49.1635 19.9817L47.7917 20.4218Z" fill="#F6F6F6"/>
<path d="M35.0212 54.4655L39.8555 20.9383C39.8555 20.9383 42.9019 19.945 49.1635 19.9788C49.5201 22.319 51.4799 30.0109 51.4799 30.0109C52.4006 28.5468 55.3248 21.7597 56.2397 20.1059C62.6503 20.6671 64.6587 21.7856 64.6587 21.7856C64.6587 21.7856 66.9323 65.6439 67.9842 69.8415C67.9842 69.8415 52.0599 73.1302 50.1995 71.3214C48.3391 69.5127 47.7918 59.5014 47.7918 59.5014C47.7918 59.5014 44.2875 71.4635 41.3702 71.3214C37.6653 71.1397 32.4128 69.4004 32.4128 69.4004L35.0212 54.4655Z" fill="#38AE83"/>
<path d="M58.0583 7.21808C57.5328 6.63601 56.8435 6.96976 56.181 7.06114C55.5185 7.15252 54.4517 6.97671 53.8895 7.43461C53.6541 7.62532 53.6074 7.90642 53.6342 8.18652C53.3019 8.15031 52.9658 8.19955 52.6578 8.32956C52.6727 7.94516 52.5992 7.56175 52.3409 7.27469C51.8155 6.69164 51.1262 7.02637 50.4636 7.11676C49.8011 7.20715 48.7343 7.03333 48.1721 7.49024C47.8394 7.76041 47.8742 8.21136 47.9735 8.58284C48.2715 9.63175 48.5039 10.7899 49.7276 11.0819C51.0894 11.4057 52.2227 10.2784 52.5416 9.04869C52.5416 9.04174 52.5416 9.03379 52.5466 9.02684C52.6965 8.9881 52.8445 8.89871 52.9995 8.86494C53.263 8.81563 53.534 8.82376 53.7941 8.88877C54.0553 9.82842 54.3643 10.7671 55.4489 11.0253C56.8097 11.3491 57.944 10.2218 58.2619 8.99307C58.4109 8.42392 58.4834 7.69088 58.0583 7.21808ZM51.8006 9.3576C51.5026 10.045 50.7676 10.6568 49.9789 10.5595C49.4495 10.4949 49.085 10.0877 48.8744 9.6238C48.6787 9.1957 48.4493 8.44279 48.7701 8.02065C49.0909 7.5985 49.962 7.81504 50.4289 7.76041C50.8957 7.70578 51.7936 7.29357 52.0251 8.05839C52.1333 8.4269 51.9426 9.02684 51.7976 9.3576H51.8006ZM57.511 9.30099C57.213 9.98834 56.478 10.6002 55.6893 10.5038C55.1599 10.4383 54.7953 10.031 54.5848 9.56718C54.3921 9.13908 54.1626 8.38121 54.4795 7.96502C54.7963 7.54884 55.6764 7.75941 56.1383 7.70379C56.6001 7.64817 57.503 7.23695 57.7345 8.00177C57.8507 8.37028 57.66 8.97022 57.511 9.30099Z" fill="#38AE83"/>
<path d="M107.61 37.7555C108.627 37.5628 109.636 36.9122 110.513 36.3848C111.24 35.9438 112.075 35.465 112.727 34.8591C112.721 34.7873 112.71 34.716 112.696 34.6455C112.681 34.5601 112.658 34.4638 112.634 34.3764C111.917 34.8114 111.254 35.3826 110.548 35.8275C109.582 36.4285 108.446 36.8377 107.532 37.5062C107.43 37.5777 107.473 37.7853 107.61 37.7555Z" fill="#F68A73"/>
<path d="M107.152 36.3282C108.193 36.1405 109.127 35.6995 110.055 35.2068C110.85 34.7797 111.737 34.3029 112.418 33.6782C112.383 33.5719 112.344 33.4726 112.306 33.3742C111.544 33.7417 110.828 34.2523 110.084 34.6496C109.099 35.18 108.057 35.5833 107.094 36.1594C107.02 36.2021 107.065 36.3541 107.152 36.3282Z" fill="#F68A73"/>
<path d="M106.542 34.9127C107.644 34.6297 108.695 34.1449 109.737 33.7009C110.478 33.395 111.263 33.0801 111.966 32.6749C111.927 32.6001 111.88 32.5296 111.826 32.4643C110.95 32.7434 110.089 33.1497 109.244 33.5023C108.305 33.8847 107.341 34.2294 106.44 34.7101C106.322 34.7767 106.429 34.9396 106.542 34.9127Z" fill="#F68A73"/>
<path d="M101.632 41.1267C101.632 41.1267 100.845 38.723 98.9237 35.5445C98.9237 35.5445 89.554 38.2899 82.2683 40.8168C82.2753 40.7721 76.706 33.6096 72.2719 28.7356C67.8379 23.8615 64.6584 21.7826 64.6584 21.7826C62.2666 23.0669 63.7128 37.6522 63.7128 37.6522C63.7128 37.6522 74.5485 50.1398 81.5234 50.1398C87.5585 50.1398 101.632 41.1267 101.632 41.1267Z" fill="#38AE83"/>
<path d="M30.5692 48.4819C32.0939 45.7732 42.1617 40.7562 46.111 38.8669C47.0934 38.3941 47.7003 38.116 47.7003 38.116C48.6182 37.0866 49.473 36.0027 50.2599 34.87C50.9662 33.841 51.4896 32.805 52.32 31.8693C52.6329 31.8385 52.8981 32.1385 52.9468 32.4424C52.9954 32.7464 52.8872 33.0702 52.7789 33.3592C52.5276 34.0337 52.2823 34.7081 52.0349 35.3905C53.48 34.2555 55.0211 33.2485 56.6408 32.3808C57.1235 32.1216 57.7036 31.8772 58.2032 32.1126C58.2575 32.1408 58.3103 32.172 58.3611 32.206C58.4336 32.262 58.5002 32.3252 58.5598 32.3947C58.6234 32.4567 58.6825 32.523 58.7366 32.5934C58.8528 32.7394 58.968 32.8914 59.0753 33.0493C59.1369 33.1437 59.1995 33.239 59.262 33.3423C59.4021 33.5627 59.5307 33.7901 59.6474 34.0237C59.6921 34.1101 59.7368 34.2055 59.7736 34.2919C59.8004 34.3614 59.8361 34.4389 59.855 34.5084C59.9397 34.7157 59.9803 34.9382 59.9742 35.162C59.9539 35.4429 59.8501 35.7113 59.6762 35.9328C56.0468 40.2188 52.8951 41.8925 50.6235 42.4557C50.6235 42.4557 50.0533 42.9424 49.1207 43.7132C45.7435 46.5043 37.6334 53.0301 34.6188 53.8377C30.7609 54.8727 29.2491 50.827 30.5692 48.4819Z" fill="#F8D1BE"/>
<path d="M27.8119 50.0107C27.7662 53.8845 29.5422 56.3379 32.7932 55.4648C35.8118 54.6573 46.0287 46.8829 49.4018 44.0937C48.4791 42.8025 46.4945 39.612 45.826 38.1172C44.1583 38.9118 40.5338 41.1198 37.7487 42.6972C37.748 42.6919 37.748 42.6866 37.7487 42.6813L38.1033 39.2117L39.8514 20.9354C39.8514 20.9354 35.4602 21.6287 32.1823 30.4133C29.6594 37.1845 27.8119 44.2129 27.8119 50.0107Z" fill="#339972"/>
<path d="M55.1548 38.7022C56.1759 38.2682 57.0837 37.3573 57.8813 36.6054C58.5419 35.9766 59.3057 35.2853 59.851 34.5026C59.8321 34.4331 59.7964 34.3556 59.7696 34.2861C59.7328 34.1997 59.6881 34.1043 59.6434 34.0179C58.9918 34.6377 58.4286 35.3866 57.786 36.0144C56.9109 36.8636 55.8163 37.551 55.0118 38.4608C54.9283 38.5582 55.0167 38.7648 55.1548 38.7022Z" fill="#F68A73"/>
<path d="M54.3504 37.3134C55.3963 36.8784 56.2743 36.2039 57.1315 35.4759C57.8696 34.8461 58.686 34.1459 59.2562 33.3364C59.1936 33.237 59.131 33.1377 59.0694 33.0433C58.3553 33.6026 57.7216 34.3008 57.0352 34.8859C56.1244 35.6656 55.1251 36.3261 54.254 37.1495C54.1835 37.2111 54.2639 37.3581 54.3504 37.3134Z" fill="#F68A73"/>
<path d="M53.3887 35.9707C54.4813 35.4224 55.4667 34.6795 56.457 33.9722C57.1622 33.4825 57.9121 32.979 58.5558 32.3899C58.4962 32.3204 58.4296 32.2572 58.3571 32.2012C57.5029 32.6979 56.6944 33.3157 55.8938 33.8769C54.9998 34.4917 54.0671 35.0688 53.2338 35.781C53.1265 35.8783 53.2765 36.0244 53.3887 35.9707Z" fill="#F68A73"/>
<path d="M54.1337 12.7756C54.0344 12.7091 53.9351 12.7458 53.8248 12.7657C53.7146 12.7856 53.5944 12.7886 53.4782 12.8074C53.2448 12.8462 53.0084 12.8789 52.771 12.8968C52.5332 12.9147 52.2945 12.9147 52.0568 12.8968C51.9406 12.8879 51.8244 12.876 51.7081 12.8571C51.5919 12.8382 51.4658 12.7955 51.3506 12.8442C51.3335 12.8493 51.318 12.8587 51.3056 12.8715C51.2931 12.8843 51.2842 12.9001 51.2796 12.9173C51.275 12.9345 51.275 12.9527 51.2794 12.9699C51.2838 12.9872 51.2926 13.0031 51.3049 13.016C51.3843 13.1153 51.5085 13.1322 51.6257 13.158C51.7429 13.1839 51.883 13.2087 52.0121 13.2266C52.2716 13.2633 52.5337 13.2792 52.7958 13.2743C53.0604 13.2721 53.3237 13.2387 53.5805 13.1749C53.7066 13.1356 53.83 13.0881 53.95 13.0329C54.0493 12.9922 54.1258 12.9604 54.1655 12.8531C54.1691 12.8385 54.1679 12.8231 54.1622 12.8092C54.1565 12.7953 54.1465 12.7836 54.1337 12.7756Z" fill="#F68A73"/>
<path d="M114.984 32.4705C119.358 28.0962 119.358 21.004 114.984 16.6296C110.61 12.2553 103.517 12.2553 99.143 16.6296C94.7686 21.004 94.7686 28.0962 99.143 32.4705C103.517 36.8449 110.61 36.8449 114.984 32.4705Z" fill="#FFC400"/>
<path d="M113.704 31.1894C117.37 27.5226 117.37 21.5775 113.704 17.9107C110.037 14.2439 104.092 14.2439 100.425 17.9107C96.758 21.5775 96.7579 27.5226 100.425 31.1894C104.092 34.8562 110.037 34.8562 113.704 31.1894Z" fill="#FFAB00"/>
<path d="M113.158 30.6437C116.523 27.2783 116.523 21.8218 113.158 18.4564C109.792 15.091 104.336 15.091 100.971 18.4564C97.6052 21.8218 97.6052 27.2783 100.971 30.6437C104.336 34.0091 109.792 34.0091 113.158 30.6437Z" fill="#FFE380"/>
<path d="M104.354 17.8075C104.246 17.5532 104.008 17.4767 103.75 17.5095C103.694 17.5174 103.638 17.5303 103.581 17.5363C103.735 17.5194 103.324 17.575 103.412 17.5502C103.269 17.5947 103.133 17.656 103.005 17.733C102.79 17.8705 102.585 18.0228 102.392 18.1889C102.061 18.4435 101.746 18.7185 101.45 19.0123C101.143 19.323 100.869 19.6645 100.632 20.0314C100.505 20.2329 100.401 20.4486 100.324 20.6741C100.217 20.972 100.2 21.2343 100.406 21.4955C100.457 21.5467 100.521 21.5834 100.59 21.602C100.66 21.6205 100.734 21.6201 100.803 21.6008C101.071 21.5382 101.192 21.3117 101.326 21.0972C101.425 20.9363 101.531 20.7764 101.642 20.6224L101.693 20.5539L101.741 20.4953C101.803 20.4218 101.866 20.3493 101.931 20.2797C102.063 20.1367 102.202 20.0026 102.345 19.8715C102.624 19.6172 102.911 19.3749 103.208 19.1414L103.247 19.1126C103.284 19.0828 103.323 19.055 103.362 19.0262C103.455 18.9587 103.552 18.8971 103.646 18.8325C103.724 18.7789 103.803 18.7223 103.879 18.6666C103.945 18.6319 104.001 18.5814 104.042 18.5196C104.08 18.4948 104.131 18.4521 104.142 18.4451C104.247 18.3816 104.327 18.2824 104.366 18.1655C104.405 18.0486 104.401 17.9217 104.354 17.8075Z" fill="#FFF0B2"/>
<path d="M108.086 27.7125H106.198V28.8608H104.422V27.7125H103.221V26.2713H104.422V25.8253H103.221V24.383H104.422V20.2391H107.773C108.36 20.2263 108.943 20.3458 109.478 20.5887C109.946 20.8023 110.342 21.1474 110.618 21.582C110.891 22.0255 111.032 22.5381 111.023 23.059C111.023 23.9112 110.734 24.584 110.156 25.0773C109.578 25.5707 108.775 25.82 107.748 25.8253H106.203V26.2752H108.091L108.086 27.7125ZM106.198 24.385H107.731C108.724 24.385 109.221 23.949 109.221 23.0769C109.229 22.8927 109.2 22.7089 109.135 22.5365C109.07 22.364 108.97 22.2066 108.843 22.0736C108.59 21.818 108.241 21.6886 107.795 21.6853H106.196L106.198 24.385Z" fill="#FFC400"/>
</g>
<defs>
<clipPath id="clip0_34_269">
<rect width="118.265" height="149" fill="white"/>
</clipPath>
</defs>
</svg>
