<svg width="126" height="149" viewBox="0 0 126 149" fill="none" xmlns="http://www.w3.org/2000/svg">
<path d="M101.29 131.048L101.29 9.45923C101.29 4.23504 97.0384 0 91.7938 0L35.8005 0C30.5559 0 26.3043 4.23504 26.3043 9.45923L26.3043 131.048C26.3043 136.272 30.5559 140.507 35.8005 140.507H91.7938C97.0384 140.507 101.29 136.272 101.29 131.048Z" fill="#1E1F21"/>
<path d="M104.325 131.048L104.325 9.45923C104.325 4.23504 100.073 0 94.8284 0L38.8352 0C33.5906 0 29.339 4.23504 29.339 9.45923L29.339 131.048C29.339 136.272 33.5906 140.507 38.8352 140.507H94.8284C100.073 140.507 104.325 136.272 104.325 131.048Z" fill="#424549"/>
<path d="M101.029 9.4584L101.029 131.048C101.029 131.859 100.869 132.663 100.557 133.412C100.245 134.162 99.7886 134.843 99.2127 135.416C98.6369 135.99 97.9532 136.445 97.2008 136.755C96.4484 137.066 95.642 137.226 94.8276 137.226H38.8343C37.1896 137.226 35.6122 136.575 34.4492 135.416C33.2862 134.258 32.6328 132.687 32.6328 131.048L32.6328 9.45925C32.6328 7.8209 33.2862 6.24966 34.4492 5.09118C35.6122 3.93269 37.1896 3.28186 38.8343 3.28186L94.8284 3.28186C96.473 3.28186 98.0501 3.9326 99.213 5.09093C100.376 6.24925 101.029 7.82028 101.029 9.4584Z" fill="#C1C7D0"/>
<path d="M99.7429 9.45409V131.044C99.7433 131.865 99.5368 132.672 99.1423 133.392C98.6103 134.352 97.7768 135.11 96.77 135.551C96.6233 135.61 96.4697 135.668 96.3084 135.722C95.831 135.878 95.3316 135.957 94.8292 135.956H38.8343C38.4266 135.958 38.0206 135.906 37.6262 135.803C37.4941 135.767 37.3628 135.73 37.2307 135.686C36.2605 135.353 35.4185 134.728 34.8215 133.897C34.2245 133.065 33.9021 132.069 33.8991 131.047V9.45409C33.9023 8.1538 34.4228 6.90778 35.3465 5.98906C36.2703 5.07033 37.522 4.55382 38.8274 4.55269H94.8224C96.1265 4.55562 97.3763 5.07296 98.2985 5.99152C99.2206 6.91007 99.74 8.15506 99.7429 9.45409Z" fill="#F4F5F7"/>
<path d="M46.817 8.6499H38.8874C38.7757 8.65347 38.6644 8.63464 38.5602 8.59452C38.4559 8.5544 38.3608 8.49381 38.2805 8.41636C38.2002 8.33891 38.1364 8.24617 38.0928 8.14365C38.0492 8.04114 38.0267 7.93094 38.0267 7.81961C38.0267 7.70828 38.0492 7.59808 38.0928 7.49556C38.1364 7.39305 38.2002 7.30031 38.2805 7.22286C38.3608 7.14541 38.4559 7.08482 38.5602 7.0447C38.6644 7.00458 38.7757 6.98575 38.8874 6.98932H46.817C46.9287 6.98575 47.04 7.00458 47.1442 7.0447C47.2485 7.08482 47.3436 7.14541 47.4239 7.22286C47.5042 7.30031 47.568 7.39305 47.6116 7.49556C47.6552 7.59808 47.6777 7.70828 47.6777 7.81961C47.6777 7.93094 47.6552 8.04114 47.6116 8.14365C47.568 8.24617 47.5042 8.33891 47.4239 8.41636C47.3436 8.49381 47.2485 8.5544 47.1442 8.59452C47.04 8.63464 46.9287 8.65347 46.817 8.6499Z" fill="#C1C7D0"/>
<path d="M96.7966 6.98932H84.0684C83.9566 6.98575 83.8453 7.00458 83.7411 7.0447C83.6368 7.08482 83.5417 7.14541 83.4614 7.22286C83.3811 7.30031 83.3173 7.39305 83.2737 7.49556C83.2301 7.59808 83.2076 7.70828 83.2076 7.81961C83.2076 7.93094 83.2301 8.04114 83.2737 8.14365C83.3173 8.24617 83.3811 8.33891 83.4614 8.41636C83.5417 8.49381 83.6368 8.5544 83.7411 8.59452C83.8453 8.63464 83.9566 8.65347 84.0684 8.6499H96.7966C96.9083 8.65347 97.0196 8.63464 97.1239 8.59452C97.2281 8.5544 97.3232 8.49381 97.4035 8.41636C97.4838 8.33891 97.5477 8.24617 97.5913 8.14365C97.6349 8.04114 97.6573 7.93094 97.6573 7.81961C97.6573 7.70828 97.6349 7.59808 97.5913 7.49556C97.5477 7.39305 97.4838 7.30031 97.4035 7.22286C97.3232 7.14541 97.2281 7.08482 97.1239 7.0447C97.0196 7.00458 96.9083 6.98575 96.7966 6.98932Z" fill="#C1C7D0"/>
<path d="M99.7429 13.5974V51.8753L33.8991 107.353V65.0848L99.7429 13.5974Z" fill="white"/>
<path d="M99.7429 63.8233V79.7454L35.5464 134.699C35.0281 134.241 34.6133 133.678 34.3294 133.048C34.0454 132.418 33.8988 131.735 33.8991 131.045V117.941L99.7429 63.8233Z" fill="white"/>
<path d="M98.7263 30.163C98.1619 30.433 97.6413 30.7856 97.1819 31.2091C96.3162 32.0031 95.6272 33.0227 94.5667 33.5833C93.8683 33.9525 93.314 34.02 92.5727 33.7431C90.3188 32.9022 89.7817 30.61 89.5964 28.4811C89.2764 24.8164 90.9932 22.0276 94.7109 21.2662C96.4122 20.9183 98.2672 21.0012 99.773 21.8644C100.307 22.1636 100.771 22.5736 101.132 23.0667C101.493 23.5598 101.744 24.1244 101.867 24.7223C102.159 26.0582 102.02 27.8051 101.544 29.0862C101.476 29.2974 101.367 29.4933 101.223 29.6631C100.972 29.9357 100.749 29.9194 100.424 29.8588C99.8785 29.7605 99.2839 29.9049 98.7263 30.163Z" fill="#1E1F21"/>
<path d="M84.4108 72.7185L85.3434 40.3581C85.3434 40.3581 91.1863 40.0077 92.1773 38.5984C92.7641 37.76 92.8165 35.4482 92.7641 33.556V33.4705C92.7513 32.8407 92.7247 32.2954 92.6989 31.9185C92.6792 31.5681 92.6663 31.3596 92.6663 31.3596L98.8439 32.8535C98.7718 32.9056 98.7134 33.3731 98.7263 34.0295V34.0423C98.7333 34.7807 98.8164 35.5164 98.9743 36.2379C98.994 36.3353 99.0129 36.4259 99.0395 36.5174C99.0661 36.6088 99.0978 36.7182 99.1304 36.8225C99.4736 37.9591 100.096 38.9266 101.152 38.9984C102.9 39.1215 104.882 39.3753 106.128 39.5437C106.475 39.5929 106.794 39.7614 107.029 40.0201C107.264 40.2787 107.4 40.6112 107.415 40.9598C107.649 46.6629 108.634 70.2212 108.725 70.5656C109.92 75.3551 94.9417 82.4675 84.4108 72.7185Z" fill="#F8D1BE"/>
<path d="M98.9785 36.237C98.5725 36.4163 98.1354 36.5155 97.6915 36.5293C94.855 36.6524 93.4265 34.9311 92.7615 33.4697C92.7486 32.8398 92.722 32.2946 92.6963 31.9177C92.6766 31.5673 92.6637 31.3587 92.6637 31.3587L98.8412 32.8526C98.7692 32.9048 98.7108 33.3723 98.7237 34.0286V34.0414C98.733 34.7801 98.8184 35.5158 98.9785 36.237Z" fill="#F68A73"/>
<path d="M99.0978 101.894C99.0978 101.894 100.779 109.322 101.178 111.234C101.202 111.679 101.256 112.231 101.28 112.92C101.44 117.32 102.924 123.923 104.564 130.013C106.722 138.035 109.142 145.161 109.142 145.161L114.787 145.065C114.787 145.065 113.798 137.202 112.82 129.247C111.872 121.533 110.933 113.731 110.924 112.912C110.9 111.243 108.874 100.817 108.874 100.817L99.0978 101.894ZM101.232 111.519C101.245 111.571 101.255 111.625 101.262 111.679C101.243 111.679 101.243 111.617 101.227 111.519H101.232Z" fill="#FFB69E"/>
<path d="M79.9748 100.813C79.9748 100.813 77.9483 111.24 77.9242 112.908C77.9122 113.728 76.9762 121.53 76.029 129.244C75.0508 137.201 74.0616 145.062 74.0616 145.062L79.7063 145.158C79.7063 145.158 82.1267 138.031 84.2845 130.01C85.9241 123.923 87.4085 117.32 87.5689 112.917C87.5929 112.228 87.647 111.676 87.671 111.231C88.07 109.319 89.7508 101.89 89.7508 101.89L79.9748 100.813ZM87.5869 111.679C87.5932 111.625 87.6032 111.571 87.6169 111.519C87.6049 111.617 87.6006 111.679 87.5869 111.679Z" fill="#FFB69E"/>
<path d="M123.412 147.512C123.257 148.725 121.723 148.935 120.329 148.938C118.899 148.938 112.612 148.938 110.898 148.938C109.28 148.938 107.601 149.074 107.491 146.943L107.394 145.046C107.361 144.424 107.057 143.192 107.578 142.732C107.996 142.348 108.75 142.602 109.208 142.748C109.666 142.894 110.972 143.852 111.417 143.543C111.457 143.507 111.488 143.463 111.509 143.413C111.53 143.364 111.539 143.31 111.536 143.257C111.564 142.835 111.433 142.381 111.622 142.013C111.833 141.592 112.332 141.5 112.772 141.457C113.195 141.413 113.618 141.371 114.047 141.332C114.655 141.267 115.409 141.295 115.686 141.894C115.817 142.186 115.789 142.543 115.865 142.851C115.883 142.94 115.914 143.027 115.957 143.107C116.061 143.277 116.202 143.421 116.37 143.529L116.424 143.567C116.549 143.652 116.674 143.738 116.804 143.823C117.033 143.982 117.27 144.128 117.515 144.262C117.645 144.326 117.772 144.391 117.906 144.446C118.137 144.545 118.379 144.615 118.627 144.656C118.633 144.661 118.641 144.663 118.649 144.662C118.91 144.696 119.173 144.703 119.436 144.683C120.06 144.64 120.695 144.512 121.308 144.64C122.144 144.802 122.882 145.462 123.212 146.321C123.398 146.804 123.453 147.194 123.412 147.512Z" fill="#1E1F21"/>
<path d="M116.375 143.534C115.105 144.447 113.189 145.037 111.952 144.669C111.828 144.631 111.773 144.421 111.914 144.361C112.68 144.01 113.558 143.95 114.356 143.652C114.904 143.447 115.386 143.15 115.87 142.853C115.888 142.942 115.919 143.029 115.962 143.109C116.066 143.28 116.207 143.425 116.375 143.534Z" fill="white"/>
<path d="M117.52 144.27C117.278 144.496 117.023 144.707 116.755 144.902C116.082 145.393 115.23 146.013 114.361 146.031C114.313 146.027 114.267 146.01 114.229 145.982C114.19 145.954 114.16 145.915 114.142 145.871C114.124 145.826 114.119 145.777 114.128 145.73C114.136 145.683 114.158 145.639 114.19 145.604C114.743 145.079 115.525 144.809 116.149 144.36C116.382 144.189 116.594 144.014 116.811 143.83C117.039 143.989 117.276 144.135 117.52 144.27Z" fill="white"/>
<path d="M64.7301 147.512C64.8314 148.617 66.0171 148.937 67.3581 148.937C69.1385 148.937 78.9676 149.108 79.6788 148.883C80.7702 148.541 80.6329 147.899 80.6724 146.942L80.7702 145.045C80.8028 144.423 81.1065 143.191 80.5857 142.731C80.1679 142.347 79.4137 142.601 78.9555 142.747C78.4974 142.894 77.1924 143.851 76.7471 143.542C76.7071 143.506 76.6756 143.462 76.655 143.412C76.6344 143.363 76.6251 143.309 76.6278 143.256C76.6004 142.834 76.7308 142.38 76.542 142.012C76.3301 141.591 75.8308 141.5 75.3915 141.456C74.9685 141.412 74.5446 141.371 74.1165 141.331C73.5082 141.266 72.754 141.294 72.4777 141.894C72.3473 142.185 72.3739 142.542 72.2984 142.85C72.2813 142.94 72.2501 143.026 72.2058 143.106C72.1019 143.276 71.9612 143.42 71.7939 143.528L71.739 143.566C71.6146 143.652 71.4893 143.737 71.3598 143.823C71.1305 143.981 70.8931 144.127 70.6485 144.261C70.5181 144.325 70.3911 144.39 70.2581 144.445C70.0268 144.544 69.7842 144.614 69.5357 144.655C69.5296 144.66 69.5219 144.662 69.5143 144.661C69.2534 144.695 68.9898 144.702 68.7275 144.682C68.1037 144.639 67.4688 144.511 66.8553 144.639C66.0197 144.801 65.2818 145.46 64.9506 146.32C64.7653 146.799 64.7009 147.191 64.7301 147.512Z" fill="#1E1F21"/>
<path d="M71.7897 143.534C73.0596 144.447 74.9746 145.037 76.2118 144.669C76.3371 144.631 76.3911 144.421 76.2504 144.361C75.4851 144.01 74.6057 143.95 73.8077 143.652C73.2603 143.447 72.7781 143.15 72.2942 142.853C72.2771 142.942 72.2459 143.029 72.2016 143.109C72.0982 143.28 71.9574 143.425 71.7897 143.534Z" fill="white"/>
<path d="M70.6443 144.27C70.8857 144.496 71.1414 144.707 71.4096 144.902C72.0823 145.393 72.9343 146.013 73.8025 146.031C73.8505 146.027 73.8965 146.01 73.9353 145.982C73.9741 145.954 74.0041 145.915 74.022 145.871C74.0398 145.826 74.0448 145.777 74.0364 145.73C74.0279 145.683 74.0064 145.639 73.9741 145.604C73.4199 145.079 72.6391 144.809 72.0145 144.36C71.7811 144.189 71.5701 144.014 71.353 143.83C71.1246 143.989 70.888 144.136 70.6443 144.27Z" fill="white"/>
<path d="M70.3551 138.633C70.3551 138.633 77.0946 142.231 86.4664 140.154L95.1149 85.892L101.666 139.716L101.672 139.722C101.71 139.728 101.747 139.736 101.784 139.746C101.815 139.752 101.846 139.758 101.89 139.77C101.97 139.788 102.07 139.805 102.188 139.835C102.307 139.865 102.446 139.883 102.599 139.912C102.649 139.924 102.705 139.93 102.76 139.942C102.954 139.977 103.177 140.013 103.42 140.054C103.825 140.114 104.292 140.179 104.815 140.245C105.094 140.274 105.387 140.304 105.698 140.33C108.89 140.615 113.582 140.603 118.318 139.06L109.496 78.766L108.482 72.5723L82.5514 71.7288L77.8779 94.2163L70.3551 138.633Z" fill="#38AE83"/>
<path d="M104.866 140.248C104.365 140.183 103.922 140.118 103.531 140.058C103.918 140.119 104.365 140.184 104.866 140.248Z" fill="#262D4F"/>
<path d="M102.899 139.941L102.35 139.834C102.5 139.87 102.684 139.906 102.899 139.941Z" fill="#262D4F"/>
<path d="M95.115 85.892L101.666 139.716L101.672 139.722C101.71 139.728 101.747 139.736 101.784 139.746C101.815 139.752 101.846 139.758 101.89 139.77C101.97 139.788 102.07 139.805 102.188 139.835C102.344 139.865 102.537 139.901 102.761 139.942C102.954 139.977 103.178 140.013 103.42 140.054C103.825 140.114 104.292 140.179 104.815 140.245C105.094 140.274 105.387 140.304 105.698 140.33C103.632 128.213 95.115 85.892 95.115 85.892Z" fill="#339972"/>
<path d="M77.8779 94.2163C81.6428 86.057 88.7307 80.9804 96.6679 80.9804C101.093 80.9804 106.637 79.7275 109.499 78.766L108.485 72.5723L82.5548 71.7288L77.8779 94.2163Z" fill="#339972"/>
<path d="M95.8794 31.2442C95.8785 31.2446 95.8777 31.2452 95.8772 31.246C95.8766 31.2469 95.8763 31.2478 95.8763 31.2488C95.8763 31.2498 95.8766 31.2508 95.8772 31.2516C95.8777 31.2525 95.8785 31.2531 95.8794 31.2535C95.8846 31.2535 95.8846 31.2442 95.8794 31.2442Z" fill="#594E8A"/>
<path d="M109.295 76.2413C109.357 78.1634 80.6382 78.378 80.8295 76.7379C81.9518 67.0932 84.3473 44.2109 84.4485 42.3674C84.5 41.4273 84.6201 40.3658 85.3717 39.8035C85.7466 39.524 86.2202 39.4198 86.6784 39.3223C88.5231 38.9309 90.4124 38.6429 92.1833 37.9925C92.2691 37.96 93.3759 41.453 96.1412 41.4521C100.011 41.4521 100.254 38.2634 100.453 38.4352C101.403 39.2582 104.471 39.0386 106.355 39.3189C106.679 39.3688 106.976 39.5289 107.195 39.7721C107.414 40.0154 107.541 40.3266 107.556 40.653C107.736 44.2827 109.136 71.3887 109.295 76.2413Z" fill="#67B3FA"/>
<path d="M100.68 37.5139C100.503 37.4908 100.299 37.478 100.192 37.3361C100.148 37.2572 100.11 37.1756 100.077 37.0917C99.887 36.7498 99.3259 36.8712 99.0848 37.1814C98.8437 37.4917 98.7785 37.9044 98.57 38.2369C98.165 38.8839 97.3045 39.0916 96.5417 39.0334C95.8033 38.9638 95.0968 38.6991 94.4954 38.2665C93.8941 37.834 93.4195 37.2493 93.1209 36.5729C93 36.2875 92.9056 35.9798 92.6919 35.7567C92.4783 35.5337 92.0914 35.4371 91.8597 35.6473C91.61 35.8781 91.7044 36.3011 91.5337 36.5943C91.3286 36.9464 90.8473 36.9831 90.4783 37.1669C90.003 37.407 89.7216 37.9275 89.6358 38.4489C89.55 38.9702 89.6358 39.5078 89.713 40.0317C89.8846 41.1239 90.0562 42.2307 90.5024 43.2417C91.2514 44.9348 92.7563 46.2484 94.4912 46.9073C95.5902 47.3244 96.8008 47.4919 97.9557 47.2722C99.1105 47.0526 100.205 46.4253 100.885 45.4698C101.588 44.4827 101.806 43.2477 102.007 42.0512C102.272 40.4855 103.122 37.8395 100.68 37.5139Z" fill="#67B3FA"/>
<path d="M93.659 40.524C93.9207 40.506 94.1952 40.5641 94.4552 40.5975C94.7401 40.6342 95.0249 40.6744 95.3132 40.6983C95.8683 40.7544 96.4287 40.7303 96.9768 40.6265C97.4749 40.5209 97.9468 40.3175 98.3651 40.0283C98.7949 39.7458 99.1838 39.4059 99.5208 39.0181C99.5285 39.0087 99.5431 39.0181 99.5371 39.03C99.2668 39.4847 98.9983 39.9069 98.577 40.2419C98.1481 40.5859 97.6511 40.8355 97.1184 40.9744C96.5426 41.1114 95.949 41.1587 95.3587 41.1145C95.0618 41.0974 94.7667 41.0641 94.4715 41.0239C94.1682 40.995 93.87 40.9269 93.5844 40.8214C93.4205 40.7521 93.5209 40.5334 93.659 40.524Z" fill="#4359D9"/>
<path d="M91.6976 40.1419C92.0914 41.4794 93.2591 42.376 94.4946 42.9024C95.1303 43.1826 95.8029 43.3708 96.492 43.4614C96.8303 43.5028 97.1721 43.5071 97.5113 43.4742C97.8322 43.44 98.1625 43.3033 98.4825 43.3033C98.4924 43.3035 98.5019 43.3066 98.51 43.3121C98.5181 43.3177 98.5244 43.3255 98.5282 43.3345C98.5319 43.3436 98.5329 43.3536 98.531 43.3632C98.5292 43.3728 98.5246 43.3817 98.5177 43.3887C98.2998 43.6451 97.8716 43.7374 97.555 43.7938C97.2044 43.8559 96.8473 43.8743 96.492 43.8485C95.7147 43.7938 94.9674 43.5682 94.2526 43.2665C93.5551 42.9717 92.8867 42.5879 92.3539 42.0444C92.1009 41.7937 91.8884 41.5053 91.7242 41.1897C91.5702 40.8727 91.4774 40.5298 91.4505 40.1787C91.4359 40.0308 91.6589 40.0112 91.6976 40.1419Z" fill="#4359D9"/>
<path d="M101.739 30.5964C101.72 30.8288 101.326 35.6525 97.6949 35.8097C93.707 35.9858 92.5101 32.5091 92.2759 31.2485C92.1901 30.7963 92.076 30.3511 91.9773 29.9024C91.943 29.7477 91.7885 29.352 91.8443 29.205C91.9001 29.058 92.1472 29.023 92.2527 28.876C92.3215 28.7664 92.3635 28.6423 92.3754 28.5136C92.45 28.0136 92.4157 27.5051 92.4526 27.0017C92.5221 26.0385 92.9288 25.2924 93.8597 24.9437C95.1167 24.4762 96.3659 24.9172 97.6237 24.6061C98.0973 24.4899 98.5521 24.2762 99.0386 24.2378C99.6623 24.1925 100.597 24.2053 100.992 24.6839C101.376 25.1429 101.421 25.8479 101.583 26.8496C101.726 28.07 101.836 29.4802 101.739 30.5964Z" fill="#F8D1BE"/>
<path d="M97.6315 28.6503C97.622 28.6255 97.6036 28.605 97.5798 28.5929C97.5559 28.5809 97.5285 28.5781 97.5027 28.5852C97.477 28.5922 97.4548 28.6086 97.4405 28.6311C97.4262 28.6536 97.4209 28.6806 97.4255 28.7068C97.4856 29.1341 97.8382 30.469 97.8013 30.6348C97.8511 31.0041 97.3243 30.7024 97.2162 30.6878C97.0746 30.6639 96.9588 30.8656 97.1098 30.9382C97.3766 31.0656 98.3762 31.2314 98.1394 30.8314C98.0536 30.6904 97.7979 29.0495 97.6315 28.6503Z" fill="#F68A73"/>
<path d="M92.0365 29.1759C92.0365 29.1759 91.0215 27.8418 90.3806 28.4555C89.7397 29.0691 90.6654 32.2937 92.8688 32.2159L92.0365 29.1759Z" fill="#F8D1BE"/>
<path d="M91.6496 30.1537C91.5148 29.9357 91.345 29.6221 91.1082 29.5067C91.0999 29.502 91.0905 29.4998 91.081 29.5004C91.0716 29.5011 91.0625 29.5045 91.055 29.5102C91.0474 29.516 91.0418 29.5239 91.0387 29.5328C91.0357 29.5418 91.0354 29.5514 91.0378 29.5605C91.1082 29.793 91.3038 29.9793 91.4334 30.187C91.2763 30.2066 91.1296 30.3024 91.1159 30.4707C91.1163 30.4834 91.1195 30.4958 91.1254 30.507C91.1312 30.5183 91.1394 30.5281 91.1495 30.5358C91.1596 30.5435 91.1713 30.5489 91.1838 30.5515C91.1962 30.5541 91.2091 30.554 91.2214 30.5511C91.3398 30.5237 91.4479 30.4784 91.5646 30.4434C91.6409 30.6293 91.7373 30.8064 91.852 30.9716C91.8915 31.022 91.997 31.016 91.9893 30.9348C91.9644 30.6579 91.7928 30.3861 91.6496 30.1537Z" fill="#F68A73"/>
<path d="M98.9201 27.3248C99.1262 27.2699 99.3384 27.2412 99.5516 27.2393C99.759 27.2384 99.9657 27.2633 100.167 27.3137C100.265 27.3337 100.359 27.3704 100.444 27.4222C100.496 27.4555 100.584 27.5427 100.522 27.6068C100.493 27.6279 100.459 27.6418 100.424 27.6471C100.388 27.6525 100.352 27.6492 100.318 27.6376C100.232 27.623 100.146 27.6008 100.06 27.5837C99.8829 27.5504 99.7021 27.5375 99.5216 27.5453C99.3476 27.5508 99.1748 27.5766 99.0068 27.6222C98.921 27.6455 98.8368 27.674 98.7546 27.7076C98.6688 27.7435 98.583 27.7786 98.4972 27.7213C98.4819 27.7128 98.4692 27.7004 98.4603 27.6854C98.4515 27.6703 98.4467 27.6533 98.4465 27.6359C98.462 27.423 98.7546 27.3701 98.9201 27.3248Z" fill="#1E1F21"/>
<path d="M94.5778 27.5666C94.7785 27.4948 94.9881 27.4505 95.2007 27.435C95.4072 27.4199 95.6147 27.4306 95.8185 27.4666C96.0244 27.5025 96.2423 27.5607 96.3933 27.7119C96.4064 27.7238 96.4156 27.7393 96.4194 27.7565C96.4233 27.7737 96.4218 27.7917 96.415 27.808C96.4082 27.8242 96.3966 27.838 96.3817 27.8475C96.3667 27.8569 96.3492 27.8615 96.3316 27.8606C96.1489 27.8396 95.9678 27.8071 95.7893 27.7632C95.6059 27.7349 95.4197 27.73 95.2351 27.7487C95.0569 27.7668 94.8815 27.8058 94.7125 27.8649C94.6242 27.895 94.5381 27.9316 94.4552 27.9743C94.4157 28.0016 94.371 28.0203 94.3239 28.0293C94.2767 28.0383 94.2282 28.0373 94.1815 28.0264C94.1597 28.0198 94.1406 28.0065 94.1269 27.9883C94.1132 27.9702 94.1055 27.9483 94.1051 27.9256C94.1283 27.7094 94.402 27.6307 94.5778 27.5666Z" fill="#1E1F21"/>
<path d="M96.0201 26.3949C96.3925 25.9471 96.7468 25.4853 97.0832 25.0095C95.4316 24.9878 93.805 25.4122 92.3762 26.2377C92.1678 24.9557 92.9245 23.7276 93.6478 22.643C93.1352 22.404 92.5783 22.274 92.0124 22.2615C91.4466 22.249 90.8844 22.3542 90.3617 22.5704C91.1339 21.1542 92.7641 20.2517 94.3779 20.3483C93.9146 19.7835 93.3044 19.3563 92.6139 19.1133C94.7528 18.8789 96.9013 19.4607 98.6267 20.7414L98.045 19.4757C98.1136 19.6261 99.1295 19.9586 99.332 20.1004C99.7233 20.3769 100.067 20.7146 100.35 21.1004C100.842 21.7713 101.25 22.6439 100.882 23.4566C100.151 25.0736 97.7198 26.3838 96.0201 26.3949Z" fill="#1E1F21"/>
<path d="M96.081 28.8016C95.914 28.7701 95.7434 28.7612 95.574 28.7751C95.4101 28.7936 95.2498 28.8354 95.0978 28.899C94.9665 28.9503 94.7649 29.0204 94.6963 29.1554C94.691 29.1651 94.6882 29.1759 94.6884 29.1869C94.6885 29.1979 94.6914 29.2087 94.697 29.2182C94.7025 29.2277 94.7104 29.2357 94.7199 29.2413C94.7293 29.2469 94.7401 29.25 94.7512 29.2503C94.82 29.2408 94.8865 29.2191 94.9477 29.1862C95.0109 29.1575 95.076 29.133 95.1424 29.1127C95.2825 29.0756 95.4265 29.0552 95.5714 29.052C95.711 29.0434 95.8512 29.0529 95.9884 29.0802C96.057 29.0947 96.1231 29.1144 96.19 29.1349C96.2569 29.1554 96.3616 29.187 96.4294 29.1349C96.4449 29.1255 96.4578 29.1123 96.4668 29.0966C96.4758 29.0809 96.4806 29.0632 96.4809 29.0452C96.4603 28.8708 96.2295 28.8315 96.081 28.8016Z" fill="#1C2139"/>
<path d="M99.9154 28.6392C99.7567 28.6061 99.5943 28.5937 99.4324 28.6025C99.2751 28.61 99.1195 28.6387 98.9699 28.6879C98.895 28.7136 98.8217 28.7435 98.7503 28.7777C98.6744 28.807 98.6094 28.8589 98.5641 28.9264C98.5566 28.9402 98.5529 28.9558 98.5531 28.9715C98.5534 28.9872 98.5577 29.0026 98.5656 29.0162C98.5735 29.0298 98.5847 29.0412 98.5983 29.0493C98.6119 29.0573 98.6273 29.0618 98.643 29.0623C98.7121 29.0578 98.7794 29.0386 98.8404 29.0059C99.0311 28.9269 99.2345 28.8829 99.441 28.876C99.5737 28.8704 99.7066 28.8816 99.8365 28.9093C99.9763 28.9392 100.11 29.0042 100.249 28.9426C100.263 28.935 100.273 28.9231 100.279 28.9088C100.285 28.8945 100.285 28.8787 100.281 28.864C100.234 28.711 100.061 28.6683 99.9154 28.6392Z" fill="#1C2139"/>
<path d="M96.0554 32.0116C96.0554 32.0116 97.5946 32.3723 99.0154 32.0116C99.0154 32.0116 98.535 33.174 97.2411 33.0449C96.1695 32.9381 96.0554 32.0116 96.0554 32.0116Z" fill="white"/>
<path d="M105.704 39.2428C105.704 39.2428 108.45 39.418 110.795 43.3785C113.14 47.3389 118.056 53.8735 118.056 53.8735L117.44 60.8167C117.44 60.8167 114.239 61.4149 111.251 59.298C107.502 56.6383 105.993 54.7478 105.993 54.7478C105.993 54.7478 103.833 39.4291 105.704 39.2428Z" fill="#67B3FA"/>
<path d="M114.252 56.8443C114.273 57.7571 114.482 58.6792 114.984 59.4347C115.531 60.2586 116.465 60.8526 117.438 60.8167C118.168 60.7902 118.861 60.415 119.358 59.8766C120.23 58.9296 120.659 57.3597 120.903 56.1161C121.182 54.682 121.221 53.2103 121.467 51.7728C121.936 49.032 122.705 40.1086 122.712 39.9787C122.712 39.9719 122.729 39.1719 122.729 39.1719C122.729 39.1719 119.281 37.8284 119.276 37.8293C119.271 37.8301 118.087 41.1991 118.082 41.2119C117.883 41.7735 117.728 42.3538 117.555 42.9212C116.944 44.9314 116.343 46.9449 115.768 48.9713C115.33 50.5173 115.022 52.0848 114.681 53.665C114.473 54.6333 114.264 55.6093 114.252 56.6016C114.25 56.6794 114.25 56.7614 114.252 56.8443Z" fill="#F8D1BE"/>
<path d="M85.9705 48.2098C85.9705 48.2098 70.5601 37.6122 68.6262 33.2535C66.6923 28.8948 61.5101 13.8991 61.5101 13.8991L66.5096 14.2795L74.4545 29.0025L89.4882 38.3121C89.4882 38.3121 91.3612 42.9888 85.9705 48.2098Z" fill="#F8D1BE"/>
<path d="M62.0198 16.5075C61.6311 16.2058 61.3334 15.8033 61.076 15.3819C60.7959 14.917 60.5642 14.4247 60.3845 13.9128C60.2592 13.5556 60.2541 13.2342 60.0739 12.8872C59.8757 12.5169 59.65 12.1618 59.3986 11.8249C58.9276 11.172 58.4111 10.5429 58.0816 9.79939C57.7007 8.94475 58.3776 8.9362 59.0786 9.74213C59.4999 10.2276 59.9649 10.6737 60.4085 11.1395C59.9581 10.0703 58.8796 8.11916 58.9611 7.69696C59.0057 7.46364 59.2485 7.26964 59.4819 7.31237C59.6749 7.35083 59.8002 7.53202 59.9049 7.69782C60.4677 8.59178 60.8581 9.16097 61.7024 10.3532C61.4561 9.27293 61.1018 8.21659 60.8547 7.14059C60.8048 6.96981 60.7873 6.79127 60.8032 6.61412C60.8037 6.52597 60.8316 6.44015 60.8831 6.36841C60.9345 6.29668 61.007 6.24255 61.0905 6.21344C61.174 6.18433 61.2646 6.18167 61.3497 6.20582C61.4348 6.22996 61.5103 6.27974 61.5659 6.34833C61.6803 6.46987 61.7718 6.61084 61.8362 6.76454C62.3098 7.73314 62.7437 8.72083 63.1378 9.7276C63.1601 8.60802 62.8375 7.50552 62.8237 6.38593C62.8129 6.24434 62.834 6.10213 62.8855 5.96972C62.9127 5.9038 62.9587 5.84732 63.018 5.80735C63.0772 5.76737 63.1469 5.74566 63.2184 5.74495C63.4055 5.75862 63.5359 5.83041 63.6955 6.12612C64.4299 7.49356 64.5998 8.96697 65.2227 10.7361C65.094 10.2233 66.1073 8.5875 66.6512 8.99261C66.7236 9.05445 66.7796 9.13293 66.8146 9.22125C66.8496 9.30956 66.8624 9.40504 66.852 9.49941C66.8296 9.68732 66.7799 9.87099 66.7044 10.0447C66.5285 10.5216 66.3887 11.0215 66.4067 11.5283C66.4342 12.2975 66.8228 13.0197 66.8357 13.788C66.8589 14.8991 66.0541 16.0366 64.937 16.2434C64.774 16.2742 64.6024 16.2879 64.4599 16.3725C64.0721 16.6032 63.8748 17.1083 63.3523 17.0622C62.9053 17.022 62.3707 16.7793 62.0198 16.5075Z" fill="#F8D1BE"/>
<path d="M64.2248 14.3829C64.1714 14.2298 64.1355 14.0713 64.1176 13.9102C64.0776 13.5979 64.081 13.2815 64.1279 12.9701C64.226 12.3499 64.4884 11.7669 64.888 11.2813C64.961 11.1899 65.0828 11.3095 65.0193 11.3993C64.693 11.8829 64.4973 12.4422 64.4513 13.0231C64.4259 13.303 64.4322 13.5848 64.4702 13.8632C64.4882 14 64.5157 14.135 64.5423 14.2709C64.5569 14.3478 64.556 14.4247 64.568 14.5025C64.5837 14.5725 64.5934 14.6437 64.5972 14.7153C64.5959 14.7304 64.5907 14.7449 64.582 14.7573C64.5733 14.7697 64.5614 14.7795 64.5477 14.7859C64.5339 14.7922 64.5186 14.7948 64.5035 14.7934C64.4884 14.7919 64.474 14.7865 64.4616 14.7777C64.3574 14.6629 64.2769 14.5287 64.2248 14.3829Z" fill="#F68A73"/>
<path d="M68.4529 34.3431C68.4529 34.3431 71.4937 29.1298 74.6871 28.3478C74.6871 28.3478 75.8402 29.3691 77.588 30.6237C79.1521 31.7467 91.2669 39.2428 91.2669 39.2428C91.2669 39.2428 91.4171 41.7982 90.7101 44.3647C90.0031 46.9312 87.0696 51.2617 86.1327 51.1566C85.1958 51.0515 71.6738 39.1975 68.4529 34.3431Z" fill="#67B3FA"/>
<path d="M60.2102 11.4788C60.2823 11.201 60.5268 10.9985 60.7379 10.8361C60.9921 10.6497 61.2681 10.4948 61.5598 10.3746C61.8541 10.2464 62.1604 10.1387 62.4607 10.0327C62.761 9.92673 63.0991 9.74042 63.432 9.71991C63.5178 9.71392 63.5444 9.83785 63.4869 9.88229C63.2544 10.0643 62.9155 10.1387 62.6409 10.2464C62.3492 10.3609 62.0557 10.4703 61.7709 10.6002C61.5022 10.7165 61.2461 10.8597 61.0064 11.0275C60.7748 11.1933 60.6032 11.442 60.3706 11.6001C60.3519 11.6088 60.3311 11.6121 60.3105 11.6099C60.2899 11.6077 60.2703 11.5999 60.2538 11.5874C60.2374 11.575 60.2246 11.5583 60.2169 11.5391C60.2092 11.52 60.2069 11.4991 60.2102 11.4788Z" fill="#F68A73"/>
<path d="M123.303 38.9497C123.631 38.5822 123.852 38.1326 124.026 37.6728C124.217 37.165 124.356 36.6389 124.439 36.1028C124.498 35.7285 124.444 35.4123 124.558 35.0362C124.685 34.636 124.843 34.246 125.03 33.8696C125.373 33.1423 125.767 32.427 125.957 31.6399C126.176 30.7305 125.508 30.845 124.966 31.7638C124.639 32.3167 124.263 32.8389 123.912 33.3765C124.163 32.2467 124.868 30.1331 124.712 29.7323C124.626 29.5118 124.352 29.3614 124.13 29.4486C123.948 29.5203 123.857 29.7212 123.787 29.9041C123.396 30.8844 123.115 31.5142 122.5 32.8389C122.546 31.7322 122.704 30.6331 122.75 29.5272C122.769 29.3502 122.754 29.1713 122.706 28.9999C122.69 28.9132 122.647 28.8337 122.583 28.7723C122.519 28.7109 122.438 28.6707 122.351 28.6571C122.263 28.6435 122.174 28.6573 122.094 28.6965C122.015 28.7356 121.95 28.7983 121.907 28.8759C121.817 29.0157 121.752 29.1706 121.717 29.3332C121.428 30.3724 121.181 31.4222 120.975 32.4825C120.75 31.3852 120.867 30.2434 120.678 29.1392C120.662 28.9979 120.616 28.8618 120.541 28.7409C120.502 28.6811 120.446 28.6339 120.381 28.6053C120.315 28.5768 120.243 28.568 120.173 28.5802C119.991 28.6272 119.876 28.7204 119.773 29.0409C119.299 30.5211 119.399 31.9971 119.108 33.8491C119.14 33.3227 117.847 31.8954 117.386 32.392C117.326 32.4659 117.285 32.5533 117.267 32.6465C117.248 32.7397 117.253 32.8359 117.28 32.927C117.336 33.109 117.418 33.2818 117.525 33.4397C117.782 33.8773 118.013 34.344 118.087 34.8456C118.199 35.6063 117.949 36.384 118.072 37.1455C118.252 38.2463 119.249 39.2172 120.389 39.2189C120.554 39.2189 120.726 39.2018 120.881 39.2599C121.304 39.4171 121.59 39.8778 122.095 39.7385C122.527 39.6146 123.008 39.2795 123.303 38.9497Z" fill="#F8D1BE"/>
<path d="M45.5798 63.3721L57.0357 73.9509L51.7599 63.3721H45.5798Z" fill="#FFAB00"/>
<path d="M59.3849 47.0295H3.67734C1.6464 47.0295 0 48.6695 0 50.6925V61.4636C0 63.4867 1.6464 65.1267 3.67734 65.1267H59.3849C61.4158 65.1267 63.0622 63.4867 63.0622 61.4636V50.6925C63.0622 48.6695 61.4158 47.0295 59.3849 47.0295Z" fill="#FFC400"/>
<path d="M21.6891 52.1745H5.27489C5.18842 52.1745 5.10549 52.1403 5.04435 52.0794C4.9832 52.0185 4.94885 51.9359 4.94885 51.8497C4.94885 51.7636 4.9832 51.681 5.04435 51.6201C5.10549 51.5592 5.18842 51.525 5.27489 51.525H21.6891C21.7756 51.525 21.8585 51.5592 21.9196 51.6201C21.9808 51.681 22.0151 51.7636 22.0151 51.8497C22.0151 51.9359 21.9808 52.0185 21.9196 52.0794C21.8585 52.1403 21.7756 52.1745 21.6891 52.1745Z" fill="white"/>
<path d="M33.9764 56.3392H5.24232C5.16161 56.3309 5.08686 56.2932 5.0325 56.2332C4.97815 56.1732 4.94806 56.0952 4.94806 56.0144C4.94806 55.9336 4.97815 55.8557 5.0325 55.7957C5.08686 55.7357 5.16161 55.6979 5.24232 55.6897H33.9764C34.0571 55.6979 34.1318 55.7357 34.1862 55.7957C34.2405 55.8557 34.2706 55.9336 34.2706 56.0144C34.2706 56.0952 34.2405 56.1732 34.1862 56.2332C34.1318 56.2932 34.0571 56.3309 33.9764 56.3392Z" fill="white"/>
<path d="M34.9913 60.5039H5.25257C5.17018 60.4979 5.09312 60.4611 5.03686 60.4009C4.98061 60.3406 4.94934 60.2614 4.94934 60.1791C4.94934 60.0968 4.98061 60.0176 5.03686 59.9573C5.09312 59.8971 5.17018 59.8603 5.25257 59.8543H34.9913C35.0737 59.8603 35.1508 59.8971 35.207 59.9573C35.2633 60.0176 35.2946 60.0968 35.2946 60.1791C35.2946 60.2614 35.2633 60.3406 35.207 60.4009C35.1508 60.4611 35.0737 60.4979 34.9913 60.5039Z" fill="white"/>
<path d="M44.0148 57.9237H42.6643V58.8851H41.6124V57.9237H40.7545V57.069H41.6124V56.6272H40.7545V55.7725H41.6124V52.8078H43.9462C44.6194 52.8078 45.1571 52.9824 45.5592 53.3317C45.9613 53.6809 46.1615 54.1456 46.1598 54.7256C46.1598 55.3159 45.9685 55.7788 45.5858 56.1144C45.2031 56.45 44.6712 56.6209 43.9899 56.6272H42.6643V57.069H44.0148V57.9237ZM42.6661 55.7794H43.929C44.3082 55.7794 44.5985 55.6916 44.7999 55.5161C45.0012 55.3406 45.1019 55.0791 45.1019 54.7316C45.1072 54.5909 45.0838 54.4507 45.033 54.3194C44.9823 54.188 44.9053 54.0683 44.8067 53.9675C44.6094 53.7698 44.3377 53.667 43.9916 53.659H42.6643L42.6661 55.7794Z" fill="white"/>
<path d="M49.8989 57.9237H48.5502V58.8851H47.4948V57.9237H46.6368V57.069H47.4948V56.6272H46.6368V55.7725H47.4948V52.8078H49.8277C50.5015 52.8078 51.0392 52.9824 51.4407 53.3317C51.8423 53.6809 52.0425 54.1456 52.0413 54.7256C52.0413 55.3159 51.8503 55.7788 51.4682 56.1144C51.0861 56.45 50.5538 56.6209 49.8715 56.6272H48.5502V57.069H49.8989V57.9237ZM48.5502 55.7794H49.8114C50.1918 55.7794 50.4823 55.6916 50.6831 55.5161C50.8839 55.3406 50.9843 55.0791 50.9843 54.7316C50.9896 54.5909 50.9661 54.4507 50.9154 54.3194C50.8647 54.188 50.7877 54.0683 50.6891 53.9675C50.4918 53.7698 50.2201 53.667 49.874 53.659H48.5502V55.7794Z" fill="white"/>
<path d="M55.7856 57.9237H54.4368V58.8851H53.3806V57.9237H52.5226V57.069H53.3806V56.6272H52.5226V55.7725H53.3806V52.8078H55.7144C56.387 52.8078 56.9247 52.9824 57.3274 53.3317C57.7301 53.6809 57.9303 54.1456 57.928 54.7256C57.928 55.3159 57.7367 55.7788 57.354 56.1144C56.9713 56.45 56.4394 56.6209 55.7581 56.6272H54.4368V57.069H55.7856V57.9237ZM54.4368 55.7794H55.6972C56.0776 55.7794 56.3682 55.6916 56.5689 55.5161C56.7697 55.3406 56.8701 55.0791 56.8701 54.7316C56.8756 54.5909 56.8523 54.4506 56.8015 54.3193C56.7508 54.1879 56.6737 54.0682 56.5749 53.9675C56.381 53.7704 56.1096 53.6675 55.7607 53.659H54.4368V55.7794Z" fill="white"/>
</svg>
