<svg width="118" height="100" viewBox="0 0 118 100" fill="none" xmlns="http://www.w3.org/2000/svg">
<g clip-path="url(#clip0_123_534)">
<path d="M93.7999 53.2118C105.973 41.0389 105.973 21.3026 93.7999 9.12969C81.6269 -3.04324 61.8907 -3.04324 49.7178 9.12969C37.5449 21.3026 37.5449 41.0388 49.7178 53.2118C61.8907 65.3847 81.6269 65.3847 93.7999 53.2118Z" fill="#FFC400"/>
<path d="M90.2339 49.6457C100.437 39.4421 100.437 22.8988 90.2339 12.6952C80.0303 2.4916 63.487 2.4916 53.2834 12.6952C43.0798 22.8988 43.0798 39.4421 53.2834 49.6457C63.487 59.8493 80.0303 59.8493 90.2339 49.6457Z" fill="#FFAB00"/>
<path d="M88.7159 48.128C98.0813 38.7626 98.0813 23.5782 88.7159 14.2128C79.3505 4.84743 64.1662 4.84743 54.8008 14.2128C45.4354 23.5782 45.4354 38.7626 54.8008 48.128C64.1662 57.4934 79.3505 57.4934 88.7159 48.128Z" fill="#FFE380"/>
<path d="M64.2192 12.409C63.9198 11.7003 63.2559 11.4878 62.5387 11.5838C62.3828 11.6056 62.2262 11.6431 62.0696 11.6602C62.4973 11.6135 61.3537 11.7674 61.5952 11.699C61.1998 11.8217 60.8206 11.9918 60.4661 12.2056C59.8614 12.5609 59.3041 13.04 58.7553 13.4749C57.8506 14.1987 56.9432 14.9369 56.1346 15.766C55.2808 16.6304 54.5188 17.5808 53.8605 18.6019C53.507 19.1634 53.2182 19.7631 52.9999 20.3897C52.7058 21.224 52.6577 21.9504 53.2295 22.6755C53.4802 22.994 53.9757 23.0538 54.3402 22.969C55.0864 22.7959 55.422 22.1643 55.7937 21.5681C56.0727 21.1207 56.3668 20.6746 56.6754 20.2475L56.8189 20.0561L56.9505 19.8935C57.1215 19.6882 57.297 19.488 57.4768 19.2928C57.844 18.898 58.2309 18.5223 58.629 18.1584C59.4047 17.4498 60.2042 16.7767 61.0313 16.1266C61.0662 16.0996 61.1056 16.0693 61.1385 16.045C61.2443 15.9643 61.3511 15.8847 61.459 15.8061C61.7176 15.618 61.9854 15.4469 62.2486 15.2672C62.4677 15.1179 62.6841 14.9606 62.8987 14.8067C63.08 14.7088 63.2351 14.5686 63.3507 14.398C63.4566 14.3276 63.5968 14.2092 63.6297 14.1888C64.2357 13.8032 64.4989 13.0748 64.2192 12.409Z" fill="#FFF0B2"/>
<path d="M74.6039 39.9647H69.365V43.1638H64.4229V39.9647H61.0784V35.9615H64.4229V34.7113H61.0784V30.7062H64.4229V19.1743H73.7472C75.5483 19.1743 77.1297 19.4982 78.4913 20.1461C79.8529 20.794 80.91 21.7194 81.6628 22.9222C82.4146 24.125 82.7908 25.4951 82.7912 27.0326C82.7912 29.4044 81.9867 31.2769 80.3777 32.6498C78.7687 34.0228 76.5316 34.7093 73.6663 34.7093H69.365V35.9595H74.6039V39.9647ZM69.365 30.7062H73.6321C76.3996 30.7062 77.7833 29.4926 77.7833 27.0655C77.7833 25.9123 77.4324 24.9815 76.7305 24.273C76.0287 23.5646 75.0566 23.2049 73.8143 23.1939H69.3664L69.365 30.7062Z" fill="#FFC400"/>
<path d="M29.9562 77.7979C36.8091 70.945 36.8091 59.8343 29.9562 52.9815C23.1034 46.1287 11.9927 46.1286 5.13987 52.9815C-1.71298 59.8343 -1.71298 70.945 5.13987 77.7979C11.9927 84.6507 23.1034 84.6507 29.9562 77.7979Z" fill="#FFC400"/>
<path d="M27.9485 75.7904C33.6928 70.046 33.6928 60.7327 27.9485 54.9884C22.2041 49.244 12.8907 49.244 7.14639 54.9883C1.40206 60.7327 1.40206 70.0461 7.14639 75.7904C12.8907 81.5347 22.2041 81.5347 27.9485 75.7904Z" fill="#FFAB00"/>
<path d="M27.0938 74.9357C32.3661 69.6634 32.3661 61.1153 27.0938 55.843C21.8215 50.5708 13.2734 50.5708 8.00116 55.843C2.72887 61.1153 2.72887 69.6634 8.00116 74.9357C13.2734 80.208 21.8215 80.208 27.0938 74.9357Z" fill="#FFE380"/>
<path d="M13.3024 54.8279C13.1339 54.4285 12.7602 54.3088 12.3568 54.3634C12.2687 54.3752 12.1805 54.3963 12.0936 54.4061C12.3345 54.3798 11.691 54.466 11.8272 54.4279C11.6043 54.497 11.3907 54.5929 11.1909 54.7134C10.8507 54.9108 10.5369 55.1832 10.2296 55.428C9.71032 55.8269 9.21653 56.2578 8.75108 56.7183C8.27042 57.2049 7.84132 57.7398 7.47064 58.3146C7.27168 58.6308 7.10922 58.9685 6.98636 59.3213C6.82055 59.7904 6.79357 60.1997 7.11796 60.6083C7.25943 60.7873 7.53841 60.8208 7.74305 60.7735C8.1635 60.6754 8.35234 60.3201 8.56158 59.9839C8.71884 59.7319 8.88465 59.4812 9.0577 59.2404C9.0656 59.2292 9.1156 59.164 9.13863 59.1324L9.21167 59.041C9.30773 58.9252 9.40906 58.8127 9.50842 58.7028C9.71503 58.4797 9.93348 58.2692 10.1572 58.0645C10.5941 57.6651 11.0442 57.2855 11.5094 56.9203L11.5699 56.8742C11.6298 56.8288 11.6896 56.7841 11.7502 56.7426C11.8962 56.6367 12.0476 56.5406 12.1956 56.4393C12.3187 56.3551 12.4411 56.2663 12.5615 56.1761C12.6638 56.1212 12.7512 56.0421 12.8161 55.9458C12.876 55.9063 12.9549 55.8399 12.9734 55.828C13.1389 55.7284 13.2631 55.5726 13.3235 55.389C13.3839 55.2055 13.3764 55.0064 13.3024 54.8279Z" fill="#FFF0B2"/>
<path d="M19.1474 70.3387H16.2003V72.1376H13.4183V70.3387H11.5352V68.0851H13.4183V67.3797H11.5352V65.1281H13.4183V58.6364H18.6671C19.6812 58.6364 20.5717 58.8189 21.3385 59.1838C22.0727 59.5202 22.693 60.0632 23.1236 60.7465C23.5469 61.4229 23.7586 62.1941 23.7586 63.06C23.7586 64.3957 23.3056 65.45 22.3998 66.223C21.494 66.9959 20.2344 67.3821 18.621 67.3817H16.2003V68.087H19.1474V70.3387ZM16.1983 65.1261H18.6006C20.1587 65.1261 20.9376 64.4429 20.9371 63.0765C20.9371 62.4277 20.7397 61.9037 20.3449 61.5045C19.9501 61.1054 19.4031 60.9029 18.7039 60.8972H16.2003L16.1983 65.1261Z" fill="#FFC400"/>
<path d="M17.4082 89.1017C17.4082 89.1017 38.9335 92.6357 39.1915 92.4824C39.4494 92.3291 42.2373 80.4307 42.2373 80.4307C42.2373 80.4307 24.4375 77.2645 24.1479 77.2645C23.8584 77.2645 19.9888 80.3281 19.9368 80.5327C19.8849 80.7373 17.4082 89.1017 17.4082 89.1017Z" fill="#C7C7C7"/>
<path d="M83.0681 92.1252C83.584 92.1759 109.651 91.6245 109.651 91.6245L107.689 85.6915C107.689 85.6915 104.076 80.2855 102.166 80.3842C100.255 80.4829 88.8972 78.6602 86.9371 80.0052C84.9769 81.3501 83.2214 80.2782 82.293 83.4925C81.3646 86.7067 80.6388 87.0693 81.3626 89.0083C82.0864 90.9474 83.0681 92.1252 83.0681 92.1252Z" fill="#C7C7C7"/>
<path d="M28.2782 99.9999C33.1782 99.9999 37.1512 96.0691 37.1512 91.2198C37.1512 86.3704 33.1782 82.439 28.2782 82.439C23.3782 82.439 19.4053 86.3698 19.4053 91.2198C19.4053 96.0698 23.3775 99.9999 28.2782 99.9999Z" fill="#1E1F21"/>
<path d="M28.2783 97.3293C31.6873 97.3293 34.4515 94.594 34.4515 91.2199C34.4515 87.8457 31.688 85.1105 28.2783 85.1105C24.8686 85.1105 22.1084 87.8457 22.1084 91.2199C22.1084 94.594 24.8719 97.3293 28.2783 97.3293Z" fill="#C7C7C7"/>
<path d="M28.2781 95.306C30.558 95.306 32.4063 93.4761 32.4063 91.2199C32.4063 88.9637 30.558 87.1338 28.2781 87.1338C25.9982 87.1338 24.1499 88.963 24.1499 91.2199C24.1499 93.4768 25.9982 95.306 28.2781 95.306Z" fill="#DEDEDE"/>
<path d="M96.5924 99.9999C101.493 99.9999 105.465 96.0691 105.465 91.2198C105.465 86.3704 101.49 82.439 96.5924 82.439C91.6944 82.439 87.7195 86.3698 87.7195 91.2198C87.7195 96.0698 91.6898 99.9999 96.5924 99.9999Z" fill="#1E1F21"/>
<path d="M96.5923 97.3293C100.001 97.3293 102.766 94.594 102.766 91.2199C102.766 87.8457 100.002 85.1105 96.5923 85.1105C93.1827 85.1105 90.4185 87.8457 90.4185 91.2199C90.4185 94.594 93.18 97.3293 96.5923 97.3293Z" fill="#C7C7C7"/>
<path d="M92.46 91.2199C92.46 93.4761 94.3082 95.306 96.5888 95.306C98.8694 95.306 100.716 93.4761 100.716 91.2199C100.716 88.9637 98.8687 87.1338 96.5888 87.1338C94.3089 87.1338 92.46 88.963 92.46 91.2199Z" fill="#DEDEDE"/>
<path d="M10.3409 75.4209H15.8081C15.9155 75.4198 16.0216 75.4454 16.1166 75.4954C16.2117 75.5455 16.2929 75.6184 16.3528 75.7076C16.4127 75.7968 16.4495 75.8995 16.4598 76.0065C16.4702 76.1134 16.4538 76.2213 16.4121 76.3203L15.7975 77.7679C15.5073 78.4462 15.0239 79.0241 14.4075 79.4296C13.7911 79.8352 13.0691 80.0504 12.3313 80.0485H10.3409C10.1549 80.0493 9.97616 79.9764 9.84392 79.8456C9.71167 79.7149 9.63672 79.537 9.6355 79.351V76.1164C9.63724 75.9307 9.71242 75.7533 9.84461 75.623C9.9768 75.4927 10.1552 75.42 10.3409 75.4209Z" fill="#F2F2F2"/>
<path d="M116.959 82.8634C116.209 77.97 113.784 76.9416 106.611 75.523C98.6965 73.957 88.6484 68.8503 88.6484 68.8503C88.6484 68.8503 71.5098 60.5433 67.3119 59.5898C63.1139 58.6364 52.7901 58.9095 44.1179 58.9773C35.4456 59.045 30.3528 61.4283 25.9476 64.8333C21.5424 68.2384 13.9065 70.8256 13.9065 70.8256L12.5181 71.071C11.8301 71.1892 11.2058 71.5461 10.7548 72.0789C10.3037 72.6118 10.0549 73.2865 10.052 73.9846V86.1303C10.0545 86.8019 10.2797 87.4536 10.6922 87.9835C11.1048 88.5133 11.6815 88.8914 12.3319 89.0584L17.3471 90.3684C17.4433 90.3852 17.5419 90.3821 17.6369 90.3593C17.7319 90.3365 17.8211 90.2944 17.8992 90.2358C17.9773 90.1772 18.0426 90.1032 18.091 90.0184C18.1395 89.9336 18.17 89.8397 18.1808 89.7427C18.7295 84.7755 23.0709 81 28.2479 81.0066C33.752 81.0125 38.2658 85.4875 38.2625 90.9323C38.2624 91.5402 38.206 92.1469 38.094 92.7444C38.0677 92.8875 38.0734 93.0346 38.1106 93.1752C38.1478 93.3159 38.2157 93.4466 38.3093 93.5579C38.4029 93.6693 38.52 93.7585 38.6522 93.8194C38.7843 93.8802 38.9283 93.911 39.0738 93.9097H85.2348C85.445 93.9112 85.6531 93.8678 85.8452 93.7824C86.0373 93.697 86.2089 93.5715 86.3486 93.4144C86.4883 93.2573 86.5928 93.0722 86.6551 92.8714C86.7174 92.6706 86.7361 92.4588 86.71 92.2502C86.6521 91.8214 86.6222 91.3893 86.6205 90.9566C86.6047 85.5783 91.0007 81.1198 96.4363 81.0092C102.071 80.8941 106.675 85.3789 106.675 90.927C106.675 91.29 106.655 91.6526 106.615 92.0134C106.589 92.2528 106.614 92.495 106.688 92.7242C106.762 92.9534 106.883 93.1644 107.044 93.3434C107.206 93.5224 107.403 93.6654 107.623 93.763C107.843 93.8606 108.081 93.9106 108.322 93.9097H114.96C115.245 93.9114 115.528 93.8568 115.793 93.7491C116.057 93.6413 116.298 93.4825 116.501 93.2816C116.703 93.0808 116.865 92.8419 116.975 92.5787C117.086 92.3155 117.143 92.033 117.144 91.7475V85.3875C117.148 84.5426 117.086 83.6987 116.959 82.8634ZM56.8433 71.1691C56.6216 72.6824 55.001 72.7239 55.001 72.7239L28.4677 72.4758C25.6746 72.4495 26.9451 70.4584 26.9451 70.4571L28.8283 68.5931C32.4441 65.0256 37.1424 62.7603 42.1854 62.1527C48.4205 61.4013 54.8306 61.8546 55.5958 61.8652C56.8552 61.8816 57.0473 63.1811 57.0473 63.1811C57.0473 63.1811 57.0638 69.6577 56.8433 71.1691ZM83.6194 72.668C83.4823 72.8618 83.2983 73.0177 83.0846 73.1212C82.871 73.2248 82.6346 73.2726 82.3975 73.2601L61.5479 72.4311C61.1278 72.4105 60.7319 72.2282 60.4432 71.9223C60.1545 71.6164 59.9953 71.2107 59.999 70.7901V64.0036C59.9971 63.8057 60.035 63.6094 60.1105 63.4264C60.186 63.2433 60.2974 63.0774 60.4383 62.9383C60.5791 62.7992 60.7465 62.6899 60.9305 62.6167C61.1144 62.5436 61.3112 62.5082 61.5091 62.5126C63.1034 62.5639 65.6498 62.6844 67.5968 62.964C70.6538 63.4016 78.9194 67.9285 82.1685 70.0209C84.0359 71.2243 83.9931 72.1218 83.6194 72.668Z" fill="#38AE83"/>
<path d="M108.263 77.6685C111.274 78.1245 114.742 80.9446 114.742 80.9446C115.57 81.8263 114.886 83.2567 113.672 83.1817L107.801 82.8146C107.208 82.7795 106.641 82.5627 106.176 82.1936C105.711 81.8245 105.371 81.3211 105.202 80.7518C104.632 78.8009 105.117 77.1915 108.263 77.6685Z" fill="white"/>
<path d="M10.0809 86.5791C9.99451 86.5762 9.90875 86.5947 9.83131 86.6331C9.75386 86.6715 9.68714 86.7284 9.63713 86.7989C9.58712 86.8694 9.55537 86.9512 9.54474 87.037C9.53411 87.1228 9.54492 87.2098 9.57621 87.2904C9.77587 87.7858 10.0889 88.2276 10.4903 88.5801C10.8916 88.9326 11.37 89.1861 11.8871 89.3203L17.5076 90.7889C17.6153 90.8076 17.7257 90.8041 17.8321 90.7785C17.9384 90.753 18.0384 90.7059 18.1258 90.6403C18.2133 90.5746 18.2864 90.4918 18.3406 90.3968C18.3949 90.3019 18.4291 90.1968 18.4413 90.0881C18.5435 89.1638 18.7662 88.2569 19.1038 87.3904C19.1295 87.3232 19.1385 87.2508 19.1302 87.1793C19.1218 87.1079 19.0964 87.0395 19.0559 86.98C19.0155 86.9205 18.9613 86.8716 18.8979 86.8376C18.8345 86.8035 18.7639 86.7853 18.6919 86.7844L10.0809 86.5791Z" fill="#339972"/>
<path d="M106.719 88.8674C106.619 88.8649 106.52 88.8839 106.429 88.9233C106.337 88.9627 106.255 89.0215 106.188 89.0956C106.122 89.1697 106.072 89.2574 106.042 89.3526C106.013 89.4479 106.004 89.5483 106.017 89.6472C106.131 90.519 106.14 91.4013 106.043 92.2752C106.014 92.5409 106.041 92.8099 106.123 93.0644C106.205 93.3189 106.34 93.5533 106.518 93.7521C106.697 93.9509 106.916 94.1096 107.16 94.218C107.405 94.3263 107.669 94.3818 107.937 94.3807H115.302C115.942 94.3839 116.557 94.133 117.011 93.6831C117.466 93.2333 117.723 92.6213 117.727 91.9817V90.0959C117.727 89.8369 117.625 89.5882 117.444 89.4035C117.262 89.2189 117.015 89.1131 116.756 89.1089L106.719 88.8674Z" fill="#339972"/>
<path opacity="0.5" d="M88.6597 71.6619C88.5623 71.6086 78.8057 66.3132 72.3344 63.3476C65.9282 60.4123 58.7799 60.7242 58.4693 60.7394C57.6468 60.7203 40.5379 60.3531 35.2773 61.9757C29.9785 63.6095 23.0769 71.0526 22.7867 71.3691L22.7058 71.456L24.562 80.071L24.7594 80.0598C30.1549 79.7578 34.2883 81.1784 36.7058 84.1689C38.5337 86.4291 38.7593 88.8163 38.7613 88.8406L38.7791 89.0459L58.2384 89.5407L58.4627 89.5453L58.7022 89.5519L85.8165 90.0783V89.848C85.9521 81.1303 88.738 72.0278 88.7663 71.937L88.8209 71.758L88.6597 71.6619ZM39.2009 88.5952C39.1068 87.9484 38.6968 85.9027 37.0854 83.9011C35.349 81.7429 31.8334 79.2557 24.9331 79.5907L23.2098 71.5889C24.0086 70.7394 30.5372 63.9155 35.4155 62.4113C40.2938 60.9071 56.1493 61.1552 58.239 61.1927V89.0782L39.2009 88.5952ZM85.3612 89.6039L58.7035 89.0913V61.1927C59.9583 61.1572 66.3612 61.1197 72.1396 63.7674C78.1339 66.5138 86.9621 71.2685 88.2721 71.9791C87.8832 73.2904 85.5277 81.5705 85.3612 89.6039Z" fill="#339972"/>
<path d="M87.0515 91.5857C87.0495 91.0953 87.0847 90.6054 87.1567 90.1203C87.1769 89.9844 87.168 89.8457 87.1305 89.7135C87.093 89.5813 87.0278 89.4585 86.9393 89.3535C86.8507 89.2484 86.7408 89.1633 86.6169 89.1039C86.493 89.0445 86.3578 89.0122 86.2204 89.009L38.2092 87.8496C38.0885 87.8463 37.9687 87.8715 37.8595 87.9232C37.7504 87.975 37.655 88.0517 37.5812 88.1473C37.5073 88.2428 37.457 88.3544 37.4344 88.4731C37.4118 88.5917 37.4176 88.714 37.4512 88.83C37.7052 89.7182 37.8337 90.6375 37.8328 91.5613C37.8326 92.1767 37.7758 92.7908 37.6631 93.3958C37.6358 93.5419 37.6411 93.6923 37.6785 93.8362C37.716 93.98 37.7848 94.1139 37.8799 94.2281C37.9751 94.3424 38.0942 94.4342 38.229 94.4971C38.3637 94.56 38.5106 94.5924 38.6593 94.592H85.6394C85.8549 94.5925 86.0679 94.5467 86.2642 94.458C86.4605 94.3692 86.6356 94.2394 86.7775 94.0773C86.9195 93.9152 87.0251 93.7246 87.0872 93.5183C87.1493 93.312 87.1665 93.0948 87.1377 92.8812C87.081 92.4517 87.0522 92.0189 87.0515 91.5857Z" fill="#339972"/>
<path d="M66.5808 75.6368H60.6109C60.576 75.6373 60.5414 75.6309 60.509 75.6179C60.4766 75.6049 60.4471 75.5856 60.4222 75.5611C60.3974 75.5366 60.3776 75.5074 60.3642 75.4752C60.3507 75.4431 60.3437 75.4085 60.3438 75.3736V74.8637C60.3437 74.8288 60.3507 74.7942 60.3642 74.762C60.3776 74.7298 60.3974 74.7006 60.4222 74.6761C60.4471 74.6516 60.4766 74.6323 60.509 74.6193C60.5414 74.6063 60.576 74.5999 60.6109 74.6004H66.5808C66.6156 74.6 66.6502 74.6065 66.6825 74.6195C66.7148 74.6326 66.7442 74.6519 66.769 74.6764C66.7938 74.7008 66.8135 74.73 66.8269 74.7622C66.8404 74.7943 66.8473 74.8288 66.8473 74.8637V75.3736C66.8464 75.4437 66.818 75.5107 66.7681 75.5599C66.7182 75.6092 66.6509 75.6368 66.5808 75.6368Z" fill="#339972"/>
<path d="M33.5572 75.1163H27.586C27.5511 75.1168 27.5164 75.1104 27.4841 75.0974C27.4517 75.0844 27.4222 75.0651 27.3973 75.0406C27.3725 75.0161 27.3527 74.9869 27.3393 74.9547C27.3258 74.9225 27.3188 74.888 27.3188 74.8531V74.3425C27.3188 74.3076 27.3258 74.273 27.3393 74.2408C27.3527 74.2086 27.3725 74.1794 27.3973 74.1549C27.4222 74.1304 27.4517 74.1111 27.4841 74.0982C27.5164 74.0852 27.5511 74.0787 27.586 74.0793H33.5572C33.5921 74.0787 33.6267 74.0852 33.6591 74.0982C33.6915 74.1111 33.721 74.1304 33.7459 74.1549C33.7707 74.1794 33.7905 74.2086 33.8039 74.2408C33.8174 74.273 33.8244 74.3076 33.8243 74.3425V74.8531C33.8244 74.888 33.8174 74.9225 33.8039 74.9547C33.7905 74.9869 33.7707 75.0161 33.7459 75.0406C33.721 75.0651 33.6915 75.0844 33.6591 75.0974C33.6267 75.1104 33.5921 75.1168 33.5572 75.1163Z" fill="#339972"/>
</g>
<defs>
<clipPath id="clip0_123_534">
<rect width="117.727" height="100" fill="white"/>
</clipPath>
</defs>
</svg>
